<svg width="500" height="500" viewBox="0 0 500 500" fill="none" xmlns="http://www.w3.org/2000/svg">
<path d="M250 463.647C372.862 463.647 472.461 406.143 472.461 335.209C472.461 264.275 372.862 206.771 250 206.771C127.138 206.771 27.539 264.275 27.539 335.209C27.539 406.143 127.138 463.647 250 463.647Z" fill="#F5F5F5"/>
<path d="M289.937 441.703L399.076 378.692C401.468 377.311 401.468 375.073 399.076 373.692L192.448 254.394C190.057 253.013 186.179 253.013 183.788 254.394L74.648 317.406C72.256 318.787 72.256 321.025 74.648 322.406L281.277 441.703C283.668 443.084 287.546 443.084 289.937 441.703Z" fill="#E0E0E0"/>
<path d="M95.523 319.783L104.078 314.844C104.078 314.844 106.174 296.523 104.779 282.334C102.82 262.396 89.944 238.406 74.583 244.04C59.222 249.674 81.626 269.979 86.613 286.89C91.6 303.801 95.523 319.783 95.523 319.783Z" fill="#27DEBF"/>
<path opacity="0.15" d="M95.523 319.783L104.078 314.844C104.078 314.844 106.174 296.523 104.779 282.334C102.82 262.396 89.944 238.406 74.583 244.04C59.222 249.674 81.626 269.979 86.613 286.89C91.6 303.801 95.523 319.783 95.523 319.783Z" fill="black"/>
<path d="M100.022 317.703C100.016 317.703 100.011 317.703 100.004 317.703C99.7179 317.693 99.4939 317.454 99.5039 317.167C101.007 272.866 78.9539 250.581 78.7309 250.362C78.5269 250.161 78.5249 249.833 78.7249 249.63C78.9279 249.426 79.2559 249.424 79.4569 249.624C79.6839 249.847 102.056 272.452 100.539 317.203C100.53 317.483 100.3 317.703 100.022 317.703Z" fill="white"/>
<path d="M90.957 323.317L97.044 319.802C97.044 319.802 98.079 307.23 91.916 291.957C86.55 278.661 73.236 267.631 66.539 269.949C59.843 272.267 60.009 277.016 63.274 281.997C66.539 286.978 86.402 298.851 90.957 323.317Z" fill="#27DEBF"/>
<path d="M94.168 321.981H94.166C93.88 321.979 93.649 321.747 93.65 321.461C93.771 293.451 67.47 274.519 67.204 274.331C66.971 274.166 66.915 273.843 67.081 273.609C67.244 273.377 67.567 273.319 67.803 273.486C68.072 273.677 94.809 292.922 94.686 321.466C94.685 321.751 94.453 321.981 94.168 321.981Z" fill="white"/>
<path d="M387.735 54.706L396.346 59.677C396.303 59.293 396.274 58.911 396.274 58.537V56.042C396.274 51.603 399.39 49.803 403.235 52.023C404.792 52.922 406.224 54.346 407.384 56.013C408.013 50.431 412.393 48.352 417.712 51.423C423.464 54.744 428.126 62.819 428.126 69.461V73.193C428.126 74.913 427.808 76.362 427.244 77.516L434.396 81.645C436.529 82.876 438.257 85.871 438.257 88.333C438.257 90.795 436.528 91.793 434.396 90.562L387.735 63.622C385.602 62.391 383.874 59.396 383.874 56.934C383.874 54.473 385.602 53.475 387.735 54.706Z" fill="#EBEBEB"/>
<path d="M351.958 76.8881L358.27 80.5321C358.239 80.2501 358.217 79.9701 358.217 79.6961V77.8671C358.217 74.6131 360.502 73.2931 363.32 74.9211C364.461 75.5801 365.511 76.6241 366.361 77.8461C366.822 73.7541 370.033 72.2291 373.933 74.4811C378.149 76.9151 381.567 82.8361 381.567 87.7041V90.4401C381.567 91.7011 381.334 92.7631 380.921 93.6091L386.164 96.6361C387.727 97.5391 388.995 99.7341 388.995 101.539C388.995 103.344 387.728 104.076 386.164 103.173L351.957 83.4241C350.394 82.5211 349.126 80.3261 349.126 78.5211C349.127 76.7171 350.395 75.9861 351.958 76.8881Z" fill="#EBEBEB"/>
<path d="M392.464 357.272C394.016 358.474 393.847 360.18 391.965 361.26L288.952 420.742C286.883 421.929 283.526 421.93 281.459 420.737L84.588 307.073C82.683 305.973 82.527 304.239 84.148 303.043C82.287 304.361 80.842 307.02 80.841 309.242L80.835 314.194C80.828 316.583 82.506 319.491 84.581 320.689L281.444 434.348C283.52 435.546 286.877 435.545 288.942 434.345L391.958 374.876C394.027 373.689 395.706 370.78 395.705 368.386L395.716 363.426C395.711 361.234 394.303 358.606 392.464 357.272Z" fill="#455A64"/>
<path d="M391.965 356.939L195.093 243.275C193.026 242.082 189.669 242.082 187.6 243.27L84.587 302.752C82.518 303.939 82.52 305.88 84.587 307.073L281.46 420.737C283.527 421.93 286.884 421.929 288.953 420.742L391.966 361.26C394.034 360.073 394.032 358.132 391.965 356.939ZM365.257 347.745C367.026 348.766 367.032 350.426 365.25 351.449L271.591 405.535C269.814 406.551 266.94 406.558 265.162 405.532L111.882 317.036C110.104 316.01 110.112 314.347 111.88 313.326L205.548 259.245C207.321 258.216 209.166 257.625 210.935 258.647L365.257 347.745Z" fill="#37474F"/>
<path d="M84.147 303.042C82.286 304.36 80.841 307.019 80.84 309.241L80.834 314.193C80.836 316.587 82.505 319.49 84.58 320.688L281.443 434.347C282.481 434.946 283.84 435.243 285.2 435.246L285.207 421.63C283.848 421.628 282.488 421.33 281.459 420.736L84.588 307.073C82.682 305.973 82.527 304.238 84.147 303.042Z" fill="#263238"/>
<path d="M145.974 278.851C147.361 278.05 147.361 276.752 145.974 275.951C144.587 275.15 142.338 275.15 140.951 275.951C139.564 276.752 139.564 278.05 140.951 278.851C142.338 279.652 144.587 279.652 145.974 278.851Z" fill="black"/>
<path d="M336.64 387.624C339.906 385.738 339.906 382.681 336.64 380.795C333.373 378.909 328.078 378.909 324.811 380.795C321.545 382.681 321.544 385.738 324.811 387.624C328.077 389.51 333.373 389.51 336.64 387.624Z" stroke="#E6E6E6" stroke-miterlimit="10"/>
<path d="M143.495 288.473L162.886 277.278C164.043 276.61 164.101 275.561 163.016 274.934C161.931 274.307 160.113 274.341 158.956 275.009L139.565 286.205C138.408 286.873 138.35 287.922 139.435 288.549C140.52 289.174 142.338 289.141 143.495 288.473Z" fill="black"/>
<path d="M210.936 258.648C209.167 257.627 207.322 258.217 205.549 259.246L111.881 313.327C110.112 314.347 110.105 316.01 111.883 317.037L265.163 405.533C266.941 406.559 269.815 406.551 271.592 405.536L365.251 351.45C367.033 350.426 367.027 348.767 365.258 347.746L210.936 258.648Z" fill="#27DEBF"/>
<path opacity="0.85" d="M210.936 258.648C209.167 257.627 207.322 258.217 205.549 259.246L111.881 313.327C110.112 314.347 110.105 316.01 111.883 317.037L265.163 405.533C266.941 406.559 269.815 406.551 271.592 405.536L365.251 351.45C367.033 350.426 367.027 348.767 365.258 347.746L210.936 258.648Z" fill="white"/>
<path d="M122.672 318.187L121.674 317.611C121.458 317.487 121.458 317.285 121.673 317.16L121.781 317.098C121.996 316.973 122.345 316.973 122.561 317.098L123.559 317.674C123.775 317.799 123.775 318.001 123.56 318.125L123.452 318.187C123.237 318.311 122.887 318.311 122.672 318.187Z" fill="#455A64"/>
<path d="M124.448 317.16L122.724 316.164C122.508 316.039 122.508 315.838 122.724 315.713L122.833 315.65C123.049 315.526 123.398 315.526 123.614 315.65L125.339 316.646C125.555 316.77 125.555 316.972 125.339 317.097L125.23 317.16C125.013 317.284 124.664 317.284 124.448 317.16Z" fill="#455A64"/>
<path d="M126.23 316.132L123.78 314.718C123.564 314.593 123.564 314.392 123.78 314.267L123.888 314.205C124.103 314.08 124.453 314.08 124.668 314.205L127.118 315.62C127.334 315.745 127.334 315.946 127.118 316.071L127.01 316.133C126.795 316.257 126.445 316.257 126.23 316.132Z" fill="#455A64"/>
<path d="M128.006 315.105L123.776 312.663C123.56 312.539 123.561 312.337 123.777 312.212L123.886 312.149C124.102 312.025 124.452 312.025 124.667 312.149L128.893 314.591C129.108 314.716 129.109 314.918 128.893 315.042L128.785 315.104C128.572 315.23 128.222 315.23 128.006 315.105Z" fill="#455A64"/>
<path d="M133.112 312.492C133.048 312.496 132.982 312.479 132.916 312.441L132.295 312.083L130.302 313.235C130.192 313.298 130.094 313.304 130.006 313.253L129.783 313.124C129.733 313.095 129.699 313.068 129.684 313.046C129.67 313.023 129.66 312.99 129.653 312.948L129.549 310.44C129.548 310.394 129.554 310.36 129.569 310.335C129.583 310.309 129.621 310.279 129.685 310.242L129.963 310.082C130.046 310.033 130.122 310.008 130.194 310.005C130.263 310.002 130.334 310.021 130.403 310.061L132.572 311.313L133.012 311.059C133.097 311.01 133.17 310.985 133.233 310.983C133.299 310.982 133.365 311.001 133.434 311.041L133.582 311.126C133.648 311.164 133.677 311.2 133.673 311.237C133.669 311.273 133.626 311.315 133.541 311.364L133.101 311.618L133.722 311.976C133.788 312.014 133.818 312.052 133.81 312.089C133.802 312.126 133.756 312.171 133.669 312.221L133.333 312.414C133.25 312.462 133.177 312.488 133.112 312.492ZM131.898 311.701L130.351 310.808L130.451 312.537L131.898 311.701Z" fill="#455A64"/>
<path d="M135.105 310.907C134.38 310.94 133.707 310.776 133.086 310.418C132.468 310.061 132.188 309.673 132.244 309.253C132.3 308.833 132.683 308.418 133.391 308.009C133.676 307.844 133.968 307.704 134.267 307.591C134.565 307.477 134.842 307.4 135.101 307.361C135.16 307.351 135.202 307.354 135.228 307.369C135.246 307.379 135.26 307.396 135.268 307.42L135.358 307.683C135.365 307.716 135.358 307.741 135.332 307.755C135.318 307.762 135.282 307.773 135.223 307.787C134.8 307.872 134.39 308.028 133.997 308.256C133.519 308.532 133.259 308.816 133.22 309.109C133.183 309.402 133.401 309.685 133.877 309.96C134.357 310.237 134.845 310.366 135.342 310.347C135.838 310.329 136.316 310.187 136.778 309.92C136.947 309.823 137.098 309.722 137.233 309.616C137.368 309.51 137.465 309.416 137.523 309.332L136.515 308.75L135.684 309.229C135.6 309.278 135.526 309.303 135.462 309.304C135.397 309.306 135.331 309.287 135.261 309.247L135.119 309.165C135.05 309.125 135.019 309.088 135.026 309.053C135.032 309.018 135.076 308.976 135.161 308.927L136.488 308.161C136.58 308.108 136.666 308.081 136.744 308.08C136.822 308.078 136.901 308.101 136.981 308.148L138.419 308.978C138.473 309.009 138.508 309.037 138.522 309.06C138.538 309.083 138.534 309.113 138.515 309.149C138.34 309.493 137.92 309.857 137.257 310.24C136.546 310.654 135.828 310.876 135.105 310.907Z" fill="#455A64"/>
<path d="M162.779 291.477L165.134 292.836C165.31 292.938 165.596 292.938 165.773 292.836L168.136 291.475C168.313 291.373 168.313 291.208 168.137 291.106L165.779 289.744C165.603 289.642 165.317 289.642 165.14 289.744L162.78 291.107C162.603 291.21 162.603 291.375 162.779 291.477Z" fill="#455A64"/>
<path d="M164.408 289.633C164.153 289.486 163.795 289.405 163.397 289.405C162.998 289.406 162.641 289.486 162.385 289.633C161.932 289.896 161.931 290.307 162.385 290.571L163.195 291.039L163.792 290.924L162.982 290.456C162.652 290.264 162.652 289.94 162.982 289.749C163.107 289.677 163.262 289.636 163.395 289.636C163.534 289.636 163.685 289.677 163.809 289.749L164.62 290.216L165.217 290.101L164.408 289.633Z" fill="#455A64"/>
<path d="M207.316 264.823C206.868 264.823 206.466 264.914 206.18 265.079L200.205 268.527C199.689 268.824 199.689 269.29 200.203 269.587L202.379 270.843C202.666 271.009 203.07 271.1 203.516 271.1C203.707 271.1 203.893 271.083 204.068 271.049C204.294 271.005 204.491 270.936 204.652 270.843L210.627 267.395C211.142 267.097 211.143 266.632 210.628 266.335L208.453 265.079C208.167 264.914 207.763 264.823 207.316 264.823ZM203.516 270.848C203.354 270.848 203.178 270.8 203.034 270.717L200.858 269.461C200.479 269.242 200.479 268.872 200.859 268.654L206.834 265.206C206.927 265.153 207.034 265.113 207.141 265.093C207.2 265.082 207.258 265.076 207.317 265.076C207.48 265.076 207.655 265.124 207.798 265.206L209.974 266.462C210.354 266.681 210.354 267.051 209.974 267.27L203.999 270.718C203.854 270.801 203.681 270.848 203.516 270.848Z" fill="#455A64"/>
<path d="M203.693 270.425C203.691 270.417 203.652 270.402 203.608 270.377L201.65 269.247C201.379 269.091 201.38 268.806 201.651 268.649L207.028 265.546C207.074 265.52 207.113 265.505 207.137 265.498C207.141 265.506 207.18 265.521 207.224 265.546L209.182 266.677C209.453 266.833 209.452 267.118 209.181 267.275L203.804 270.378C203.757 270.404 203.718 270.418 203.693 270.425Z" fill="#455A64"/>
<path d="M208.764 264.917C208.983 264.789 209.522 264.894 209.968 265.152L210.372 265.385C210.819 265.643 211.009 265.961 210.797 266.096L210.413 266.34L208.368 265.148C208.368 265.148 208.545 265.044 208.764 264.917Z" fill="#455A64"/>
<path d="M174.586 323.682C175.959 323.629 177.603 323.207 178.791 322.521C181.231 321.113 181.862 319.191 177.991 316.78C177.915 318.038 176.851 319.393 175.447 320.202C172.126 322.12 168.346 322.612 165.305 320.856C162.401 319.18 163.321 316.509 166.645 314.591C170.423 312.41 175.848 311.813 180.74 314.637C186.387 317.897 185.117 321.351 181.125 323.655C178.81 324.991 176.369 325.555 174.299 325.695L174.586 323.682ZM176 315.737C173.073 314.47 170.577 314.645 168.687 315.736C167.101 316.651 166.776 317.975 168.536 318.992C170.251 319.982 172.268 319.845 174.22 318.72C175.316 318.086 176.147 317.053 176 315.737Z" fill="#455A64"/>
<path d="M182.966 309.447C184.245 308.708 185.974 308.58 187.003 309.174C188.033 309.768 187.812 310.767 186.531 311.505C185.252 312.244 183.492 312.39 182.461 311.795C181.433 311.201 181.686 310.185 182.966 309.447ZM190.785 313.96C192.064 313.221 193.794 313.094 194.823 313.688C195.852 314.282 195.631 315.28 194.353 316.02C193.073 316.759 191.312 316.904 190.283 316.31C189.253 315.716 189.505 314.699 190.785 313.96Z" fill="#455A64"/>
<path d="M192.132 308.509C187.216 305.671 187.215 302.715 191.239 300.393C195.261 298.071 200.402 298.084 205.295 300.909C210.211 303.747 210.35 306.783 206.329 309.105C202.305 311.428 197.048 311.348 192.132 308.509ZM201.944 302.844C197.829 300.468 195.185 300.491 193.296 301.58C191.437 302.654 191.369 304.198 195.484 306.574C199.599 308.95 202.411 308.99 204.27 307.916C206.159 306.827 206.059 305.22 201.944 302.844Z" fill="#455A64"/>
<path d="M207.766 299.483C202.85 296.645 202.85 293.688 206.872 291.366C210.896 289.043 216.038 289.058 220.931 291.883C225.847 294.721 225.985 297.756 221.962 300.078C217.94 302.4 212.682 302.321 207.766 299.483ZM217.58 293.818C213.465 291.442 210.82 291.464 208.932 292.555C207.073 293.627 207.004 295.172 211.119 297.548C215.234 299.924 218.047 299.963 219.906 298.891C221.794 297.799 221.695 296.193 217.58 293.818Z" fill="#455A64"/>
<path d="M182.56 345.628L261.241 300.206C262.903 299.246 265.598 299.246 267.26 300.206L287.369 311.816C289.031 312.776 289.031 314.331 287.369 315.291L208.701 360.714C207.039 361.674 204.344 361.674 202.681 360.714L182.561 349.102C180.898 348.143 180.898 346.587 182.56 345.628Z" fill="#27DEBF"/>
<path d="M190.983 347.166L205.057 355.292C205.774 355.706 206.938 355.706 207.655 355.292L228.399 343.316C229.116 342.902 229.116 342.23 228.399 341.816L214.325 333.69C213.608 333.276 212.444 333.276 211.727 333.69L190.984 345.666C190.265 346.08 190.265 346.752 190.983 347.166Z" fill="#FAFAFA"/>
<path d="M212.235 343.262L228.931 342.6L212.303 342.352L212.971 333.379L210.244 344.449L190.446 346.406L206.611 345.646L206.211 355.595L207.454 345.607L212.077 345.389L212.235 343.262Z" fill="#27DEBF"/>
<path d="M221.011 329.42L241.341 317.73C242.265 317.196 243.731 317.177 244.614 317.687C245.498 318.197 245.465 319.043 244.54 319.577L224.21 331.267C223.286 331.801 221.82 331.82 220.936 331.31C220.054 330.8 220.087 329.954 221.011 329.42Z" fill="#FAFAFA"/>
<path d="M227.266 333.031L268.471 309.223C269.395 308.689 270.861 308.67 271.745 309.181C272.629 309.691 272.596 310.537 271.671 311.071L230.466 334.879C229.542 335.413 228.076 335.432 227.193 334.922C226.309 334.411 226.342 333.565 227.266 333.031Z" fill="#FAFAFA"/>
<path d="M233.521 336.643L274.726 312.835C275.65 312.301 277.116 312.282 277.999 312.792C278.883 313.302 278.85 314.148 277.925 314.682L236.72 338.489C235.796 339.023 234.33 339.042 233.447 338.532C232.564 338.022 232.597 337.176 233.521 336.643Z" fill="#FAFAFA"/>
<path d="M173.547 181.539L306.928 104.531L312.265 107.612C313.645 108.409 314.774 110.364 314.774 111.958V210.351C314.774 211.944 313.645 213.9 312.265 214.697L183.902 288.807C182.522 289.604 180.264 289.604 178.884 288.807L176.056 287.174C174.676 286.377 173.547 284.422 173.547 282.828V181.539Z" fill="#27DEBF"/>
<path opacity="0.05" d="M173.547 181.539L306.928 104.531L312.265 107.612C313.645 108.409 314.774 110.364 314.774 111.958V210.351C314.774 211.944 313.645 213.9 312.265 214.697L183.902 288.807C182.522 289.604 180.264 289.604 178.884 288.807L176.056 287.174C174.676 286.377 173.547 284.422 173.547 282.828V181.539Z" fill="black"/>
<path d="M306.192 95.8821L306.738 95.5851L304.665 94.3811V94.3831C304.487 94.2791 304.303 94.1901 304.115 94.1201L245.414 72.3681C243.86 71.7921 241.842 72.4341 240.906 73.8011L175.241 169.695C174.305 171.062 173.546 173.513 173.546 175.17C173.546 177.91 173.546 181.539 173.546 181.539L175.581 182.721L306.927 104.532V98.1621C306.928 97.3861 306.645 96.5821 306.192 95.8821Z" fill="#27DEBF"/>
<path opacity="0.1" d="M243.624 74.2659C243.364 74.4659 243.134 74.7159 242.944 74.9859L177.274 170.876C176.794 171.586 176.354 172.586 176.054 173.616L174.014 172.436C174.164 171.936 174.344 171.446 174.544 170.986C174.554 170.966 174.554 170.956 174.564 170.946C174.654 170.746 174.744 170.556 174.844 170.366C174.864 170.336 174.874 170.306 174.894 170.276C175.004 170.066 175.124 169.866 175.244 169.696L240.904 73.8059C241.004 73.6559 241.114 73.5359 241.234 73.4059C241.344 73.2959 241.464 73.1859 241.584 73.0859L243.624 74.2659Z" fill="black"/>
<path opacity="0.35" d="M306.715 95.5761C306.535 95.4661 306.345 95.3761 306.155 95.3061L247.445 73.5461C246.205 73.0861 244.665 73.4061 243.625 74.2661L241.585 73.0861C242.635 72.2361 244.165 71.9061 245.415 72.3661L304.115 94.1161C304.305 94.1861 304.485 94.2761 304.665 94.3861L306.715 95.5761Z" fill="white"/>
<path d="M174.891 170.272C175.004 170.064 175.121 169.87 175.241 169.695C175.121 169.87 175.004 170.065 174.891 170.272Z" fill="#27DEBF"/>
<path d="M241.236 73.4049C241.347 73.2919 241.464 73.1859 241.588 73.0859C241.464 73.1859 241.344 73.2899 241.236 73.4049Z" fill="#27DEBF"/>
<path d="M174.011 172.438C174.161 171.936 174.343 171.441 174.545 170.983C174.342 171.442 174.162 171.935 174.011 172.438Z" fill="#27DEBF"/>
<path opacity="0.2" d="M174.545 170.983C174.551 170.969 174.556 170.955 174.562 170.942C174.556 170.955 174.551 170.97 174.545 170.983Z" fill="black"/>
<path opacity="0.2" d="M174.843 170.368C174.859 170.337 174.874 170.302 174.891 170.272C174.874 170.302 174.86 170.337 174.843 170.368Z" fill="black"/>
<path opacity="0.2" d="M240.906 73.801C241.003 73.66 241.118 73.531 241.236 73.406C241.115 73.528 241.003 73.659 240.906 73.801Z" fill="black"/>
<path d="M242.941 74.983L177.276 170.877C176.34 172.244 175.581 174.695 175.581 176.352C175.581 179.092 175.581 182.72 175.581 182.72L308.964 105.707L308.963 99.344C308.963 97.687 307.704 95.877 306.15 95.302L247.449 73.55C245.895 72.974 243.877 73.616 242.941 74.983Z" fill="#27DEBF"/>
<path d="M190.095 275.412L185.821 272.938H185.81L185.767 272.906V272.895C185.135 272.499 184.739 271.706 184.739 270.56V137.251C184.739 136.019 185.21 134.637 185.939 133.438L190.288 135.945C189.549 137.145 189.088 138.526 189.088 139.769V273.078C189.088 274.202 189.474 275.016 190.095 275.412Z" fill="#E0E0E0"/>
<path d="M192.773 133.404L299.907 71.556C301.936 70.384 303.582 71.334 303.582 73.677V206.982C303.582 209.325 301.937 212.175 299.907 213.347L192.775 275.195C190.746 276.367 189.1 275.417 189.1 273.074L189.099 139.769C189.099 137.426 190.744 134.576 192.773 133.404Z" fill="#F0F0F0"/>
<path d="M298.162 68.7949L302.361 71.2269C301.708 70.9269 300.851 71.0019 299.904 71.5779L192.766 133.41C191.806 133.937 190.942 134.874 190.289 135.945L185.94 133.438C186.583 132.367 187.461 131.446 188.414 130.889L295.549 69.0419C296.577 68.4529 297.499 68.3989 298.162 68.8059V68.7949Z" fill="#FAFAFA"/>
<path d="M201.126 140.382L290.223 88.9409C291.419 88.2509 292.388 88.7409 292.388 90.0359C292.388 91.3309 291.418 92.9409 290.222 93.6309L201.126 145.071C199.93 145.761 198.961 145.271 198.961 143.976C198.961 142.682 199.93 141.072 201.126 140.382Z" fill="#E0E0E0"/>
<path d="M201.126 149.731L290.223 98.291C291.419 97.601 292.388 98.091 292.388 99.386C292.388 100.681 291.418 102.291 290.222 102.981L201.126 154.421C199.93 155.111 198.961 154.621 198.961 153.326C198.961 152.031 199.93 150.421 201.126 149.731Z" fill="#E0E0E0"/>
<path d="M201.126 159.08L290.223 107.64C291.419 106.95 292.388 107.44 292.388 108.735C292.388 110.03 291.418 111.64 290.222 112.33L201.126 163.77C199.93 164.46 198.961 163.97 198.961 162.675C198.961 161.38 199.93 159.77 201.126 159.08Z" fill="#E0E0E0"/>
<path d="M201.126 168.429L290.223 116.989C291.419 116.299 292.388 116.789 292.388 118.084C292.388 119.379 291.418 120.989 290.222 121.679L201.126 173.119C199.93 173.809 198.961 173.319 198.961 172.024C198.961 170.729 199.93 169.12 201.126 168.429Z" fill="#E0E0E0"/>
<path d="M201.126 177.778L290.223 126.338C291.419 125.648 292.388 126.138 292.388 127.433C292.388 128.728 291.418 130.338 290.222 131.028L201.126 182.468C199.93 183.158 198.961 182.668 198.961 181.373C198.961 180.078 199.93 178.469 201.126 177.778Z" fill="#E0E0E0"/>
<path d="M201.126 187.128L290.223 135.687C291.419 134.997 292.388 135.487 292.388 136.782C292.388 138.077 291.418 139.687 290.222 140.377L201.126 191.817C199.93 192.507 198.961 192.017 198.961 190.722C198.961 189.427 199.93 187.818 201.126 187.128Z" fill="#E0E0E0"/>
<path d="M201.126 196.477L290.223 145.036C291.419 144.346 292.388 144.836 292.388 146.131C292.388 147.426 291.418 149.036 290.222 149.726L201.126 201.166C199.93 201.856 198.961 201.366 198.961 200.071C198.961 198.776 199.93 197.167 201.126 196.477Z" fill="#E0E0E0"/>
<path d="M201.126 205.826L290.223 154.385C291.419 153.695 292.388 154.185 292.388 155.48C292.388 156.775 291.418 158.385 290.222 159.075L201.126 210.515C199.93 211.205 198.961 210.715 198.961 209.42C198.961 208.126 199.93 206.516 201.126 205.826Z" fill="#E0E0E0"/>
<path d="M311.39 211.663C311.35 211.733 311.311 211.793 311.251 211.863L255.668 187.21C251.303 185.271 246.192 186.85 243.656 190.907L184.235 286.252L182.038 287.521L182.018 287.531C181.352 287.901 180.755 287.951 180.318 287.721L241.429 189.658C243.965 185.601 249.085 184.022 253.45 185.95L311.39 211.663Z" fill="#27DEBF"/>
<path opacity="0.4" d="M238.184 199.576L238.324 199.456L184.234 286.256L182.034 287.526L182.014 287.536C181.354 287.906 180.754 287.946 180.314 287.726L236.044 198.296L238.184 199.576Z" fill="white"/>
<path opacity="0.4" d="M311.395 211.666C311.355 211.736 311.315 211.796 311.255 211.866L255.665 187.206C251.305 185.266 246.195 186.846 243.655 190.906L241.455 189.626C243.995 185.586 249.095 184.026 253.455 185.946L311.395 211.666Z" fill="white"/>
<path d="M314.728 111.33H314.718C314.598 110.61 314.218 110.41 313.728 110.75C313.538 110.88 313.318 111.1 313.088 111.41L312.808 111.8L257.958 188.16L249.768 199.57C248.848 200.87 246.828 201.62 245.258 201.26L238.188 199.58L184.218 186.74C183.828 186.65 183.458 186.64 183.118 186.7C182.978 186.73 182.838 186.77 182.708 186.83L184.198 185.97L236.228 198.34L243.298 200.02C244.858 200.39 246.878 199.64 247.808 198.33L255.998 186.93L311.118 110.18C311.298 109.93 311.518 109.75 311.738 109.61L306.968 106.86L308.968 105.71L312.268 107.61C313.468 108.31 314.478 109.88 314.728 111.33Z" fill="#27DEBF"/>
<path opacity="0.4" d="M257.954 188.156L249.764 199.566C248.844 200.866 246.824 201.616 245.254 201.256L238.184 199.576L238.324 199.456L238.664 198.916L243.294 200.016C244.854 200.386 246.874 199.636 247.804 198.326L255.914 187.046L257.954 188.156Z" fill="white"/>
<path opacity="0.1" d="M312.264 107.606L308.964 105.706L306.964 106.856L311.734 109.606C311.738 109.609 311.742 109.612 311.746 109.615L311.738 109.61C311.498 109.761 311.287 109.946 311.118 110.18L255.994 186.926L255.914 187.036V187.046L257.954 188.156L312.804 111.796L313.084 111.406C313.314 111.096 313.534 110.876 313.724 110.746C314.214 110.406 314.594 110.606 314.714 111.326H314.724C314.474 109.876 313.465 108.306 312.264 107.606Z" fill="black"/>
<path d="M185.314 188.336L173.547 181.539V282.829C173.547 284.423 174.676 286.378 176.056 287.175L178.884 288.808C180.264 289.605 182.523 289.605 183.902 288.808L185.314 287.993V188.336Z" fill="#27DEBF"/>
<path opacity="0.15" d="M185.314 188.336L173.547 181.539V282.829C173.547 284.423 174.676 286.378 176.056 287.175L178.884 288.808C180.264 289.605 182.523 289.605 183.902 288.808L185.314 287.993V188.336Z" fill="black"/>
<path d="M312.808 111.8V209.12C312.808 209.94 312.518 210.86 312.028 211.66C311.638 212.32 311.128 212.91 310.558 213.3L310.468 213.36C310.408 213.4 310.358 213.44 310.298 213.47L181.938 287.57L181.918 287.58C181.748 287.68 181.588 287.76 181.428 287.81C181.408 287.67 181.398 287.52 181.398 287.36V188.96C181.398 187.37 182.648 186.37 184.218 186.74L238.188 199.58L245.258 201.26C246.828 201.62 248.848 200.87 249.768 199.57L257.958 188.16L312.808 111.8Z" fill="#455A64"/>
<path d="M314.778 111.96V210.35C314.778 211.18 314.478 212.09 313.998 212.89C313.598 213.55 313.098 214.14 312.528 214.54L312.428 214.59C312.368 214.63 312.328 214.67 312.268 214.7L183.908 288.8L183.888 288.81C183.218 289.19 182.618 289.24 182.178 289.01C181.788 288.81 181.518 288.4 181.428 287.81C181.408 287.67 181.398 287.52 181.398 287.36V188.96C181.398 187.37 182.648 186.37 184.218 186.74L238.188 199.58L245.258 201.26C246.828 201.62 248.848 200.87 249.768 199.57L257.958 188.16L312.808 111.8L313.088 111.41C314.018 110.12 314.778 110.36 314.778 111.96Z" fill="#27DEBF"/>
<path d="M312.267 214.701C312.325 214.672 312.373 214.633 312.432 214.595L312.528 214.537C313.098 214.141 313.6 213.552 313.996 212.895C314.471 212.107 314.765 211.207 314.775 210.397L257.963 188.162L296.008 224.088L312.267 214.701Z" fill="#27DEBF"/>
<path opacity="0.2" d="M312.267 214.701C312.325 214.672 312.373 214.633 312.432 214.595L312.528 214.537C313.098 214.141 313.6 213.552 313.996 212.895C314.471 212.107 314.765 211.207 314.775 210.397L257.963 188.162L296.008 224.088L312.267 214.701Z" fill="black"/>
<path d="M181.396 287.356C181.396 288.187 181.695 288.756 182.178 289.008C182.622 289.24 183.221 289.192 183.888 288.815L183.907 288.805L228.1 263.292L238.192 199.578L181.395 285.722L181.396 287.356Z" fill="#27DEBF"/>
<path opacity="0.15" d="M243.635 190.896L182.175 289.006C181.695 288.756 181.395 288.186 181.395 287.356V285.726L235.625 198.966L236.045 198.296L241.435 189.656C241.435 189.646 241.445 189.636 241.455 189.626L243.635 190.896Z" fill="black"/>
<path d="M313.995 212.895C313.599 213.552 313.097 214.141 312.527 214.537L312.431 214.595L183.906 288.805L183.887 288.815C183.221 289.192 182.622 289.24 182.177 289.008L243.643 190.881C246.191 186.814 251.338 185.235 255.728 187.173L313.995 212.895Z" fill="#27DEBF"/>
<path d="M313.995 212.896C313.605 213.556 313.095 214.146 312.525 214.536L312.435 214.596L183.905 288.806L183.885 288.816C183.225 289.186 182.625 289.236 182.175 289.006L183.885 286.286L310.195 213.346L310.295 213.286C310.805 212.926 311.265 212.416 311.625 211.846L313.995 212.896Z" fill="#27DEBF"/>
<path opacity="0.15" d="M174.014 172.436L176.054 173.616C175.764 174.576 175.584 175.556 175.584 176.356C175.584 179.096 175.584 182.716 175.584 182.716L173.544 181.536C173.544 181.536 173.544 177.906 173.544 175.166C173.544 174.376 173.725 173.396 174.014 172.436Z" fill="black"/>
<path d="M186.081 186.417L184.198 185.97L182.708 186.83L180.648 185.64L175.578 182.72L177.548 181.55L186.081 186.417Z" fill="#27DEBF"/>
<path opacity="0.1" d="M186.085 186.416L186.073 186.413L177.549 181.55L175.579 182.72L180.649 185.64L182.709 186.83L182.73 186.818C182.853 186.764 182.984 186.724 183.115 186.696C183.455 186.636 183.825 186.646 184.215 186.736L188.365 187.726L235.625 198.966L236.045 198.296L186.085 186.416Z" fill="black"/>
<path d="M338.497 190.344L329.005 184.844C329.002 184.842 328.997 184.84 328.994 184.838L328.909 184.789L328.901 184.803C324.758 182.464 319.072 182.817 312.785 186.446C300.122 193.758 289.855 211.539 289.855 226.162C289.855 233.461 292.416 238.591 296.55 240.992V240.995L296.569 241.006L296.572 241.008L305.224 245.972L307.253 242.579C309.348 242.098 311.528 241.35 313.83 240.021C326.492 232.71 336.76 214.928 336.762 200.305C336.762 198.133 336.47 196.221 336.042 194.448L338.497 190.344Z" fill="#F28F8F"/>
<path opacity="0.15" d="M290.721 218.459C290.161 221.074 289.855 223.665 289.855 226.163C289.855 233.462 292.416 238.592 296.55 240.993V240.996L296.569 241.007L296.572 241.009L305.223 245.973L307.252 242.58C309.347 242.099 311.527 241.351 313.829 240.022C315.997 238.77 318.091 237.206 320.079 235.409L290.721 218.459Z" fill="black"/>
<path d="M321.812 191.649C309.148 198.96 298.881 216.742 298.88 231.365C298.88 245.988 309.146 251.915 321.81 244.603C334.474 237.292 344.741 219.51 344.741 204.887C344.742 190.264 334.476 184.337 321.812 191.649Z" fill="#FFA8A7"/>
<path d="M330.87 212.009V206.391C330.87 199.981 326.973 197.035 322.165 199.81C317.357 202.586 313.46 210.032 313.46 216.442V221.463C313.46 224.621 312.363 228.21 310.53 231.269C310.526 231.276 310.521 231.283 310.518 231.29C310.08 232.077 309.806 233.004 309.806 233.858C309.806 235.473 310.788 236.215 311.999 235.516L332.331 223.777C333.542 223.078 334.524 221.202 334.524 219.587C334.524 218.78 334.279 218.19 333.882 217.89C333.872 217.883 333.861 217.876 333.848 217.87C332.052 217.061 330.87 215.034 330.87 212.009Z" fill="white"/>
<path d="M326.345 228.97C326.345 232.047 324.474 235.622 322.166 236.955C319.858 238.288 317.987 236.873 317.987 233.796L326.345 228.97Z" fill="white"/>
</svg>
