<svg width="134" height="134" viewBox="0 0 134 134" fill="none" xmlns="http://www.w3.org/2000/svg">
<path d="M67 134C104.003 134 134 104.003 134 67C134 29.9969 104.003 0 67 0C29.9969 0 0 29.9969 0 67C0 104.003 29.9969 134 67 134Z" fill="#D8182E"/>
<path d="M99.7706 46.512C91.1398 53.0494 82.8019 59.9724 74.791 67.2538C82.2686 74.9944 90.0874 82.4036 98.2219 89.4502C99.6882 90.7215 100.078 92.8377 99.1562 94.5456C98.2105 96.299 97.1681 98 96.0361 99.6382C94.6879 101.589 91.9716 101.996 90.1001 100.54C80.9274 93.3994 72.1272 85.7796 63.7439 77.7261C57.0856 84.3063 50.6803 91.1439 44.5495 98.2218C43.2782 99.6879 41.162 100.078 39.4539 99.1561C37.7005 98.2104 35.9996 97.168 34.3613 96.036C32.4101 94.6878 32.0035 91.9715 33.4597 90.1C39.6659 82.1304 46.2319 74.441 53.1306 67.0616C46.9045 60.5226 40.9429 53.7335 35.2644 46.7138C34.2377 45.4439 34.0584 43.6903 34.7965 42.234C36.2443 39.3784 37.9807 36.6664 39.9688 34.155C41.6497 32.0318 44.878 32.0701 46.5119 34.2289C52.1222 41.6368 58.0183 48.8285 64.1819 55.7841C71.5627 48.5953 79.2748 41.745 87.2856 35.2643C88.5555 34.2376 90.3091 34.0583 91.7653 34.7964C94.621 36.2442 97.333 37.9805 99.8444 39.9687C101.968 41.6499 101.929 44.8781 99.7706 46.512Z" fill="white"/>
</svg>
