<svg width="654" height="413" viewBox="0 0 654 413" fill="none" xmlns="http://www.w3.org/2000/svg">
<path d="M28.2759 362.576C24.5609 375.987 27.3079 392.755 39.6629 397.884C51.5059 390.433 50.8459 370.526 39.6279 355.001L28.2759 362.576Z" fill="#4A3687"/>
<path d="M31.77 374.748C34.363 373.029 37.087 372.642 39.9 373.167" stroke="white" stroke-width="2.05" stroke-miterlimit="1.5" stroke-linecap="round" stroke-linejoin="round"/>
<path d="M32.3259 378.464C34.9199 376.745 37.6439 376.358 40.4569 376.883" stroke="white" stroke-width="2.05" stroke-miterlimit="1.5" stroke-linecap="round" stroke-linejoin="round"/>
<path d="M32.9421 382.187C35.5351 380.468 38.2591 380.08 41.0721 380.606" stroke="white" stroke-width="2.05" stroke-miterlimit="1.5" stroke-linecap="round" stroke-linejoin="round"/>
<path d="M87.163 275.106C95.491 286.256 99.015 302.877 89.363 312.139C75.623 309.493 69.016 290.703 73.836 272.166L87.163 275.106Z" fill="#4A3687"/>
<path d="M89.042 286.856C86.102 287.416 83.384 287.656 80.833 287.966" stroke="white" stroke-width="2.05" stroke-miterlimit="1.5" stroke-linecap="round" stroke-linejoin="round"/>
<path d="M89.7061 290.554C87.0871 290.815 84.3111 291.124 81.4971 291.664" stroke="white" stroke-width="2.05" stroke-miterlimit="1.5" stroke-linecap="round" stroke-linejoin="round"/>
<path d="M90.3169 294.277C87.8509 295.036 84.9879 295.087 82.1079 295.387" stroke="white" stroke-width="2.05" stroke-miterlimit="1.5" stroke-linecap="round" stroke-linejoin="round"/>
<path d="M83.6279 220.945L87.7259 223.427C87.7259 223.427 86.4219 227.162 81.9869 228.996L79.6279 223.535L83.6279 220.945Z" fill="#332861"/>
<path d="M77.26 219.685C77.26 219.685 103.183 257.203 116.702 276.771C121.235 283.331 120.03 292.262 113.922 297.387C108 302.357 99.313 302.174 93.604 296.961C78.854 283.491 52.948 259.832 52.948 259.832C52.948 259.832 37.739 291.456 31.574 304.274C29.927 307.697 29.552 311.593 30.514 315.267C33.844 327.993 41.605 357.64 41.605 357.64C40.615 369.78 35.34 372.933 26.759 369.149C26.759 369.149 10.371 333.574 2.86697 317.284C0.477973 312.099 -0.223027 306.296 0.860973 300.692C5.23897 278.074 16.718 218.752 16.718 218.752L77.26 219.685Z" fill="#94B1BB"/>
<mask id="mask0_94_3073" style="mask-type:luminance" maskUnits="userSpaceOnUse" x="0" y="218" width="120" height="153">
<path d="M77.26 219.685C77.26 219.685 103.183 257.203 116.702 276.771C121.235 283.331 120.03 292.262 113.922 297.387C108 302.357 99.313 302.174 93.604 296.961C78.854 283.491 52.948 259.832 52.948 259.832C52.948 259.832 37.739 291.456 31.574 304.274C29.927 307.697 29.552 311.593 30.514 315.267C33.844 327.993 41.605 357.64 41.605 357.64C40.615 369.78 35.34 372.933 26.759 369.149C26.759 369.149 10.371 333.574 2.86697 317.284C0.477973 312.099 -0.223027 306.296 0.860973 300.692C5.23897 278.074 16.718 218.752 16.718 218.752L77.26 219.685Z" fill="white"/>
</mask>
<g mask="url(#mask0_94_3073)">
<path d="M94.6489 238.509C94.6489 238.509 86.7369 229.793 57.5769 237.778C29.4189 245.488 11.8629 221.807 11.8629 221.807L8.71387 204.691L98.3729 206.397L94.6489 238.509Z" fill="#7998A1"/>
<path d="M33.0199 305.605C34.7059 310.001 47.0819 369.958 7.76992 349.15C-24.9951 331.807 8.18992 374.673 8.18992 374.673L50.3349 377.974L58.6499 335.92L33.0199 305.605Z" fill="#7998A1"/>
</g>
<path d="M104.079 167.06L114.664 163.593C116.407 174.838 113.474 186.018 104.527 196.727L98.8708 179.36L104.079 167.06Z" fill="#332861"/>
<path d="M98.3889 163.754C98.3889 163.754 109.143 169.144 114.787 171.974C115.671 172.417 116.698 172.484 117.632 172.158C118.566 171.833 119.328 171.143 119.747 170.246C122.884 163.507 129.567 149.15 129.567 149.15L140.269 153.584C140.269 153.584 131.896 179.913 127.683 193.161C127.059 195.122 125.675 196.751 123.842 197.682C122.008 198.614 119.878 198.772 117.927 198.12C109.79 195.4 97.8479 191.409 97.8479 191.409L98.3889 163.754Z" fill="#FB8E72"/>
<mask id="mask1_94_3073" style="mask-type:luminance" maskUnits="userSpaceOnUse" x="97" y="149" width="44" height="50">
<path d="M98.3889 163.754C98.3889 163.754 109.143 169.144 114.787 171.974C115.671 172.417 116.698 172.484 117.632 172.158C118.566 171.833 119.328 171.143 119.747 170.246C122.884 163.507 129.567 149.15 129.567 149.15L140.269 153.584C140.269 153.584 131.896 179.913 127.683 193.161C127.059 195.122 125.675 196.751 123.842 197.682C122.008 198.614 119.878 198.772 117.927 198.12C109.79 195.4 97.8479 191.409 97.8479 191.409L98.3889 163.754Z" fill="white"/>
</mask>
<g mask="url(#mask1_94_3073)">
<path d="M114.112 168.803C114.112 168.803 106.269 187.691 112.361 199.4L93.6919 193.051L97.6149 165.01L114.112 168.803Z" fill="#DA5444"/>
</g>
<path d="M130.204 119.175C130.204 119.175 125.303 116.491 123.412 118.387C121.523 120.283 117.269 129.877 119.839 131.412C122.409 132.947 125.32 133.741 125.32 133.741L130.204 119.175Z" fill="#DA5444"/>
<path d="M134.057 158.808L140.259 153.665C141.798 143.828 143.196 134.091 143.739 124.947C143.82 123.474 143.084 122.076 141.823 121.31C137.498 118.69 133.567 117.221 129.927 116.621C124.253 117.975 121.986 129.364 122.499 141.197C122.621 143.918 124.883 146.05 127.607 146.01C128.243 146.008 128.682 146.002 128.682 146.002L129.775 152.91L134.057 158.808Z" fill="#FB8E72"/>
<path d="M137.018 124.33C133.703 122.136 127.59 119.882 125.176 121.926" stroke="#C23A3B" stroke-width="1.27" stroke-miterlimit="1.5" stroke-linecap="round" stroke-linejoin="round"/>
<path d="M135.535 130.447C132.22 128.253 126.107 125.999 123.693 128.043" stroke="#C23A3B" stroke-width="1.27" stroke-miterlimit="1.5" stroke-linecap="round" stroke-linejoin="round"/>
<path d="M134.968 135.757C131.653 133.563 125.541 131.309 123.127 133.353" stroke="#C23A3B" stroke-width="1.27" stroke-miterlimit="1.5" stroke-linecap="round" stroke-linejoin="round"/>
<path d="M127.137 140.841C126.816 142.681 127.427 144.265 128.5 145.279" stroke="#C23A3B" stroke-width="1.27" stroke-miterlimit="1.5" stroke-linecap="round" stroke-linejoin="round"/>
<path d="M38.3239 99.1289C38.3239 99.1289 30.5439 84.7599 26.9109 78.0479C25.7779 75.9549 25.8399 73.4179 27.0729 71.3829C32.5379 62.3669 47.0119 34.6759 47.0119 34.6759L38.4709 28.8589C38.4709 28.8589 16.4369 55.1919 7.10093 66.7539C4.12593 70.4379 3.34493 75.4299 5.05393 79.8459C9.75293 91.9929 18.7999 115.383 18.7999 115.383L38.3239 99.1289Z" fill="#FB8E72"/>
<mask id="mask2_94_3073" style="mask-type:luminance" maskUnits="userSpaceOnUse" x="4" y="28" width="44" height="88">
<path d="M38.3239 99.1289C38.3239 99.1289 30.5439 84.7599 26.9109 78.0479C25.7779 75.9549 25.8399 73.4179 27.0729 71.3829C32.5379 62.3669 47.0119 34.6759 47.0119 34.6759L38.4709 28.8589C38.4709 28.8589 16.4369 55.1919 7.10093 66.7539C4.12593 70.4379 3.34493 75.4299 5.05393 79.8459C9.75293 91.9929 18.7999 115.383 18.7999 115.383L38.3239 99.1289Z" fill="white"/>
</mask>
<g mask="url(#mask2_94_3073)">
<path d="M40.3559 94.1477C40.3559 94.1477 21.6079 88.7017 12.2549 111.362L18.7909 127.666L46.4039 100.149L40.3559 94.1477Z" fill="#DA5444"/>
</g>
<path d="M45.3548 37.0031C45.3548 37.0031 49.4118 35.0261 54.2958 34.3501C56.5758 34.0351 66.3828 32.6791 66.2098 31.0451C66.0208 29.2621 55.9458 29.2131 55.9458 29.2131C55.9458 29.2131 58.0458 23.9341 58.9128 22.3011C60.3328 19.6291 67.2178 10.2241 66.0778 9.10106C64.2468 7.29706 54.1238 18.5171 54.1238 18.5171C54.1238 18.5171 59.0868 0.891056 56.5338 0.133056C54.3208 -0.523944 48.2538 17.2031 48.2538 17.2031C48.2538 17.2031 48.1528 1.59606 45.4838 1.67906C42.8158 1.76306 42.6998 16.9971 42.6998 16.9971C42.6998 16.9971 38.3868 7.17906 36.0848 7.97306C34.6148 8.48106 37.1198 17.5191 37.6278 21.0671C37.9328 23.1961 37.6768 30.6441 37.6768 30.6441L45.3548 37.0031Z" fill="#FB8E72"/>
<path d="M37.547 95.0078C57.902 122.569 58.898 129.762 114.707 163.598C106.89 175.417 103.897 185.458 104.56 196.731L82.07 190.885C76.602 202.471 79.722 213.2 87.766 223.437C68.637 221.949 49.664 254.112 13.359 222.17C16.351 195.232 19.496 172.519 25.27 151.6L12.575 125.178C18.772 107.348 28.816 94.9958 37.547 95.0078Z" fill="#4A3687"/>
<mask id="mask3_94_3073" style="mask-type:luminance" maskUnits="userSpaceOnUse" x="12" y="95" width="103" height="142">
<path d="M37.547 95.0078C57.902 122.569 58.898 129.762 114.707 163.598C106.89 175.417 103.897 185.458 104.56 196.731L82.07 190.885C76.602 202.471 79.722 213.2 87.766 223.437C68.637 221.949 49.664 254.112 13.359 222.17C16.351 195.232 19.496 172.519 25.27 151.6L12.575 125.178C18.772 107.348 28.816 94.9958 37.547 95.0078Z" fill="white"/>
</mask>
<g mask="url(#mask3_94_3073)">
<path d="M85.07 193.264C85.07 193.264 30.27 227.86 8.91296 193.76L9.02197 229.919L65.61 246.277L96.129 225.746L85.07 193.264Z" fill="#332861" fill-opacity="0.36"/>
</g>
<path d="M37.8599 140.814C45.6689 139.356 52.3719 141.36 57.5339 148.184C65.4219 149.847 71.7949 153.456 74.8409 161.344C74.8409 161.344 78.6139 151.196 81.6659 142.987C83.8069 137.23 81.0809 130.804 75.4539 128.341C67.9469 125.055 58.9679 121.125 58.9679 121.125C50.8359 125.688 44.3019 132.9 37.8599 140.814Z" fill="#ADA0C8"/>
<path d="M81.8372 189.343C81.8372 189.343 81.0412 169.836 89.4942 155.137C89.4942 155.137 76.2872 168.647 81.8372 189.343Z" fill="#332861"/>
<path d="M27.0911 150.15C27.0911 150.15 34.0961 132.412 45.8241 124.523C45.8241 124.523 31.0931 128.188 27.0911 150.15Z" fill="#332861"/>
<path d="M81.0469 189.252C81.0469 189.252 74.7389 178.77 76.4359 168.534C76.4359 168.534 70.9639 180.444 81.0469 189.252Z" fill="#332861"/>
<path d="M81.206 129.161L78.032 140.048C70.705 145.634 63.726 148.615 57.098 148.99C53.349 142.553 52.945 135.247 53.814 130.641L60.097 121.165L81.206 129.161Z" fill="#DA5444"/>
<path d="M92.625 119.402C96.486 119.673 99.447 122.355 99.235 125.386C99.022 128.417 95.714 130.658 91.853 130.387C87.992 130.116 85.03 127.434 85.243 124.403C85.455 121.372 88.764 119.131 92.625 119.402Z" fill="#DA5444"/>
<path d="M54.7609 97.6769C56.8089 100.962 56.3799 104.934 53.8009 106.542C51.2229 108.15 47.4659 106.789 45.4179 103.506C43.3699 100.221 43.7989 96.2489 46.3769 94.6409C48.9559 93.0329 52.7109 94.3939 54.7609 97.6769Z" fill="#DA5444"/>
<path d="M83.887 86.5207C95.152 92.7297 98.947 110.068 91.646 123.314C84.345 136.56 66.305 141.579 57.07 136.642C46.688 131.09 43.522 114.059 50.823 100.812C58.125 87.5657 72.621 80.3097 83.887 86.5207Z" fill="#FB8E72"/>
<path d="M88.698 127.8C91.327 118.246 89.841 113.352 94.67 103.159L65.442 86.8869C58.549 94.2619 57.408 91.8409 50.135 101.633C54.157 92.8999 59.404 82.4569 65.607 75.3849C66.848 74.0429 68.733 73.5049 70.498 73.9889C82.758 77.4649 94.124 84.1079 105.022 94.5809C106.364 95.8759 106.727 97.8839 105.923 99.5659C101.707 108.284 95.664 118.952 88.698 127.8Z" fill="#432013"/>
<mask id="mask4_94_3073" style="mask-type:luminance" maskUnits="userSpaceOnUse" x="50" y="73" width="57" height="55">
<path d="M88.698 127.8C91.327 118.246 89.841 113.352 94.67 103.159L65.442 86.8869C58.549 94.2619 57.408 91.8409 50.135 101.633C54.157 92.8999 59.404 82.4569 65.607 75.3849C66.848 74.0429 68.733 73.5049 70.498 73.9889C82.758 77.4649 94.124 84.1079 105.022 94.5809C106.364 95.8759 106.727 97.8839 105.923 99.5659C101.707 108.284 95.664 118.952 88.698 127.8Z" fill="white"/>
</mask>
<g mask="url(#mask4_94_3073)">
<path d="M58.188 77.9451C58.188 77.9451 62.742 74.6501 70.948 77.4631C79.154 80.2761 99.699 92.6171 101.323 98.1101C102.947 103.605 99.184 115.577 99.184 115.577L116.663 95.5951C116.663 95.5951 102.992 76.4211 101.487 76.0351C99.981 75.6491 65.935 64.8701 65.935 64.8701L58.188 77.9451Z" fill="#674225"/>
</g>
<path d="M57.9999 119.066L74.8599 125.541C74.8599 125.541 72.0259 135.554 62.0149 131.466C53.1459 127.844 57.9999 119.066 57.9999 119.066Z" fill="white"/>
<path d="M68.0339 112.58C66.8129 113.777 65.9179 115.263 65.7439 117.387L68.0339 112.58Z" fill="#DA5444"/>
<path d="M68.0339 112.58C66.8129 113.777 65.9179 115.263 65.7439 117.387" stroke="#C23A3B" stroke-width="1.27" stroke-miterlimit="1.5" stroke-linecap="round" stroke-linejoin="round"/>
<path d="M78.916 108.129C82.912 105.977 87.14 107.545 87.563 113.406C90.813 108.277 85.204 100.518 78.916 108.129Z" fill="#432013"/>
<path d="M67.4249 102.849C66.2419 98.467 62.1989 96.473 57.6489 100.191C59.1429 94.307 68.6339 93.051 67.4249 102.849Z" fill="#432013"/>
<path d="M63.1049 109.508C62.2909 109.414 61.7079 108.676 61.8019 107.863C61.8959 107.05 62.6329 106.466 63.4469 106.56C64.2599 106.654 64.8429 107.392 64.7489 108.205C64.6549 109.018 63.9169 109.603 63.1049 109.508Z" fill="#1F3751"/>
<path d="M79.394 116.884C78.58 116.79 77.997 116.053 78.091 115.239C78.185 114.426 78.922 113.843 79.736 113.937C80.549 114.03 81.132 114.768 81.039 115.581C80.945 116.396 80.207 116.979 79.394 116.884Z" fill="#1F3751"/>
<path d="M63.641 412.064C96.9791 412.064 124.005 409.643 124.005 406.656C124.005 403.669 96.9791 401.248 63.641 401.248C30.3029 401.248 3.27698 403.669 3.27698 406.656C3.27698 409.643 30.3029 412.064 63.641 412.064Z" fill="#D8BFBF"/>
<path d="M231.845 65.2783C242.421 92.3463 282.999 42.0743 301.094 96.3273C272.964 75.6353 268.561 111.726 217.823 107.637C195.786 114.472 181.645 85.4203 178.264 73.2323L231.845 65.2783Z" fill="#762539"/>
<path d="M230.015 65.9312C245.772 83.4762 270.126 54.2422 290.081 71.4072C268.878 56.9512 247.307 86.8562 230.313 69.1232L230.015 65.9312Z" fill="#762539"/>
<path d="M218.375 238.329L210.896 228.649L182.585 259.381C192.064 260.699 202.644 257.922 211.877 253.255L218.375 238.329Z" fill="#0C8093"/>
<path d="M273.454 262.473L271.295 272.738L222.379 255.257L227.758 241.177L266.433 245.283L273.454 262.473Z" fill="#382746"/>
<path d="M192.202 320.746L186.232 323.253C179.405 332.394 174.539 346.371 180.858 359.823C181.327 360.809 182.212 361.535 183.271 361.805C184.329 362.073 185.453 361.858 186.337 361.215C198.276 352.495 201.58 339.909 200.93 329.139L192.202 320.746Z" fill="#0C8093"/>
<path d="M187.982 321.294C184.796 327.71 183.459 334.176 185.443 340.732C185.862 342.159 186.949 343.294 188.357 343.775C189.764 344.256 191.319 344.024 192.523 343.151C196.377 340.424 199.277 335.107 201.138 326.969L187.982 321.294Z" fill="#FB8E72"/>
<path d="M220.501 179.751L185.797 324.275C189.662 329.102 194.823 330.496 200.984 329.243L250.013 210.969C250.013 210.969 256.623 244.831 260.133 262.816C261.343 269.012 267.066 273.273 273.349 272.654L273.351 272.653C280.126 271.986 285.139 266.047 284.661 259.256C282.837 233.396 278.75 175.415 278.75 175.415L220.501 179.751Z" fill="#473750"/>
<mask id="mask5_94_3073" style="mask-type:luminance" maskUnits="userSpaceOnUse" x="185" y="175" width="100" height="155">
<path d="M220.501 179.751L185.797 324.275C189.662 329.102 194.823 330.496 200.984 329.243L250.013 210.969C250.013 210.969 256.623 244.831 260.133 262.816C261.343 269.012 267.066 273.273 273.349 272.654C273.349 272.654 273.35 272.654 273.351 272.653C280.126 271.986 285.139 266.047 284.661 259.256C282.837 233.396 278.75 175.415 278.75 175.415L220.501 179.751Z" fill="white"/>
</mask>
<g mask="url(#mask5_94_3073)">
<path d="M288.844 199.278C288.844 199.278 279.226 183.945 257.742 189.425C239.387 194.106 220.451 193.709 212.3 183.885L214.979 180.384L286.716 171.756L288.844 199.278Z" fill="#382746"/>
</g>
<path d="M276.416 173.926C279.405 176.141 282.458 178.157 284.821 182.312C281.516 185.084 278.279 186.502 275.104 186.689L276.416 173.926Z" fill="#A47A70"/>
<path d="M297.693 142.527L298.376 138.878C298.376 138.878 297.594 117.268 300.868 111.944C304.141 106.619 306.965 109.365 307.859 110.722C307.859 110.722 312.26 108.601 313.793 113.065C313.793 113.065 318.543 111.34 319.25 115.855C319.25 115.855 322.733 114.225 324.37 118.119C326.007 122.012 328.524 132.408 326.183 133.111C323.842 133.815 322.183 124.173 322.183 124.173L320.163 126.456C319.791 125.731 318.725 144.166 305.543 148.224L297.693 142.527Z" fill="#FFBA92"/>
<path d="M301.051 126.321C301.051 126.321 305.566 118.636 307.429 118.02C309.293 117.404 317.402 116.122 317.44 118.272C317.479 120.423 310.747 122.058 310.747 122.058C310.747 122.058 313.424 132.053 310.168 136.569" stroke="#C23A3B" stroke-width="1.27" stroke-miterlimit="1.5" stroke-linecap="round" stroke-linejoin="round"/>
<path d="M139.857 59.8231L142.475 55.0791C142.475 55.0791 158.608 25.3621 156.812 23.5971C155.016 21.8321 144.797 37.7581 144.797 37.7581C144.797 37.7581 149.279 17.2051 147.08 16.8351C144.88 16.4651 137.988 34.8871 137.988 34.8871C137.988 34.8871 132.687 29.2821 130.801 34.7991C130.801 34.7991 127.512 32.7731 125.418 36.9051C123.323 41.0381 121.687 51.0891 126.455 49.1981C126.455 49.1981 124.534 56.4871 131.063 60.0621L139.857 59.8231Z" fill="#FFBA92"/>
<path d="M142.794 51.739C142.794 51.739 147.416 40.984 146.684 39.135C145.953 37.285 136.812 34.398 135.561 36.649C134.31 38.9 140.192 41.825 140.192 41.825C140.192 41.825 132.711 43.549 133.34 48.576" stroke="#C23A3B" stroke-width="1.27" stroke-miterlimit="1.5" stroke-linecap="round" stroke-linejoin="round"/>
<path d="M130.637 35.688C130.637 35.688 125.266 47.777 128.477 48.246C130.317 48.515 133.72 41.087 133.72 41.087" stroke="#C23A3B" stroke-width="1.27" stroke-miterlimit="1.5" stroke-linecap="round" stroke-linejoin="round"/>
<path d="M225.254 103.562L206.385 104.843C206.385 104.843 180.281 99.3392 168.425 96.8392C164.799 96.0752 161.719 93.7022 160.055 90.3902C154.554 79.4452 142.349 55.1592 142.349 55.1592C137.234 55.5552 133.401 57.3252 130.628 60.2342C130.628 60.2342 141.914 93.5092 146.622 107.389C147.904 111.168 150.81 114.175 154.544 115.585C169.073 121.07 205.418 134.792 205.418 134.792C219.206 156.411 220.299 166.278 215.66 186.703C244.583 202.265 273.788 169.053 284.871 182.347C282.734 175.96 279.427 169.192 276.055 163.347C287.254 158.707 297.091 153.658 305.564 148.202L298.25 138.654C298.25 138.654 284.722 142.019 279.589 143.295C278.476 143.572 277.329 142.985 276.902 141.92C274.782 136.63 268.587 121.175 264.272 110.41C261.647 103.863 254.944 99.9032 247.943 100.765C237.941 101.999 225.254 103.562 225.254 103.562Z" fill="#FDD6C8"/>
<mask id="mask6_94_3073" style="mask-type:luminance" maskUnits="userSpaceOnUse" x="130" y="55" width="176" height="136">
<path d="M225.254 103.562L206.385 104.843C206.385 104.843 180.281 99.3392 168.425 96.8392C164.799 96.0752 161.719 93.7022 160.055 90.3902C154.554 79.4452 142.349 55.1592 142.349 55.1592C137.234 55.5552 133.401 57.3252 130.628 60.2342C130.628 60.2342 141.914 93.5092 146.622 107.389C147.904 111.168 150.81 114.175 154.544 115.585C169.073 121.07 205.418 134.792 205.418 134.792C219.206 156.411 220.299 166.278 215.66 186.703C244.583 202.265 273.788 169.053 284.871 182.347C282.734 175.96 279.427 169.192 276.055 163.347C287.254 158.707 297.091 153.658 305.564 148.202L298.25 138.654C298.25 138.654 284.722 142.019 279.589 143.295C278.476 143.572 277.329 142.985 276.902 141.92C274.782 136.63 268.587 121.175 264.272 110.41C261.647 103.863 254.944 99.9032 247.943 100.765C237.941 101.999 225.254 103.562 225.254 103.562Z" fill="white"/>
</mask>
<g mask="url(#mask6_94_3073)">
<path d="M214.582 178.995C214.582 178.995 235.166 189.453 253.918 179.405C272.67 169.358 285.784 170.752 290.28 177.515L287.209 168.544C287.209 168.544 275.173 160.924 249.638 175.108C237.068 182.09 218.798 174.926 214.643 172.25" fill="#E2A69C"/>
<path d="M214.35 162.548C214.35 162.548 228.153 166.182 240.188 161.437C252.268 156.675 266.536 153.149 272.42 154.404L270.59 148.569C265.326 148.148 251.896 150.423 240.995 154.831C227.411 160.323 214.221 156.921 214.221 156.921L214.35 162.548Z" fill="#E2A69C"/>
<path d="M266.397 134.506L265.515 128.993C265.515 128.993 243.258 126.046 223.888 134.972C213.768 139.636 204.728 145.348 204.728 145.348L207.103 150.498C207.103 150.498 213.498 147.197 226.03 141.119C240.553 134.077 266.397 134.506 266.397 134.506Z" fill="#E2A69C"/>
<path d="M259.667 118.046L255.054 112.8C255.054 112.8 233.197 108.795 209.268 122.403L208.276 129.588C208.276 129.588 234.981 114.446 259.667 118.046Z" fill="#E2A69C"/>
<path d="M200.536 101.536C203.639 114.913 202.731 125.873 196.018 133.315L189.085 132.407C196.153 123.169 196.695 111.888 194.126 99.6313L200.536 101.536Z" fill="#E2A69C"/>
<path d="M179.371 94.9934C178.456 106.648 174.697 116.657 168.227 125.095L161.643 122.74C166.587 113.749 170.415 103.256 173.509 91.7744L179.371 94.9934Z" fill="#E2A69C"/>
<path d="M166.604 87.9603C157.199 92.7393 149.397 100.038 143.334 110.071L138.462 105.055C145.021 95.5373 153.145 88.0453 162.76 82.4873L166.604 87.9603Z" fill="#E2A69C"/>
<path d="M157.356 69.7974C146.741 71.5134 137.359 76.6554 129.206 85.2244L125.779 79.1294C134.293 70.2984 143.993 64.9364 155.039 63.5244L157.356 69.7974Z" fill="#E2A69C"/>
<path d="M266.918 107.334C266.235 113.866 265.089 119.464 262.736 122.629L265.377 127.458C268.23 125.653 270.106 121.979 270.908 116.252L266.918 107.334Z" fill="#E2A69C"/>
<path d="M277.508 130.42C274.73 135.783 271.731 139.685 268.383 141.292L270.242 146.631C274.122 146.016 277.081 142.204 279.685 137.164L277.508 130.42Z" fill="#E2A69C"/>
<path d="M279.451 141.307C280.765 149.222 280.19 156.995 277.814 164.636L284.615 162.924C286.593 154.308 286.255 146.54 283.883 139.518L279.451 141.307Z" fill="#E2A69C"/>
<path d="M290.282 139.358C292.897 144.884 294.546 151.196 294.165 159.155L299.222 156.779C299.588 149.447 298.346 142.978 294.752 137.77L290.282 139.358Z" fill="#E2A69C"/>
</g>
<path d="M276.006 163.235C271.642 154.459 266.314 138.297 265.308 130.144C264.333 122.256 252.095 109.969 252.095 109.969C252.095 109.969 265.858 121.365 266.343 128.408C266.964 137.426 274.966 160.385 276.006 163.235Z" fill="#8B4E4A"/>
<path d="M262.353 121.601C262.353 121.601 261.726 116.612 259.258 110.809C259.258 110.809 262.516 115.781 263.534 122.924L262.353 121.601Z" fill="#8B4E4A"/>
<path d="M206.068 134.31C206.918 134.642 210.796 118.356 206.398 107.138C206.398 107.138 213.789 123.686 206.068 134.31Z" fill="#8B4E4A"/>
<path d="M225.584 91.606C227.898 95.951 232.266 101.943 236.554 102.24C237.116 105.177 235.669 109.385 233.616 111.096C227.049 108.655 220.077 106.615 212.075 105.597C212.562 104.008 212.047 101.213 210.33 99.636L225.584 91.606Z" fill="#F1966C"/>
<path d="M190.872 85.0443C195.184 85.2453 198.564 88.0003 198.415 91.1933C198.267 94.3863 194.645 96.8163 190.333 96.6153C186.021 96.4143 182.64 93.6593 182.789 90.4663C182.937 87.2723 186.559 84.8433 190.872 85.0443Z" fill="#F1966C"/>
<path d="M227.689 61.3112C230.41 57.9602 234.634 56.8752 237.115 58.8892C239.597 60.9032 239.403 65.2602 236.683 68.6112C233.962 71.9632 229.738 73.0482 227.257 71.0342C224.775 69.0202 224.968 64.6632 227.689 61.3112Z" fill="#F1966C"/>
<path d="M193.758 49.6931C204.572 42.7981 220.247 48.0161 228.742 61.3381C237.236 74.6601 235.354 91.0731 224.54 97.9691C213.726 104.864 198.05 99.6471 189.556 86.3242C181.062 73.0022 182.944 56.5881 193.758 49.6931Z" fill="#FFBA92"/>
<path d="M191.308 88.1429L189.767 73.1479C189.767 73.1479 200.927 62.2409 200.119 54.5339C200.119 54.5339 216.89 53.8729 220.558 56.1329C224.226 58.3929 229.756 63.7689 229.756 63.7689L222.115 49.7289L197.773 48.4199L181.66 65.8599L191.308 88.1429Z" fill="#F1966C"/>
<path d="M192.541 90.228L188.467 72.141C188.467 72.141 197.726 59.885 198.26 51.815C198.26 51.815 217.526 52.012 221.092 54.879C225.281 58.248 228.289 62.751 232.149 69.341C232.149 69.341 229.938 53.326 224.18 44.988C216.577 33.976 196.471 37.054 191.275 44.534C191.275 44.534 179.002 47.202 176.894 61.15C174.568 76.527 185.374 85.568 192.541 90.228Z" fill="#762539"/>
<mask id="mask7_94_3073" style="mask-type:luminance" maskUnits="userSpaceOnUse" x="176" y="37" width="57" height="54">
<path d="M192.541 90.228L188.467 72.141C188.467 72.141 197.726 59.885 198.26 51.815C198.26 51.815 217.526 52.012 221.092 54.879C225.281 58.248 228.289 62.751 232.149 69.341C232.149 69.341 229.938 53.326 224.18 44.988C216.577 33.976 196.471 37.054 191.275 44.534C191.275 44.534 179.002 47.202 176.894 61.15C174.568 76.527 185.374 85.568 192.541 90.228Z" fill="white"/>
</mask>
<g mask="url(#mask7_94_3073)">
<path d="M173.673 68.3098C173.673 68.3098 178.182 47.3018 193.021 47.3028C193.021 47.3028 212.161 32.7858 232.335 54.9898L220.423 34.7158C220.423 34.7158 195.117 37.1908 193.644 37.1538C192.17 37.1168 175.185 50.2448 175.185 50.2448L173.673 68.3098Z" fill="#9C4C65"/>
</g>
<path d="M221.31 80.4326C217.419 83.1796 212.651 84.7096 208.024 85.4436C208.024 85.4436 211.578 95.5086 218.447 93.0626C224.954 90.7446 221.31 80.4326 221.31 80.4326Z" fill="white"/>
<path d="M211.323 74.1528C212.674 75.2018 213.732 76.5758 214.148 78.6658" stroke="#C23A3B" stroke-width="1.27" stroke-miterlimit="1.5" stroke-linecap="round" stroke-linejoin="round"/>
<path d="M201.882 72.6836C197.726 70.8606 193.637 72.7626 193.685 78.6386C190.036 73.7856 195.004 65.6026 201.882 72.6836Z" fill="#762539"/>
<path d="M212.85 64.9928C213.679 60.5308 217.549 58.2178 222.383 61.5598C220.421 55.8148 210.859 55.3238 212.85 64.9928Z" fill="#762539"/>
<path d="M218.36 71.4419C219.164 71.2819 219.687 70.5009 219.527 69.6979C219.368 68.8949 218.587 68.3719 217.784 68.5309C216.981 68.6899 216.458 69.4719 216.617 70.2749C216.775 71.0779 217.557 71.6009 218.36 71.4419Z" fill="#1F3751"/>
<path d="M202.037 82.096C202.84 81.937 203.363 81.156 203.204 80.352C203.044 79.549 202.263 79.026 201.46 79.186C200.657 79.345 200.134 80.126 200.293 80.929C200.452 81.732 201.234 82.255 202.037 82.096Z" fill="#1F3751"/>
<path d="M219.555 412.064C252.893 412.064 279.919 409.643 279.919 406.656C279.919 403.669 252.893 401.248 219.555 401.248C186.217 401.248 159.191 403.669 159.191 406.656C159.191 409.643 186.217 412.064 219.555 412.064Z" fill="#D8BFBF"/>
<path d="M452.124 185.688L461.26 184.863C461.26 184.863 462.354 209.576 451.024 218.228L449.021 190.801L452.124 185.688Z" fill="#CF8F44"/>
<path d="M437.075 178.986L470.881 191.174L477.975 164.092L489.15 165.956C489.15 165.956 486.646 193.005 485.342 207.094C485.146 209.211 484.058 211.143 482.351 212.408C480.643 213.673 478.477 214.15 476.395 213.721C463.104 210.976 438.278 205.85 438.278 205.85L437.075 178.986Z" fill="#B85F58"/>
<mask id="mask8_94_3073" style="mask-type:luminance" maskUnits="userSpaceOnUse" x="437" y="164" width="53" height="50">
<path d="M437.075 178.986L470.881 191.174L477.975 164.092L489.15 165.956C489.15 165.956 486.646 193.005 485.342 207.094C485.146 209.211 484.058 211.143 482.351 212.408C480.643 213.673 478.477 214.15 476.395 213.721C463.104 210.976 438.278 205.85 438.278 205.85L437.075 178.986Z" fill="white"/>
</mask>
<g mask="url(#mask8_94_3073)">
<path d="M463.18 184.737C463.18 184.737 450.572 205.458 464.425 216.405L443.695 212.903L450.076 178.273L463.18 184.737Z" fill="#9E464D"/>
</g>
<path d="M470.153 133.676C470.153 133.676 464.706 132.429 463.403 134.768C462.101 137.107 460.621 147.497 463.512 148.274C466.402 149.051 469.42 149.022 469.42 149.022L470.153 133.676Z" fill="#9E464D"/>
<path d="M484.653 170.763L489.315 166.029C488.115 156.135 486.727 144.753 484.744 135.548C484.423 134.106 483.333 132.959 481.91 132.565C477.037 131.223 472.857 130.881 469.192 131.294C464.102 134.142 465.022 145.718 468.738 156.964C469.596 159.549 472.354 160.984 474.963 160.204C475.575 160.03 475.996 159.904 475.996 159.904C476.162 162.333 476.952 164.521 478.929 166.253L484.653 170.763Z" fill="#B85F58"/>
<path d="M478.114 136.782C474.327 135.572 467.831 135.069 466.065 137.692" stroke="#952737" stroke-width="1.27" stroke-miterlimit="1.5" stroke-linecap="round" stroke-linejoin="round"/>
<path d="M478.351 143.071C474.564 141.863 468.068 141.358 466.302 143.982" stroke="#952737" stroke-width="1.27" stroke-miterlimit="1.5" stroke-linecap="round" stroke-linejoin="round"/>
<path d="M479.253 148.335C475.466 147.127 468.97 146.622 467.204 149.246" stroke="#952737" stroke-width="1.27" stroke-miterlimit="1.5" stroke-linecap="round" stroke-linejoin="round"/>
<path d="M473.102 155.359C473.294 157.216 474.314 158.575 475.622 159.259" stroke="#952737" stroke-width="1.27" stroke-miterlimit="1.5" stroke-linecap="round" stroke-linejoin="round"/>
<path d="M386.901 145.518C386.901 145.518 378.838 133.289 375.484 128.202C374.556 126.794 374.152 125.105 374.344 123.43C375.475 113.541 379.454 78.7493 379.454 78.7493L367.317 76.9663C367.317 76.9663 358.85 111.894 355.666 125.034C354.895 128.212 355.256 131.56 356.684 134.503C359.888 141.103 365.443 152.55 365.443 152.55L386.901 145.518Z" fill="#B85F58"/>
<mask id="mask9_94_3073" style="mask-type:luminance" maskUnits="userSpaceOnUse" x="355" y="76" width="32" height="77">
<path d="M386.901 145.518C386.901 145.518 378.838 133.289 375.484 128.202C374.556 126.794 374.152 125.105 374.344 123.43C375.475 113.541 379.454 78.7493 379.454 78.7493L367.317 76.9663C367.317 76.9663 358.85 111.894 355.666 125.034C354.895 128.212 355.256 131.56 356.684 134.503C359.888 141.103 365.443 152.55 365.443 152.55L386.901 145.518Z" fill="white"/>
</mask>
<g mask="url(#mask9_94_3073)">
<path d="M387.509 137.097C387.509 137.097 368.418 133.63 359.163 152.272L364.031 162.513L389.122 141.896L387.509 137.097Z" fill="#9E464D"/>
</g>
<path d="M396.575 53.7344C396.575 53.7344 402.11 54.5014 402.497 57.1514C402.885 59.7994 400.58 70.0384 397.602 69.7394C394.623 69.4394 391.812 68.3424 391.812 68.3424L396.575 53.7344Z" fill="#9E464D"/>
<path d="M369.854 83.2571L367.176 77.1781C371.81 68.3541 377.149 58.2051 382.27 50.3041C383.082 49.0711 384.509 48.3851 385.98 48.5221C391.011 48.9971 395.04 50.1611 398.32 51.8471C402.068 56.3171 397.099 66.8121 389.632 76.0061C387.912 78.1181 384.825 78.4811 382.661 76.8261C382.151 76.4451 381.802 76.1791 381.802 76.1791C380.839 78.7281 379.302 80.3581 376.806 81.0731L369.854 83.2571Z" fill="#B85F58"/>
<path d="M388.031 53.8101C392 54.0251 398.252 55.8591 398.972 58.9391" stroke="#952737" stroke-width="1.27" stroke-miterlimit="1.5" stroke-linecap="round" stroke-linejoin="round"/>
<path d="M385.575 59.606C389.545 59.821 395.796 61.655 396.516 64.735" stroke="#952737" stroke-width="1.27" stroke-miterlimit="1.5" stroke-linecap="round" stroke-linejoin="round"/>
<path d="M382.864 64.207C386.834 64.422 393.085 66.256 393.805 69.336" stroke="#952737" stroke-width="1.27" stroke-miterlimit="1.5" stroke-linecap="round" stroke-linejoin="round"/>
<path d="M386.121 72.957C385.282 74.626 383.847 75.533 382.38 75.709" stroke="#952737" stroke-width="1.27" stroke-miterlimit="1.5" stroke-linecap="round" stroke-linejoin="round"/>
<path d="M308.02 357.669C308.02 357.669 307.689 363.899 307.473 367.978C307.43 368.767 307.006 369.485 306.335 369.902C305.664 370.318 304.832 370.38 304.107 370.068C294.855 366.088 268.617 354.8 268.617 354.8C274.643 345.452 289.285 343.29 301.549 349.378L308.02 357.669Z" fill="#4A3687"/>
<path d="M292.311 346.536C292.614 348.58 292.352 350.644 291.262 352.738" stroke="white" stroke-width="2.1" stroke-miterlimit="1.5" stroke-linecap="round" stroke-linejoin="round"/>
<path d="M288.174 345.595C288.514 348.289 287.964 350.46 286.778 352.253" stroke="white" stroke-width="2.1" stroke-miterlimit="1.5" stroke-linecap="round" stroke-linejoin="round"/>
<path d="M283.839 345.416C284.567 347.665 284.162 349.709 282.624 351.549" stroke="white" stroke-width="2.1" stroke-miterlimit="1.5" stroke-linecap="round" stroke-linejoin="round"/>
<path d="M337.624 262.761C337.624 262.761 328.829 271.397 322.868 277.251C319.339 280.717 316.661 284.955 315.046 289.631C309.18 306.617 294.833 348.153 294.833 348.153L307.824 358.219C307.824 358.219 333.563 309.191 337.219 302.229C337.503 301.687 337.875 301.195 338.319 300.774C340.738 298.482 348.866 290.777 348.866 290.777L337.624 262.761Z" fill="#B85F58"/>
<mask id="mask10_94_3073" style="mask-type:luminance" maskUnits="userSpaceOnUse" x="294" y="262" width="55" height="97">
<path d="M337.624 262.761C337.624 262.761 328.829 271.397 322.868 277.251C319.339 280.717 316.661 284.955 315.046 289.631C309.18 306.617 294.833 348.153 294.833 348.153L307.824 358.219C307.824 358.219 333.563 309.191 337.219 302.229C337.503 301.687 337.875 301.195 338.319 300.774C340.738 298.482 348.866 290.777 348.866 290.777L337.624 262.761Z" fill="white"/>
</mask>
<g mask="url(#mask10_94_3073)">
<path d="M321.797 274.106C320.663 274.701 337.177 287.555 337.728 308.377L352.376 300.858L328.064 266.001L321.797 274.106Z" fill="#9E464D"/>
</g>
<path d="M467.523 312.213C467.523 312.213 473.09 309.425 476.522 307.707C477.169 307.383 477.927 307.366 478.588 307.661C479.249 307.956 479.743 308.532 479.934 309.229C482.482 318.563 490.43 347.674 490.43 347.674C479.36 348.745 467.865 335.828 465.033 322.431L467.523 312.213Z" fill="#4A3687"/>
<path d="M468.533 331.44L474.692 329.494" stroke="white" stroke-width="2.1" stroke-miterlimit="1.5" stroke-linecap="round" stroke-linejoin="round"/>
<path d="M470.361 335.268L476.52 333.322" stroke="white" stroke-width="2.1" stroke-miterlimit="1.5" stroke-linecap="round" stroke-linejoin="round"/>
<path d="M472.909 338.779L479.068 336.833" stroke="white" stroke-width="2.1" stroke-miterlimit="1.5" stroke-linecap="round" stroke-linejoin="round"/>
<path d="M391.816 305.814C391.816 305.814 396.984 318.993 400.27 327.372C401.84 331.376 405.876 333.851 410.157 333.435C427.244 331.775 468.684 327.751 468.684 327.751C470.288 322.324 470.112 317.256 468.427 312.495C468.427 312.495 434.807 311.065 425.577 310.672C424.167 310.612 422.925 309.725 422.412 308.411C421.097 305.045 418.711 298.938 418.711 298.938L391.816 305.814Z" fill="#B85F58"/>
<mask id="mask11_94_3073" style="mask-type:luminance" maskUnits="userSpaceOnUse" x="391" y="298" width="79" height="36">
<path d="M391.816 305.814C391.816 305.814 396.984 318.993 400.27 327.372C401.84 331.376 405.876 333.851 410.157 333.435C427.244 331.775 468.684 327.751 468.684 327.751C470.288 322.324 470.112 317.256 468.427 312.495C468.427 312.495 434.807 311.065 425.577 310.672C424.167 310.612 422.925 309.725 422.412 308.411C421.097 305.045 418.711 298.938 418.711 298.938L391.816 305.814Z" fill="white"/>
</mask>
<g mask="url(#mask11_94_3073)">
<path d="M388.717 314.51C388.717 314.51 417.959 322.507 429.789 308.308L428.134 297.727L388.532 304.235L388.717 314.51Z" fill="#9E464D"/>
</g>
<path d="M368.224 218.277L354.852 219.494C354.852 219.494 351.944 222.854 350.847 226.813C350.847 226.813 355.635 236.91 365.457 237.534L368.224 218.277Z" fill="#CF8F44"/>
<path d="M365.79 235.35L364.122 228.731L369.477 217.353L386.46 227.376L365.79 235.35Z" fill="#9E464D"/>
<path d="M336.82 255.494C337.53 254.664 338.769 254.546 339.622 255.226C342.973 257.892 350.913 264.211 354.124 266.765C354.906 267.387 355.082 268.504 354.529 269.337C353.443 270.974 351.729 273.554 350.885 274.826C350.566 275.306 350.042 275.611 349.468 275.652C348.179 275.744 345.744 275.918 343.645 276.068C341.318 276.234 339.104 275.036 337.97 272.997C336.209 269.829 333.65 265.227 332.386 262.954C331.925 262.125 332.028 261.099 332.644 260.378C333.775 259.055 335.597 256.923 336.82 255.494Z" fill="#5EA6A6"/>
<path d="M344.348 269.475C345.206 270.359 345.176 271.781 344.282 272.647C343.389 273.514 341.967 273.5 341.11 272.615C340.252 271.731 340.282 270.31 341.175 269.444C342.068 268.578 343.49 268.591 344.348 269.475Z" fill="#104558"/>
<path d="M363.752 228.432C351.239 243.874 337.584 257.444 323.607 272.351C332.024 279.669 337.746 290 345.593 299.566L378.45 276.354L390.687 312.408C399.967 314.456 412.127 312.633 422.952 306.735C419.917 286.503 416.584 267.543 416.868 248.835C404.93 236.917 382.974 228.833 363.752 228.432Z" fill="#0C8392"/>
<mask id="mask12_94_3073" style="mask-type:luminance" maskUnits="userSpaceOnUse" x="323" y="228" width="100" height="86">
<path d="M363.752 228.432C351.239 243.874 337.584 257.444 323.607 272.351C332.024 279.669 337.746 290 345.593 299.566L378.45 276.354L390.687 312.408C399.967 314.456 412.127 312.633 422.952 306.735C419.917 286.503 416.584 267.543 416.868 248.835C404.93 236.917 382.974 228.833 363.752 228.432Z" fill="white"/>
</mask>
<g mask="url(#mask12_94_3073)">
<path d="M342.851 244.776C342.851 244.776 364.342 229.562 386.134 245.383C407.927 261.204 422.041 253.887 428.092 250.471L430.239 240.237L366.227 218.253L342.851 244.776Z" fill="#0F6577"/>
<path d="M374.5 292.85L378.767 275.693L376.623 265.446L353.923 300.677L374.5 292.85Z" fill="#0F6577"/>
</g>
<path d="M399.018 280.879C398.917 279.792 399.694 278.82 400.777 278.68C405.024 278.131 415.087 276.831 419.157 276.306C420.148 276.178 421.072 276.83 421.285 277.807C421.702 279.726 422.361 282.752 422.686 284.245C422.809 284.808 422.664 285.396 422.294 285.837C421.462 286.827 419.892 288.695 418.537 290.306C417.035 292.092 414.635 292.847 412.382 292.241C408.882 291.299 403.797 289.931 401.284 289.256C400.369 289.011 399.704 288.221 399.615 287.277C399.454 285.543 399.193 282.75 399.018 280.879Z" fill="#5EA6A6"/>
<path d="M414.295 285.21C415.527 285.21 416.526 286.22 416.526 287.465C416.526 288.71 415.527 289.72 414.295 289.72C413.063 289.72 412.064 288.71 412.064 287.465C412.064 286.22 413.063 285.21 414.295 285.21Z" fill="#104558"/>
<path d="M345.327 300.143L351.341 296.358L327.967 266.444L322.959 272.305L345.327 300.143Z" fill="#5EA6A6"/>
<path d="M389.179 308.474C400.39 307.66 411.488 305.514 422.42 301.42L423.255 306.903C413.206 312.598 402.325 314.486 390.789 313.369L389.179 308.474Z" fill="#5EA6A6"/>
<path d="M385.016 138.344C385.016 138.344 406.095 161.93 416.748 166.733C432.528 173.849 461.344 184.828 461.344 184.828C454.952 189.51 452.891 201.07 451.024 218.434L431.01 212.875C425.141 221.385 420.96 232.428 420.223 253.039C385.942 253.64 359.753 205.273 350.835 226.833C353.853 207.235 364.907 225.761 378.495 185.998L359.802 159.305C366.547 147.884 374.644 138.007 385.016 138.344Z" fill="#FECD6E"/>
<mask id="mask13_94_3073" style="mask-type:luminance" maskUnits="userSpaceOnUse" x="350" y="138" width="112" height="116">
<path d="M385.016 138.344C385.016 138.344 406.095 161.93 416.748 166.733C432.528 173.849 461.344 184.828 461.344 184.828C454.952 189.51 452.891 201.07 451.024 218.434L431.01 212.875C425.141 221.385 420.96 232.428 420.223 253.039C385.942 253.64 359.753 205.273 350.835 226.833C353.853 207.235 364.907 225.761 378.495 185.998L359.802 159.305C366.547 147.884 374.644 138.007 385.016 138.344Z" fill="white"/>
</mask>
<g mask="url(#mask13_94_3073)">
<path d="M371.494 188.893C371.494 188.893 382.971 188.042 400.155 196.255C417.338 204.468 437.464 221.696 437.464 221.696L434.051 227.762C434.051 227.762 391.095 191.332 368.299 196.516L371.494 188.893Z" fill="#FCE7A8"/>
<path d="M366.586 199.733C366.586 199.733 393.457 197.577 431.747 232.137L430.172 238.556C430.172 238.556 385.117 203.581 361.338 207.435L366.586 199.733Z" fill="#FCE7A8"/>
<path d="M407.008 156.113C407.008 156.113 404.665 157.418 402.998 161.584C401.331 165.75 401.617 180.458 408 182.845C414.383 185.232 431.805 180.117 432.065 169.007L407.008 156.113Z" fill="#FCE7A8"/>
</g>
<path d="M430.784 211.715C430.784 211.715 429.237 193.344 436.315 182.604C436.315 182.604 426.57 187.01 430.784 211.715Z" fill="#CF8F44"/>
<path d="M380.131 184.022C380.131 184.022 383.211 169.491 397.525 160.834C397.525 160.834 388.952 167.087 380.131 184.022Z" fill="#CF8F44"/>
<path d="M432.129 163.291C430.403 166.088 429.004 168.941 428.797 172C424.042 179.548 413.686 182.195 409.871 180.507C406.056 178.819 403.675 168.867 405.905 161.873C408.953 160.867 411.03 158.981 412.224 156.294L432.129 163.291Z" fill="#9E464D"/>
<path d="M441.439 154.529C437.556 155.383 434.918 158.41 435.55 161.285C436.182 164.16 439.848 165.801 443.73 164.947C447.613 164.092 450.251 161.065 449.619 158.19C448.986 155.316 445.321 153.675 441.439 154.529Z" fill="#9E464D"/>
<path d="M405.842 140.934C402.851 138.316 398.847 137.989 396.91 140.205C394.971 142.419 395.826 146.344 398.817 148.962C401.808 151.58 405.81 151.907 407.749 149.692C409.688 147.476 408.833 143.551 405.842 140.934Z" fill="#9E464D"/>
<path d="M433.251 118.086C422 114.496 410.037 123.325 405.04 136.989C400.043 150.653 404.991 165.039 416.082 169.095C427.174 173.151 440.234 165.35 445.231 151.687C450.228 138.023 446.946 122.455 433.251 118.086Z" fill="#B85F58"/>
<path d="M416.272 150.609C420.53 152.574 425.439 153.246 430.078 153.189C430.078 153.189 428.294 163.281 421.18 162.084C414.441 160.95 416.272 150.609 416.272 150.609Z" fill="white"/>
<path d="M423.56 143.33C422.625 144.597 422.03 146.079 422.183 148.035" stroke="#952737" stroke-width="1.27" stroke-miterlimit="1.5" stroke-linecap="round" stroke-linejoin="round"/>
<path d="M433.504 137.414C436.992 135.111 440.998 136.2 441.871 141.54C444.427 136.568 438.643 129.915 433.504 137.414Z" fill="#571C38"/>
<path d="M422.141 132.91C420.695 128.989 416.822 127.494 412.956 131.28C413.841 125.759 422.442 123.824 422.141 132.91Z" fill="#571C38"/>
<path d="M420.741 135.993C425.537 135.551 429.69 136.959 433.2 140.22" stroke="#17527C" stroke-width="1.5" stroke-miterlimit="1.5" stroke-linecap="round" stroke-linejoin="round"/>
<path d="M434.563 138.572C438.698 138.572 442.049 141.924 442.049 146.058C442.049 150.193 438.697 153.544 434.563 153.544C430.428 153.544 427.077 150.192 427.077 146.058C427.077 141.924 430.428 138.572 434.563 138.572Z" fill="#C4DFE6"/>
<path d="M422.995 140.708C423.825 136.658 421.215 132.702 417.165 131.871C413.115 131.04 409.159 133.65 408.328 137.7C407.498 141.75 410.107 145.707 414.157 146.538C418.208 147.368 422.164 144.758 422.995 140.708Z" fill="#C4DFE6"/>
<path d="M415.662 144.202C414.908 144.183 414.311 143.555 414.331 142.802C414.35 142.048 414.978 141.451 415.731 141.471C416.485 141.49 417.082 142.118 417.062 142.871C417.043 143.626 416.415 144.222 415.662 144.202Z" fill="#1C3254"/>
<path d="M433.023 149.476C432.269 149.456 431.672 148.829 431.692 148.075C431.711 147.322 432.339 146.725 433.092 146.745C433.846 146.764 434.443 147.392 434.423 148.145C434.404 148.9 433.776 149.495 433.023 149.476Z" fill="#1C3254"/>
<path d="M441.932 158.45C443.614 153.635 444.863 149.789 445.23 145.1C444.3 140.229 445.169 135.711 445.451 131.412C436.42 126.813 426.733 123.74 416.418 122.122C414.549 125.575 410.686 130.549 407.822 132.979C405.907 135.695 404.624 139.682 403.446 143.881C403.393 135.101 405.121 128.189 408.359 118.26C408.078 116.774 406.146 115.327 404.36 114.673C406.518 112.701 409.841 113.042 411.28 113.946C412.069 111.559 411.118 109.651 409.285 107.986C413.133 106.963 416.654 106.753 419.399 108.483C419.165 106.512 417.42 105.231 415.096 104.214C433.138 104.995 449.217 112.454 449.708 125.616C453.008 126.084 457.749 129.729 459.919 134.923C458.249 135.141 456.186 134.943 454.952 135.912C456.454 136.614 457.571 137.826 458.226 139.657C456.68 139.114 454.833 139.381 452.74 140.317C450.009 146.628 446.355 152.428 441.932 158.45Z" fill="#571C38"/>
<mask id="mask14_94_3073" style="mask-type:luminance" maskUnits="userSpaceOnUse" x="403" y="104" width="57" height="55">
<path d="M441.932 158.45C443.614 153.635 444.863 149.789 445.23 145.1C444.3 140.229 445.169 135.711 445.451 131.412C436.42 126.813 426.733 123.74 416.418 122.122C414.549 125.575 410.686 130.549 407.822 132.979C405.907 135.695 404.624 139.682 403.446 143.881C403.393 135.101 405.121 128.189 408.359 118.26C408.078 116.774 406.146 115.327 404.36 114.673C406.518 112.701 409.841 113.042 411.28 113.946C412.069 111.559 411.118 109.651 409.285 107.986C413.133 106.963 416.654 106.753 419.399 108.483C419.165 106.512 417.42 105.231 415.096 104.214C433.138 104.995 449.217 112.454 449.708 125.616C453.008 126.084 457.749 129.729 459.919 134.923C458.249 135.141 456.186 134.943 454.952 135.912C456.454 136.614 457.571 137.826 458.226 139.657C456.68 139.114 454.833 139.381 452.74 140.317C450.009 146.628 446.355 152.428 441.932 158.45Z" fill="white"/>
</mask>
<g mask="url(#mask14_94_3073)">
<path d="M462.007 137.122C456.944 130.936 451.825 127.98 448.247 128.054C444.5 113.587 433.911 109.724 422.575 107.291C423.035 109.725 422.519 111.364 421.145 112.958C418.118 109.743 416.177 109.585 413.335 109.459C413.916 111.379 414.041 114.572 412.922 116.637C409.159 113.709 406.593 113.72 402.602 115.205C402.602 115.205 403.679 106.103 403.326 105.41C402.972 104.717 426.219 101.732 426.219 101.732L456.635 120.377L462.007 137.122Z" fill="#7C375D"/>
</g>
<path d="M383.122 412.064C417.431 412.064 445.244 409.643 445.244 406.656C445.244 403.669 417.431 401.248 383.122 401.248C348.813 401.248 321 403.669 321 406.656C321 409.643 348.813 412.064 383.122 412.064Z" fill="#D8BFBF"/>
<path d="M613.586 341.136L614.731 356.197L653.635 335.359C648.896 330.386 629.927 329.792 618.714 337.65L613.586 341.136Z" fill="#4A3687"/>
<mask id="mask15_94_3073" style="mask-type:luminance" maskUnits="userSpaceOnUse" x="613" y="331" width="41" height="26">
<path d="M613.586 341.136L614.731 356.197L653.635 335.359C648.896 330.386 629.927 329.792 618.714 337.65L613.586 341.136Z" fill="white"/>
</mask>
<g mask="url(#mask15_94_3073)">
<path d="M608.863 350.498C612.334 348.813 629.708 338.743 645.55 330.049L612.142 332.923L608.863 350.498Z" fill="#F1966C"/>
</g>
<path d="M598.613 232.798L627.815 336.626C623.921 340.885 620.531 344.177 614.532 344.424L571.229 239.984L598.613 232.798Z" fill="#F1966C"/>
<path d="M543.98 262.78C543.98 262.78 540.389 257.694 538.176 254.558C537.759 253.967 537.098 253.594 536.376 253.542C535.655 253.489 534.947 253.765 534.45 254.289C527.795 261.312 507.042 283.218 507.042 283.218C512.899 286.81 532.527 283.434 541.349 272.963L543.98 262.78Z" fill="#4A3687"/>
<mask id="mask16_94_3073" style="mask-type:luminance" maskUnits="userSpaceOnUse" x="507" y="253" width="37" height="32">
<path d="M543.98 262.78C543.98 262.78 540.389 257.694 538.176 254.558C537.759 253.967 537.098 253.594 536.376 253.542C535.655 253.489 534.947 253.765 534.45 254.289C527.795 261.312 507.042 283.218 507.042 283.218C512.899 286.81 532.527 283.434 541.349 272.963L543.98 262.78Z" fill="white"/>
</mask>
<g mask="url(#mask16_94_3073)">
<path d="M543.693 255.759C543.693 255.759 527.296 263.206 517.36 287.191L544.25 276.391L543.693 255.759Z" fill="#FFBA92"/>
</g>
<path d="M572.294 214.152C572.294 214.152 602.518 229.47 617.093 236.856C621.634 239.158 624.085 244.203 623.087 249.195C622.84 250.435 622.585 251.706 622.341 252.931C621.416 257.559 617.72 261.13 613.063 261.897C592.714 265.248 539.264 274.049 539.264 274.049C537.018 271.479 537.664 262.95 540.183 258.283L570.841 250.86L562.996 250.758L572.294 214.152Z" fill="#FFBA92"/>
<path d="M537.934 186.722C537.934 186.722 536.041 191.081 533.154 197.072C531.598 200.302 524.253 212.057 527.337 224.841C531.669 242.794 546.572 249.083 580.293 253.591C580.293 253.591 576.973 232.454 590.582 224.637L598.589 227.578C598.589 227.578 592.202 213.398 590.408 208.218C589.556 205.761 588.249 200.796 588.013 197.451L537.934 186.722Z" fill="#473750"/>
<mask id="mask17_94_3073" style="mask-type:luminance" maskUnits="userSpaceOnUse" x="526" y="186" width="73" height="68">
<path d="M537.934 186.722C537.934 186.722 536.041 191.081 533.154 197.072C531.598 200.302 524.253 212.057 527.337 224.841C531.669 242.794 546.572 249.083 580.293 253.591C580.293 253.591 576.973 232.454 590.582 224.637L598.589 227.578C598.589 227.578 592.202 213.398 590.408 208.218C589.556 205.761 588.249 200.796 588.013 197.451L537.934 186.722Z" fill="white"/>
</mask>
<g mask="url(#mask17_94_3073)">
<path d="M591.856 234.186L590.341 224.384L563.64 214.619C563.64 214.619 552.249 210.083 540.467 215.957C540.467 215.957 548.343 208.317 560.519 211.001C560.519 211.001 531.139 180.058 523.439 221.245L532.113 190.738L540.025 183.865L595.196 195.56L603.647 232.615L591.856 234.186Z" fill="#392A45" fill-opacity="0.62"/>
</g>
<path d="M528.425 61.6953C528.425 61.6953 529.845 52.6503 545.916 51.4163C562.273 50.1593 573.659 66.1173 581.394 73.3313C592.167 83.3773 617.724 71.1404 622.167 99.4104C622.167 99.4104 617.376 91.7133 609.489 92.6513C609.489 92.6513 633.451 110.536 609.776 132.806C609.776 132.806 606.502 110.041 574.113 123.013C554.306 130.945 537.138 127.234 530.132 111.758C530.132 111.758 537.01 129.627 546.539 129.225C546.539 129.225 535.842 133.915 526.958 124.388C520.688 117.664 521.797 110.315 518.075 101.155C511.101 83.9883 510.425 64.3253 528.425 61.6953Z" fill="#D04C10"/>
<mask id="mask18_94_3073" style="mask-type:luminance" maskUnits="userSpaceOnUse" x="513" y="51" width="110" height="82">
<path d="M528.425 61.6953C528.425 61.6953 529.845 52.6503 545.916 51.4163C562.273 50.1593 573.659 66.1173 581.394 73.3313C592.167 83.3773 617.724 71.1404 622.167 99.4104C622.167 99.4104 617.376 91.7133 609.489 92.6513C609.489 92.6513 633.451 110.536 609.776 132.806C609.776 132.806 606.502 110.041 574.113 123.013C554.306 130.945 537.138 127.234 530.132 111.758C530.132 111.758 537.01 129.627 546.539 129.225C546.539 129.225 535.842 133.915 526.958 124.388C520.688 117.664 521.797 110.315 518.075 101.155C511.101 83.9883 510.425 64.3253 528.425 61.6953Z" fill="white"/>
</mask>
<g mask="url(#mask18_94_3073)">
<path d="M509.839 81.4001C514.216 70.4831 522.287 64.2211 529.742 64.8241C538.248 54.5141 551.44 50.3221 586.042 74.0771L569.567 47.5071C549.61 43.8981 530.319 49.2081 511.387 59.3061L509.839 81.4001Z" fill="#DC792C"/>
</g>
<path d="M572.723 112.259C580.616 103.469 586.993 95.9252 592.977 88.7072C595.604 85.5382 596.312 81.1972 594.829 77.3582C590.117 65.1612 580.103 39.2372 580.103 39.2372L588.618 34.5542C588.618 34.5542 608.427 65.9722 616.652 79.0192C618.787 82.4062 618.712 86.7362 616.462 90.0472C607.491 103.246 585.337 135.843 585.337 135.843L572.723 112.259Z" fill="#FFBA92"/>
<path d="M584.242 40.9071L578.824 41.0061C578.824 41.0061 545.013 41.4031 544.29 38.9911C543.568 36.5781 562.422 34.9751 562.422 34.9751C562.422 34.9751 542.153 29.3451 542.853 27.2271C543.553 25.1081 563.061 27.6121 563.061 27.6121C563.061 27.6121 560.578 20.3071 566.338 21.2151C566.338 21.2151 566.08 17.3612 570.713 17.4382C575.345 17.5162 584.997 20.7591 581.1 24.0941C581.1 24.0941 588.908 27.9951 589.023 35.4371L584.242 40.9071Z" fill="#FFBA92"/>
<path d="M575.721 39.7304C575.721 39.7304 564.052 38.7984 562.759 37.2874C561.465 35.7774 563.178 26.3464 565.753 26.2914C568.328 26.2354 568.168 32.8024 568.168 32.8024C568.168 32.8024 573.186 26.9904 577.337 29.8934" stroke="#C23A3B" stroke-width="1.27" stroke-miterlimit="1.5" stroke-linecap="round" stroke-linejoin="round"/>
<path d="M567.2 21.4873C567.2 21.4873 580.399 22.3813 579.315 25.4393C578.695 27.1913 570.536 26.7343 570.536 26.7343" stroke="#C23A3B" stroke-width="1.27" stroke-miterlimit="1.5" stroke-linecap="round" stroke-linejoin="round"/>
<path d="M531.805 134.095C531.242 134.549 530.9 135.222 530.865 135.944C530.829 136.667 531.105 137.369 531.62 137.876C535.004 141.285 541.175 149.506 540.844 163.874C540.687 170.712 539.241 178.126 535.331 181.688C534.242 182.631 533.814 184.13 534.243 185.505C534.223 185.691 534.275 185.857 534.328 186.025C535.061 188.383 536.897 190.237 539.247 190.993C555.568 196.235 570.337 199.846 583.865 200.603C587.157 200.733 590.275 199.122 592.074 196.361C592.093 196.374 592.094 196.374 592.094 196.374C592.775 195.328 593.017 194.058 592.771 192.835C589.976 179.312 592.081 169.438 594.679 156.173C595.447 152.181 595.263 148.064 594.141 144.158C590.007 129.749 584.64 119.175 576.022 108.346C564.389 116.249 567.404 114.638 554.274 119.888C545.943 123.221 536.179 130.603 531.805 134.095Z" fill="#51A1E4"/>
<path d="M564.982 135.444C557.706 135.469 551.581 137.126 547.13 142.722C545.49 137.79 543.699 132.266 543.222 127.428C542.874 123.946 544.926 120.669 548.211 119.463C551.714 118.173 556.472 116.425 559.774 115.211C562.908 114.06 566.39 114.345 569.294 115.992C573.883 118.59 578.495 123.202 580.001 130.054C573.181 128.677 570.108 129.42 564.982 135.444Z" fill="#A9E1FF"/>
<path d="M576.756 143.386L590.463 138.177C590.463 138.177 591.399 140.151 592.01 141.441C592.334 142.125 592.301 142.924 591.923 143.579C591.311 144.636 590.346 146.304 589.56 147.664C588.765 149.036 587.24 149.816 585.663 149.656C583.764 149.463 581.246 149.207 579.635 149.044C578.685 148.948 577.901 148.259 577.682 147.33C577.301 145.703 576.756 143.386 576.756 143.386Z" fill="#A9E1FF"/>
<path d="M586.135 147.993C586.936 147.993 587.586 147.324 587.586 146.498C587.586 145.673 586.936 145.003 586.135 145.003C585.333 145.003 584.684 145.673 584.684 146.498C584.684 147.324 585.333 147.993 586.135 147.993Z" fill="#34486A"/>
<path d="M547.987 150.172L563.041 147.004C563.041 147.004 563.73 149.046 564.192 150.414C564.445 151.165 564.294 151.995 563.791 152.608C562.984 153.593 561.721 155.134 560.71 156.368C559.732 157.562 558.158 158.092 556.656 157.734C554.637 157.252 551.837 156.584 550.12 156.175C549.197 155.954 548.513 155.176 548.414 154.232C548.238 152.564 547.987 150.172 547.987 150.172Z" fill="#A9E1FF"/>
<path d="M557.572 153.14C558.41 153.257 558.997 154.016 558.884 154.834C558.77 155.651 557.997 156.22 557.16 156.104C556.323 155.988 555.735 155.228 555.849 154.411C555.962 153.593 556.735 153.023 557.572 153.14Z" fill="#34486A"/>
<path d="M565.25 136.078C565.25 136.078 574.005 147.956 574.434 155.194C574.864 162.431 571.696 184.166 572.903 189.445C574.11 194.723 574.191 196.059 571.701 198.281" stroke="#3A68AA" stroke-width="0.9" stroke-miterlimit="1.5" stroke-linecap="round" stroke-linejoin="round"/>
<path d="M545.345 113.489C546.544 116.953 546.901 121.583 546.376 125.044C546.052 127.16 547.129 129.243 549.043 130.201C553.803 132.512 559.215 134.428 564.822 135.807C568.035 131.756 568.774 127.501 568.471 122.73C568.41 121.77 567.946 120.88 567.194 120.278C564.636 118.173 562.82 113.68 562.95 109.256L545.345 113.489Z" fill="#F1966C"/>
<path d="M531.759 101.899C535.889 102.728 538.744 105.883 538.131 108.942C537.518 112.001 533.666 113.811 529.536 112.983C525.406 112.154 522.551 108.998 523.164 105.94C523.777 102.881 527.628 101.071 531.759 101.899Z" fill="#F1966C"/>
<path d="M569.209 86.7952C572.327 83.9632 576.561 83.5372 578.659 85.8462C580.757 88.1552 579.928 92.3302 576.81 95.1622C573.692 97.9942 569.458 98.4201 567.36 96.1111C565.263 93.8021 566.091 89.6272 569.209 86.7952Z" fill="#F1966C"/>
<path d="M539.718 63.1244C551.568 59.1004 564.419 68.2194 569.981 82.5994C575.543 96.9784 570.583 112.319 558.911 116.835C547.239 121.351 533.246 113.342 527.684 98.9624C522.122 84.5834 525.294 68.0234 539.718 63.1244Z" fill="#FFBA92"/>
<path d="M529.476 103.071V88.1733C529.476 88.1733 534.36 83.3763 534.887 75.4793C534.887 75.4793 547.179 82.3823 560.915 74.8243L570.678 83.1033L561.319 68.8603L534.525 64.5903L520.971 85.8683L529.476 103.071Z" fill="#F1966C"/>
<path d="M532.219 70.4244C532.219 70.4244 544.09 80.1864 560.461 72.2954C560.461 72.2954 569.421 80.8074 571.361 87.6964L571.034 72.4784L543.414 57.5884C532.896 61.4264 524.266 69.0584 519.601 84.6514C521.976 93.9724 525.663 101.395 531.053 106.359C531.053 106.359 528.988 94.1364 527.973 87.5114C527.973 87.5114 533.198 80.1894 532.219 70.4244Z" fill="#D04C10"/>
<path d="M533.384 96.2421C532.14 93.3011 532.564 90.1601 534.663 88.4731C537.028 86.5721 540.742 87.1451 543.501 89.6501C541.353 88.7391 538.887 88.7691 536.827 89.9111C534.455 91.2251 533.219 93.6801 533.384 96.2421Z" fill="#D04C10"/>
<path d="M563.917 80.7043C562.228 78.1653 559.548 76.8483 557.172 77.6303C554.494 78.5103 553.085 81.7683 553.673 85.2833C554.033 83.0943 555.291 81.1483 557.22 80.1093C559.439 78.9143 561.987 79.2233 563.917 80.7043Z" fill="#D04C10"/>
<path d="M541.294 96.873C542.13 96.873 542.808 97.551 542.808 98.387C542.808 99.224 542.13 99.902 541.294 99.902C540.458 99.902 539.779 99.224 539.779 98.387C539.78 97.551 540.458 96.873 541.294 96.873Z" fill="#1C3254"/>
<path d="M559.01 89.9814C559.847 89.9814 560.525 90.6594 560.525 91.4964C560.525 92.3324 559.847 93.0114 559.01 93.0114C558.174 93.0114 557.496 92.3334 557.496 91.4964C557.495 90.6594 558.173 89.9814 559.01 89.9814Z" fill="#1C3254"/>
<path d="M552.508 94.248C554.005 95.881 554.878 97.663 554.885 99.649" stroke="#C23A3B" stroke-width="1.27" stroke-miterlimit="1.5" stroke-linecap="round" stroke-linejoin="round"/>
<path d="M560.113 102.638C555.752 103.732 551.691 103.606 547.786 102.839C547.786 102.839 548.043 111.301 553.603 111.568C560.238 111.886 560.113 102.638 560.113 102.638Z" fill="white"/>
<path d="M543.737 162.71C544.234 147.586 541.382 136.999 532.163 134.544L487.106 224.97L496.196 231.403L543.737 162.71Z" fill="#FFBA92"/>
<path d="M483.761 229.936C483.761 229.936 474.006 231.598 472.11 232.627C470.214 233.658 465.32 239.034 466.172 239.844C467.024 240.654 481.275 234.798 481.275 234.798L483.761 229.936Z" fill="#F1966C"/>
<path d="M495.39 224.448C495.39 224.448 499.035 233.777 497.597 236.886C496.16 239.995 488.291 248.027 486.966 248.378C485.641 248.729 485.894 244.634 489.648 238.996C489.648 238.996 466.187 250.369 465.857 248.551C465.528 246.732 478.178 238.98 478.178 238.98C478.178 238.98 462.037 243.894 461.894 241.74C461.75 239.585 477.836 233.168 477.836 233.168L489.009 223.036L495.39 224.448Z" fill="#FFBA92"/>
<path d="M567.533 412.064C601.842 412.064 629.655 409.643 629.655 406.656C629.655 403.669 601.842 401.248 567.533 401.248C533.224 401.248 505.411 403.669 505.411 406.656C505.411 409.643 533.224 412.064 567.533 412.064Z" fill="#D8BFBF"/>
</svg>
