<svg width="750" height="500" viewBox="0 0 750 500" fill="none" xmlns="http://www.w3.org/2000/svg">
<path d="M44.45 271.414C47.638 264.741 53.556 191.821 57.709 178.024C62.127 163.348 68.789 149.803 77.625 137.286C131.545 60.8981 170.882 115.82 219.187 73.9091C232.133 62.6761 242.511 48.6081 256.464 38.5041C301.807 5.6691 360.183 14.4891 405.8 41.1711C428.761 54.6021 444.728 81.9591 471.049 88.8321C511.576 99.4131 551.821 65.8241 592.526 64.8311C697.507 62.2701 714.093 184.696 713.72 264.835C713.634 283.351 711.351 302.015 705.947 319.758C702.255 331.882 696.753 343.294 689.947 353.972C638.61 434.51 575.885 369.445 509.915 390.738C456.507 407.977 417.352 484.704 350.314 470.083C298.567 458.798 291.523 419.34 239.414 409.383C188.657 399.684 157.572 395.678 108.32 412.412C20.23 442.339 13.923 335.317 44.45 271.414Z" fill="#FBF8E1"/>
<path d="M621.941 310.2C617.176 307.698 613.495 309.379 610.421 314.784C606.319 321.998 600.61 340.006 604.657 342.395C609.292 345.131 617.114 339.237 621.705 330.492C626.295 321.746 626.707 312.702 621.941 310.2Z" fill="#4E7B8E"/>
<path d="M617.664 309.069C614.871 309.165 612.507 311.117 610.423 314.784C606.321 321.998 600.612 340.006 604.659 342.395C604.848 342.507 605.042 342.604 605.242 342.687C605.655 326.415 613.279 314.57 617.664 309.069Z" fill="#9DC1C7"/>
<path d="M622.143 328.447C622.143 328.447 619.083 326.903 616.042 323.36C615.632 322.882 615.687 322.161 616.165 321.75C616.643 321.34 617.364 321.395 617.775 321.873C620.477 325.021 623.179 326.413 623.179 326.413C623.74 326.699 623.964 327.387 623.678 327.948C623.392 328.509 622.705 328.733 622.143 328.447Z" fill="#9DC1C7"/>
<path d="M620.578 331.788C620.578 331.788 617.518 330.244 614.477 326.701C614.067 326.223 614.122 325.502 614.6 325.091C615.078 324.681 615.8 324.735 616.21 325.214C618.912 328.362 621.615 329.754 621.615 329.754C622.176 330.04 622.4 330.728 622.114 331.289C621.827 331.851 621.139 332.074 620.578 331.788Z" fill="#9DC1C7"/>
<path d="M619.081 334.893C619.081 334.893 616.021 333.349 612.98 329.806C612.57 329.328 612.625 328.607 613.102 328.196C613.581 327.786 614.302 327.841 614.712 328.319C617.414 331.467 620.116 332.859 620.116 332.859C620.677 333.145 620.901 333.833 620.615 334.394C620.329 334.955 619.643 335.179 619.081 334.893Z" fill="#9DC1C7"/>
<path d="M550.607 386.816C545.545 388.647 544.303 392.497 546.22 398.411C548.779 406.306 558.222 422.668 562.715 421.292C567.861 419.716 568.787 409.966 565.427 400.677C562.068 391.39 555.669 384.986 550.607 386.816Z" fill="#4E7B8E"/>
<path d="M546.884 389.211C545.071 391.337 544.918 394.4 546.218 398.412C548.777 406.307 558.219 422.669 562.713 421.293C562.923 421.228 563.126 421.151 563.322 421.059C551.589 409.778 547.987 396.16 546.884 389.211Z" fill="#9DC1C7"/>
<path d="M564.212 398.976C564.212 398.976 561.008 400.193 556.341 400.048C555.711 400.028 555.216 399.501 555.235 398.871C555.255 398.241 555.782 397.746 556.412 397.765C560.559 397.894 563.409 396.838 563.409 396.838C563.999 396.616 564.658 396.915 564.88 397.505C565.101 398.095 564.803 398.754 564.212 398.976Z" fill="#9DC1C7"/>
<path d="M565.62 402.388C565.62 402.388 562.416 403.605 557.749 403.46C557.119 403.44 556.624 402.913 556.643 402.283C556.663 401.653 557.19 401.158 557.82 401.177C561.967 401.306 564.817 400.25 564.817 400.25C565.407 400.028 566.066 400.328 566.287 400.917C566.509 401.508 566.21 402.167 565.62 402.388Z" fill="#9DC1C7"/>
<path d="M566.904 405.586C566.904 405.586 563.7 406.803 559.033 406.658C558.403 406.639 557.908 406.111 557.927 405.481C557.947 404.851 558.474 404.356 559.104 404.375C563.251 404.504 566.101 403.448 566.101 403.448C566.691 403.226 567.35 403.526 567.571 404.115C567.793 404.705 567.493 405.364 566.904 405.586Z" fill="#9DC1C7"/>
<path d="M610.217 249.702C606.739 251.041 602.816 299.643 548.73 387.863C548.73 387.863 559.977 400.388 565.521 394.788C565.521 394.788 627.105 298.887 629.527 295.04C632.242 290.728 637.973 291.008 641.77 294.033C643.958 295.777 660.526 311.782 650.099 312.285C639.671 312.788 629.623 310.937 623.215 310.758C622.026 310.724 617.162 321.809 622.017 325.523C626.872 329.237 675.371 335.672 680.886 327.374C688.532 315.87 663.903 273.871 657.812 266.937C651.721 260.003 613.695 248.363 610.217 249.702Z" fill="#B3B3B3"/>
<path d="M602.173 275.022C607.268 258.873 608.781 250.255 610.217 249.702C613.695 248.364 651.721 260.003 657.812 266.937C659.347 268.685 662.061 272.662 665.137 277.815C654.919 274.464 644.354 272.457 633.586 271.934C624.407 271.489 615.088 272.326 606.088 274.171C604.78 274.439 603.47 274.709 602.173 275.022Z" fill="#9D9D9D"/>
<path d="M635.634 256.112C635.992 256.238 636.35 256.364 636.707 256.492C637.407 263.32 638.088 272.418 637.861 280.499C637.836 281.382 637.8 282.254 637.752 283.109C637.796 283.104 637.842 283.105 637.889 283.112C639.322 283.334 640.397 282.757 641.198 281.631C642.081 280.389 642.644 278.528 642.993 276.311C643.777 271.333 643.455 264.604 642.886 258.826C643.245 258.97 643.602 259.114 643.954 259.258C644.497 264.995 644.781 271.572 644.009 276.471C643.631 278.873 642.994 280.882 642.036 282.228C640.997 283.69 639.59 284.418 637.731 284.13C637.717 284.128 637.702 284.125 637.688 284.122C637.493 286.952 637.157 289.579 636.639 291.844C636.295 291.803 635.95 291.78 635.608 291.779C636.353 288.613 636.713 284.682 636.831 280.471C637.064 272.242 636.348 262.952 635.634 256.112Z" fill="#767474"/>
<path d="M639.422 329.671C630.754 328.453 623.716 326.822 622.018 325.522C617.163 321.808 622.027 310.724 623.216 310.757C629.393 310.93 638.953 312.656 648.975 312.33C648.726 312.573 648.482 312.822 648.243 313.076C645.906 315.553 643.857 318.376 642.202 321.352C640.641 324.161 639.742 326.833 639.422 329.671Z" fill="#9D9D9D"/>
<path d="M685.101 216.377C685.299 214.118 694.949 193.928 695.256 187.147L704.674 191.04C702.95 204.165 699.68 216.001 695.763 227.298C695.763 227.298 684.903 218.637 685.101 216.377Z" fill="#FECBA5"/>
<path d="M688.909 206.491C690.376 209.934 694.021 214.59 699.575 215.3C698.408 219.386 697.126 223.374 695.766 227.298C695.766 227.298 684.905 218.637 685.103 216.377C685.184 215.437 686.905 211.387 688.909 206.491Z" fill="#E58C6C"/>
<path d="M704.864 191.546C702.735 192.997 698.87 194.216 696.552 192.661C693.561 190.655 688.697 181.543 686.92 179.507C686.37 178.877 684.926 177.046 685.285 176.122C686.088 174.05 692.623 179.826 692.659 179.79C692.896 179.555 693.385 168.945 695.339 168.207C697.584 167.36 697.398 175.946 697.728 175.924C698.091 175.9 700.115 167.779 702.926 168.262C704.85 168.592 702.779 176.965 702.991 177.086C703.071 177.132 708.25 171.086 709.8 172.456C711.432 173.898 707.175 178.539 706.911 180.335C706.887 180.497 712.595 177.322 713.173 178.95C713.52 179.926 709.843 183.29 709.326 183.958C707.248 186.64 706.993 190.096 704.864 191.546Z" fill="#FECBA5"/>
<path d="M568.854 154.627C568.854 154.627 563.39 126.141 563.801 113.807L552.549 115.714C552.549 115.714 544.467 162.804 560.386 164.577C573.718 166.061 568.405 152.449 568.854 154.627Z" fill="#FECBA5"/>
<path d="M550.632 144.853C551.346 146.261 555.154 152.16 567.951 149.671C568.428 152.385 568.771 154.197 568.84 154.56C568.843 154.58 568.847 154.602 568.853 154.627L568.84 154.56C568.52 152.75 573.569 166.045 560.385 164.576C553.621 163.823 551.19 154.884 550.632 144.853Z" fill="#E58C6C"/>
<path d="M562.074 116.544C563.048 115.973 564.4 114.636 566.654 111.11C568.213 108.672 568.136 107.003 567.894 105.639C567.362 102.64 564.168 103.677 563.96 103.333C563.763 103.009 563.784 96.7629 558.615 97.1149C556.621 97.2499 556.623 98.8999 556.623 98.8999C556.623 98.8999 555.309 97.2819 553.196 97.8399C551.138 98.3839 550.964 100.884 550.964 100.884C550.964 100.884 549.514 100.143 548.465 101.909C547.681 103.229 548.236 104.534 548.236 104.534C548.236 104.534 547.164 103.587 546.046 105.389C544.92 107.204 545.14 107.876 546.508 110.306C547.765 112.538 550.889 116.497 553.045 117.391C556.808 118.952 559.395 118.114 562.074 116.544Z" fill="#FECBA5"/>
<path d="M559.017 104.352C560.557 103.687 562.257 103.366 563.903 103.057C563.924 103.203 563.943 103.3 563.963 103.333C563.982 103.365 564.026 103.384 564.091 103.397C563.573 103.511 562.951 103.645 562.671 103.719C562.164 103.853 561.66 103.993 561.163 104.159C560.743 104.3 560.322 104.436 559.911 104.601C558.637 105.113 557.159 105.703 556.836 107.184C556.713 107.747 556.805 108.219 557.275 108.619C557.609 108.904 558.097 109.083 558.51 109.173C559.608 109.411 560.715 109.511 561.836 109.571C562.223 109.592 562.614 109.612 563.001 109.585C563.145 109.576 561.933 109.818 561.346 109.833C560.652 109.852 559.655 109.881 558.721 109.738C558.63 109.805 558.555 109.864 558.53 109.883C557.813 110.427 557.253 111.201 556.911 112.03C556.802 112.293 556.542 112.986 556.564 112.818C556.672 112.005 556.999 110.694 557.481 110.028C557.59 109.877 557.722 109.692 557.877 109.549C557.084 109.301 556.44 108.858 556.232 108.074C556.074 108.103 555.893 108.091 555.778 108.077C555.661 108.063 555.544 108.035 555.427 107.996C555.383 108.087 555.3 108.19 555.242 108.309C555.174 108.446 555.096 108.576 555.008 108.702C554.512 109.417 553.549 109.588 552.715 109.405C552.671 109.787 552.517 110.206 552.386 110.556C552.23 110.97 552.034 111.393 551.743 111.73C551.25 112.299 550.376 112.206 549.748 111.944C548.45 111.402 547.481 110.401 546.747 109.227C546.737 109.217 546.727 109.207 546.717 109.196L546.733 109.204C546.738 109.211 546.742 109.219 546.747 109.227C546.953 109.438 547.154 109.653 547.364 109.859C548.141 110.621 549.371 111.676 550.562 111.56C551.409 111.478 551.983 110.464 552.182 109.732C552.224 109.578 552.218 109.409 552.233 109.25C552.11 109.198 551.994 109.138 551.886 109.07C550.097 107.938 548.571 106.181 547.609 104.285C547.913 104.306 548.133 104.449 548.21 104.507C548.383 104.809 548.599 105.104 548.753 105.308C549.775 106.668 551.032 108.411 552.775 108.815C553.225 108.92 553.821 108.975 554.245 108.744C554.536 108.585 554.738 108.297 554.919 108.028C554.937 108.001 554.979 107.904 555.024 107.814C554.569 107.566 554.145 107.188 553.823 106.869C552.824 105.879 552.179 104.508 551.55 103.279C551.14 102.477 550.74 101.65 550.563 100.756C550.811 100.801 550.968 100.881 550.968 100.881C550.968 100.881 550.969 100.856 550.975 100.81C550.988 100.853 551.002 100.896 551.016 100.938C551.232 101.602 551.548 102.215 551.863 102.837C552.523 104.135 553.245 105.361 554.183 106.481C554.55 106.919 555.049 107.522 555.638 107.665C555.806 107.705 555.991 107.7 556.166 107.665C556.164 107.627 556.162 107.588 556.161 107.548C556.134 106.196 557.025 105.397 558.122 104.789C558.199 104.746 558.277 104.705 558.355 104.664C558.302 104.249 558.19 103.855 558.107 103.534C557.806 102.378 557.486 101.175 557.068 100.057C556.914 99.6471 556.776 99.2311 556.63 98.8181C556.643 98.6811 556.689 98.3851 556.862 98.0771C557.279 98.8871 557.578 99.7741 557.863 100.636C558.069 101.257 558.24 101.887 558.416 102.518C558.555 103.015 558.721 103.51 558.9 103.994C558.938 104.098 558.983 104.226 559.017 104.352Z" fill="#D06644"/>
<path d="M605.659 255.921C605.659 255.921 602.125 267.41 605.116 267.213C610.36 266.867 641.173 267.883 662.955 273.174C662.955 273.174 666.478 274.416 659.835 266.828C653.191 259.241 610.695 252.705 605.659 255.921Z" fill="#9DC1C7"/>
<mask id="mask0_40_1485" style="mask-type:luminance" maskUnits="userSpaceOnUse" x="603" y="255" width="61" height="19">
<path d="M605.659 255.921C605.659 255.921 602.125 267.41 605.116 267.213C610.36 266.867 641.173 267.883 662.955 273.174C662.955 273.174 666.478 274.416 659.835 266.828C653.191 259.241 610.695 252.705 605.659 255.921Z" fill="white"/>
</mask>
<g mask="url(#mask0_40_1485)">
<path d="M609.669 256.176L609.388 270.151C609.383 270.435 609.608 270.67 609.892 270.676C610.176 270.682 610.411 270.456 610.417 270.172L610.698 256.197C610.704 255.913 610.478 255.678 610.194 255.672C609.91 255.666 609.675 255.892 609.669 256.176Z" fill="#5B8A9E"/>
<path d="M618.464 257.647L618.008 271.617C617.999 271.901 618.222 272.139 618.505 272.148C618.789 272.157 619.027 271.934 619.036 271.651L619.492 257.68C619.501 257.396 619.279 257.158 618.995 257.149C618.711 257.141 618.473 257.364 618.464 257.647Z" fill="#5B8A9E"/>
<path d="M627.807 257.643L627.065 271.601C627.05 271.884 627.268 272.127 627.551 272.142C627.835 272.157 628.077 271.939 628.092 271.656L628.834 257.698C628.849 257.415 628.631 257.172 628.348 257.157C628.065 257.142 627.822 257.359 627.807 257.643Z" fill="#5B8A9E"/>
<path d="M635.328 259.153L634.837 273.122C634.827 273.406 635.049 273.644 635.333 273.654C635.617 273.664 635.855 273.442 635.865 273.158L636.356 259.189C636.366 258.905 636.144 258.666 635.86 258.657C635.577 258.647 635.338 258.87 635.328 259.153Z" fill="#5B8A9E"/>
<path d="M643.506 259.266L642.857 273.228C642.844 273.512 643.063 273.753 643.347 273.766C643.631 273.779 643.871 273.56 643.885 273.276L644.534 259.314C644.547 259.03 644.328 258.789 644.044 258.776C643.76 258.762 643.519 258.982 643.506 259.266Z" fill="#5B8A9E"/>
<path d="M651.634 260.845L652.233 274.81C652.245 275.094 652.485 275.314 652.769 275.302C653.052 275.29 653.273 275.05 653.261 274.766L652.663 260.801C652.651 260.518 652.411 260.297 652.127 260.309C651.843 260.321 651.623 260.561 651.634 260.845Z" fill="#5B8A9E"/>
<path d="M658.657 264.121L659.198 278.088C659.209 278.371 659.448 278.593 659.732 278.582C660.016 278.571 660.237 278.332 660.226 278.048L659.685 264.081C659.674 263.797 659.435 263.576 659.151 263.587C658.867 263.598 658.646 263.837 658.657 264.121Z" fill="#5B8A9E"/>
</g>
<path d="M568.81 149.282C568.81 149.282 601.996 174.651 617.21 180.027C631.86 185.204 653.327 193.218 665.963 206.144C671.857 212.173 678.075 219.474 679.188 218.215C680.904 216.274 681.322 214.429 682.722 213.891C685.802 212.707 697.742 221.554 698.257 227.715C698.736 233.443 694.479 250.312 679.84 243.865C663.497 236.668 659.17 231.93 659.17 231.93C659.17 231.93 663.968 254.781 662.502 263.572C662.008 266.536 661.528 268.344 660.163 267.603C652.27 263.313 612.752 256.752 604.773 259.225C604.773 259.225 597.911 254.431 603.048 210.082C603.048 210.082 590.66 198.671 578.368 188.422C568.784 180.431 561.373 169.401 558.311 168.227C555.249 167.054 562.729 153.612 568.81 149.282Z" fill="#4E7B8E"/>
<path d="M551.679 154.441C551.679 154.441 564.268 155.346 567.754 148.672C567.754 148.672 572.353 148.372 575.067 152.584C578.682 158.193 561.386 171.451 557.48 167.882C550.927 161.892 549.677 156.341 551.679 154.441Z" fill="#9DC1C7"/>
<path d="M687.323 209.51C687.323 209.51 681.437 212.718 682.977 217.454C684.517 222.189 695.979 229.907 698.06 226.795C700.141 223.683 699.316 218.42 698.845 217.489C698.374 216.557 692.02 216.756 687.323 209.51Z" fill="#9DC1C7"/>
<path d="M678.81 219.203C678.81 219.203 677.422 227.859 681.361 234.207C679.882 229.281 679.041 224.278 678.81 219.203Z" fill="#3E6581"/>
<path d="M659.17 231.93C658.883 230.765 654.794 214.208 653.516 210.728C652.191 207.121 659.584 222.079 663.044 226.126C666.511 230.181 680.099 244.441 691.248 243.802C688.465 245.569 684.732 246.019 679.84 243.864C663.599 236.713 659.225 231.99 659.17 231.93Z" fill="#3E6581"/>
<path d="M609.264 235.269C609.264 235.269 622.997 256.433 651.389 257.705C651.389 257.705 631.927 255.106 609.264 235.269Z" fill="#3E6581"/>
<path d="M604.553 208.552C604.553 208.552 610.016 203.604 612.706 197.158L604.553 208.552Z" fill="#3E6581"/>
<path d="M608.627 187.901C608.627 187.901 609.476 200.249 604.551 206.415C604.551 206.415 608.54 194.257 608.627 187.901Z" fill="#3E6581"/>
<path d="M619.462 181.003C619.462 181.003 603.605 183.647 636.682 207.239C636.682 207.239 648.698 194.43 639.909 189.725C627.536 183.104 619.462 181.003 619.462 181.003Z" fill="#9DC1C7"/>
<path d="M620.973 182.104C620.973 182.104 609.28 182.501 636.222 203.787C636.222 203.787 645.162 194.279 638.065 189.714C628.118 183.315 620.973 182.104 620.973 182.104Z" fill="#E7F2F3"/>
<path d="M619.417 171.65C619.417 171.65 620.559 177.998 619.27 182.9C618.798 184.695 629.071 195.174 634.116 196.712C637.142 197.634 638.699 194.549 638.809 190.418C638.809 190.418 633.356 183.805 634.644 176.215C635.497 171.187 619.417 171.65 619.417 171.65Z" fill="#FECBA5"/>
<path d="M619.881 176.999C619.845 174.029 619.417 171.65 619.417 171.65C619.417 171.65 635.496 171.187 634.644 176.215C634.129 179.247 634.69 182.122 635.55 184.482C629.967 183.964 623.422 179.644 619.881 176.999Z" fill="#E58C6C"/>
<path d="M645.402 153.814C648.264 154.171 650.269 157.022 649.877 160.177C649.484 163.333 646.841 165.606 643.979 165.25C641.117 164.893 639.112 162.042 639.504 158.887C639.898 155.731 642.54 153.458 645.402 153.814Z" fill="#E58C6C"/>
<path d="M644.355 140.638C644.355 140.638 647.698 151.36 644.236 158.452C640.774 165.544 635.158 149.945 635.158 149.945L631.2 142.933L644.355 140.638Z" fill="#E09741"/>
<path d="M621.318 134.545C631.426 132.058 642.388 140.882 644.614 152.865C646.581 163.457 642.993 174.913 636.778 177.074C626.946 180.494 613.526 174.829 609.301 163.292C605.112 151.848 611.21 137.032 621.318 134.545Z" fill="#FECBA5"/>
<path d="M609.042 162.543C605.376 151.21 611.428 136.978 621.317 134.545C629.794 132.459 638.871 138.328 642.892 147.343C642.214 147.683 642.218 146.813 641.666 146.909C636.765 147.757 629.905 143.873 626.456 146.302C621.582 149.736 615.118 148.44 615.118 148.44C614.868 152.068 609.836 162.87 609.836 162.87C609.836 162.87 609.547 162.767 609.042 162.543Z" fill="#E58C6C"/>
<path d="M610.341 166.46C610.341 166.46 613.543 153.114 613.512 146.402C613.512 146.402 620.437 147.537 623.923 145.797C628.945 143.291 632.844 145.066 634.344 145.309C638.765 146.025 644.989 146.832 649.673 137.911C653.632 130.37 647.357 125.283 638.069 127.834C633.129 129.19 629.7 127.612 625.754 126.21C613.915 122.003 610.402 128.909 609.305 135.091C609.305 135.091 592.714 145.586 610.341 166.46Z" fill="#FDB44E"/>
<path d="M605.718 138.506C608.998 141.21 615.454 145.412 622.36 143.724C632.271 141.301 634.555 143.004 637.261 143.751C638.755 144.163 640.781 144.856 643.238 144.716C640.103 146.174 636.918 145.726 634.345 145.31C632.845 145.068 628.946 143.293 623.924 145.798C620.438 147.538 613.513 146.403 613.513 146.403C613.545 153.115 610.342 166.461 610.342 166.461C598.522 152.464 602.087 143.134 605.718 138.506Z" fill="#E09741"/>
<path d="M606.484 159.93C608.851 158.282 612.248 159.063 614.065 161.673C615.882 164.283 615.435 167.74 613.068 169.388C610.701 171.036 607.304 170.255 605.487 167.645C603.67 165.035 604.116 161.578 606.484 159.93Z" fill="#FECBA5"/>
<path d="M623.793 154.045C623.201 154.132 622.83 154.942 622.964 155.854C623.098 156.765 623.687 157.435 624.278 157.348C624.87 157.261 625.242 156.451 625.108 155.539C624.973 154.627 624.384 153.958 623.793 154.045Z" fill="#802419"/>
<path d="M638.005 152.976C637.408 153.012 636.969 153.789 637.026 154.708C637.082 155.628 637.613 156.344 638.209 156.308C638.806 156.272 639.244 155.495 639.188 154.576C639.132 153.657 638.601 152.939 638.005 152.976Z" fill="#802419"/>
<path d="M627.457 151.264C627.457 151.264 623.674 144.772 619.267 151.559C619.267 151.559 623.552 149.197 627.457 151.264Z" fill="#802419"/>
<path d="M642.237 150.121C642.237 150.121 638.712 144.221 634.877 150.439C634.877 150.439 639.028 148.158 642.237 150.121Z" fill="#802419"/>
<path d="M633.936 153.484C633.936 153.484 633.253 158.378 633.988 159.127C635.197 160.359 634.912 160.766 633.951 161.229C633.951 161.229 638.759 160.314 636.4 158.593C634.278 157.045 633.936 153.484 633.936 153.484Z" fill="#802419"/>
<path d="M635.457 163.793C634.113 163.519 628.845 162.308 627.039 162.096C625.208 161.881 625.041 169.128 629.664 170.307C633.985 171.408 637.227 164.154 635.457 163.793Z" fill="#802419"/>
<path d="M635.911 164.287C635.846 164.019 635.698 163.842 635.456 163.793C634.112 163.519 628.844 162.308 627.038 162.096C626.69 162.055 626.402 162.284 626.195 162.691C626.747 163.726 628.18 164.383 631.449 165.089C633.981 165.635 635.266 164.988 635.911 164.287Z" fill="white"/>
<path d="M426.588 366.748C426.588 366.748 443.678 421.636 453.836 414.22C463.994 406.804 479.115 357.492 479.115 357.492L469.135 354.817L454.7 382.312L450.669 358.757L426.588 366.748Z" fill="#EC9A6F"/>
<path d="M455.837 380.145L469.134 354.817L479.114 357.492C479.114 357.492 469.176 389.901 460.001 406.124C461.089 395.006 457.298 383.915 455.837 380.145Z" fill="#D06644"/>
<path d="M449.613 359.107C450.032 359.55 450.503 360.079 450.997 360.678L453.928 377.805C448.582 379.285 436.006 375.868 428.88 373.662C427.441 369.489 426.588 366.747 426.588 366.747L449.613 359.107Z" fill="#D06644"/>
<path d="M460.374 370.872C460.374 370.872 487.434 412.363 497.227 403.145C507.019 393.927 509.534 344.803 509.534 344.803L501.193 340.038L493.408 370.916L480.816 354.234L460.374 370.872Z" fill="#EC9A6F"/>
<path d="M487.655 363.292C481.825 368.348 469.809 373.727 464.008 376.161C461.757 372.989 460.376 370.872 460.376 370.872L480.817 354.234L487.655 363.292Z" fill="#D06644"/>
<path d="M499.388 337.367C500.872 332.339 502.734 330.672 506.642 332.211C514.576 335.335 536.725 352.308 532.561 354.947C527.858 357.928 520.049 355.831 513.085 352.605C503.876 348.338 497.779 342.818 499.388 337.367Z" fill="#EC9A6F"/>
<path d="M499.98 335.593C499.771 336.128 499.574 336.719 499.383 337.365C497.774 342.817 503.871 348.336 513.08 352.602C517.464 354.633 522.182 356.216 526.251 356.361C524.446 348.647 506.896 339.071 499.98 335.593Z" fill="#EC9A6F"/>
<path d="M526.252 356.362C528.646 356.457 530.814 356.05 532.557 354.945C536.72 352.306 514.572 335.333 506.638 332.209C503.233 330.868 501.381 331.962 499.981 335.593C506.895 339.071 524.458 348.644 526.252 356.362Z" fill="#629482"/>
<path d="M422.814 322.779C422.814 322.779 415.362 360.193 421.643 368.133C424.797 372.12 449.14 379.124 455.42 374.032L455.77 369.445L461.055 374.308C461.055 374.308 488.941 365.719 489.182 353.919C489.363 345.052 471.96 336.822 468.754 329.828C465.547 322.833 422.814 322.779 422.814 322.779Z" fill="#FDB44E"/>
<path d="M421.636 329.427C422.289 325.41 422.814 322.779 422.814 322.779C422.814 322.779 465.548 322.833 468.754 329.828C469.57 331.609 471.308 333.471 473.44 335.402C459.569 345.178 433.998 335.251 421.636 329.427Z" fill="#D88E4A"/>
<path d="M442.738 353.848C443.5 357.293 444.703 360.533 446.538 363.188C446.699 363.421 446.641 363.742 446.408 363.903C446.175 364.064 445.854 364.006 445.693 363.772C442.205 358.727 440.9 351.642 440.611 344.951C440.18 334.997 441.978 325.933 441.978 325.933C442.033 325.654 442.304 325.473 442.583 325.528C442.861 325.583 443.043 325.854 442.987 326.133C442.987 326.133 441.214 335.081 441.639 344.907C441.753 347.538 442.023 350.232 442.529 352.834C443.843 352.696 445.264 351.853 446.212 348.753C447.13 345.75 448.869 327.259 448.869 327.259C448.896 326.976 449.146 326.769 449.429 326.795C449.711 326.822 449.919 327.072 449.893 327.355C449.893 327.355 448.122 346.021 447.195 349.053C446.577 351.073 445.756 352.256 444.897 352.946C444.19 353.514 443.449 353.762 442.738 353.848Z" fill="#B96634"/>
<path d="M454.928 374.383C454.025 371.644 453.127 370.454 449.594 367.607C446.705 365.279 435.271 359.993 440.509 361.189C446.219 362.493 450.425 363.1 450.982 363.42C451.538 363.74 455.823 369.474 455.823 369.474L455.828 369.5L455.769 369.446L455.419 374.033C455.266 374.157 455.102 374.274 454.928 374.383Z" fill="#D88E4A"/>
<path d="M463.826 261.65C463.826 261.65 447.197 218.075 465.904 178.116C465.904 178.116 472.195 169.801 467.191 164.867C463.462 161.191 452.398 156.698 447.004 165.425C439.813 177.059 427.865 212.499 430.83 263.053C430.83 263.053 406.631 315.916 422.352 326.094C431.879 332.261 462.921 338.898 467.474 332.922C467.474 332.922 477.586 339.117 488.261 322.399C499.635 304.586 501.434 304.535 503.444 300.54C505.454 296.545 498.906 286.618 493.422 285.73C488.867 284.993 481.935 294.75 481.935 294.75C481.935 294.75 488.748 279.149 482.434 272.398C472.335 261.601 463.826 261.65 463.826 261.65Z" fill="#9ECBB4"/>
<path d="M448.57 246.606C448.57 246.606 436.188 254.045 432.7 260.834C432.7 260.834 434.844 251.777 448.57 246.606Z" fill="#629482"/>
<path d="M496.978 286.145C496.978 286.145 491.656 286.763 491.837 289.156C492.178 293.663 499.483 300.925 501.035 299.989C503.944 298.235 504.963 294.53 504.963 294.53L496.978 286.145Z" fill="#C7DCD3"/>
<path d="M455.798 158.135C455.798 158.135 451.63 161.501 453.061 163.427C455.757 167.055 465.892 169.327 466.624 167.669C467.356 166.012 467.401 162.545 467.401 162.545L455.798 158.135Z" fill="#C7DCD3"/>
<path d="M467.227 333.209C467.122 333.195 467.041 333.18 467.029 333.176C446.554 326.008 465.974 289.809 465.974 289.809C465.974 289.809 461.079 301.153 459.511 315.745C458.459 325.529 465.392 331.298 467.472 332.927C467.397 333.024 467.315 333.118 467.227 333.209Z" fill="#629482"/>
<path d="M482.497 293.34C482.217 294.093 482.009 294.59 481.942 294.746C480.102 296.83 473.974 303.841 473.2 305.675C472.288 307.838 470.187 305.479 471.382 312.318C471.382 312.318 466.99 307.268 471.351 305.164C471.352 305.166 478.113 296.993 482.497 293.34Z" fill="#629482"/>
<path d="M457.369 161.842C459.245 163.608 462.87 165.418 465.404 164.245C468.672 162.731 474.903 154.494 476.977 152.762C477.619 152.226 479.332 150.643 479.123 149.675C478.653 147.503 471.295 152.184 471.265 152.143C471.067 151.874 472.246 141.318 470.432 140.283C468.347 139.094 467.187 147.604 466.864 147.53C466.509 147.449 465.782 139.111 462.93 139.148C460.979 139.173 461.712 147.767 461.484 147.853C461.398 147.886 457.23 141.103 455.485 142.214C453.648 143.383 457.125 148.633 457.105 150.448C457.103 150.612 451.963 146.582 451.137 148.1C450.642 149.01 453.746 152.907 454.153 153.648C455.783 156.623 455.493 160.076 457.369 161.842Z" fill="#EC9A6F"/>
<path d="M497.235 287.751C496.965 286.654 496.983 284.753 497.942 280.68C498.605 277.863 499.855 276.755 501.002 275.978C503.524 274.27 505.005 277.284 505.397 277.194C505.767 277.108 510.233 272.743 513.582 276.696C514.874 278.221 513.69 279.369 513.69 279.369C513.69 279.369 515.766 279.184 516.838 281.089C517.881 282.944 516.21 284.811 516.21 284.811C516.21 284.811 517.751 285.334 517.216 287.318C516.816 288.8 515.492 289.311 515.492 289.311C515.492 289.311 516.918 289.421 516.405 291.478C515.888 293.551 515.252 293.86 512.556 294.572C510.079 295.226 505.063 295.742 502.92 294.819C499.176 293.206 497.975 290.767 497.235 287.751Z" fill="#EC9A6F"/>
<path d="M508.114 281.453C507.518 279.885 506.564 278.442 505.638 277.046C505.519 277.132 505.437 277.187 505.398 277.196C505.362 277.204 505.317 277.186 505.263 277.148C505.543 277.599 505.879 278.139 506.021 278.391C506.278 278.848 506.529 279.307 506.756 279.78C506.947 280.179 507.144 280.577 507.311 280.986C507.831 282.257 508.437 283.727 507.6 284.991C507.281 285.472 506.88 285.735 506.265 285.676C505.829 285.635 505.359 285.41 505.007 285.176C504.071 284.555 503.228 283.83 502.404 283.068C502.12 282.805 501.833 282.538 501.582 282.242C501.489 282.132 502.159 283.17 502.557 283.602C503.028 284.113 503.701 284.849 504.455 285.419C504.47 285.531 504.48 285.624 504.484 285.657C504.594 286.55 504.429 287.491 504.072 288.314C503.959 288.575 503.643 289.244 503.748 289.111C504.256 288.467 504.968 287.318 505.111 286.509C505.144 286.325 505.184 286.102 505.179 285.891C505.909 286.287 506.676 286.44 507.383 286.044C507.472 286.177 507.607 286.298 507.698 286.372C507.789 286.447 507.892 286.511 508.001 286.567C507.967 286.662 507.95 286.793 507.906 286.918C507.855 287.062 507.816 287.209 507.787 287.359C507.62 288.213 508.168 289.023 508.881 289.493C508.638 289.791 508.444 290.194 508.284 290.532C508.095 290.932 507.929 291.367 507.89 291.812C507.825 292.562 508.501 293.124 509.126 293.392C510.419 293.946 511.812 293.943 513.166 293.652C513.18 293.652 513.194 293.652 513.209 293.652L513.193 293.646C513.184 293.648 513.175 293.649 513.167 293.651C512.872 293.65 512.577 293.656 512.283 293.649C511.196 293.623 509.582 293.475 508.835 292.54C508.304 291.875 508.631 290.757 509.017 290.105C509.099 289.968 509.224 289.854 509.327 289.733C509.45 289.785 509.574 289.826 509.697 289.856C511.755 290.351 514.079 290.221 516.109 289.591C515.882 289.388 515.626 289.33 515.531 289.314C515.194 289.4 514.831 289.451 514.578 289.483C512.891 289.697 510.764 290.01 509.26 289.041C508.871 288.791 508.416 288.403 508.287 287.937C508.198 287.618 508.263 287.272 508.33 286.955C508.337 286.923 508.377 286.825 508.411 286.731C508.906 286.885 509.473 286.926 509.926 286.934C511.332 286.961 512.765 286.468 514.085 286.063C514.946 285.798 515.818 285.51 516.582 285.013C516.377 284.866 516.21 284.81 516.21 284.81C516.21 284.81 516.227 284.791 516.256 284.755C516.216 284.776 516.176 284.796 516.135 284.816C515.508 285.123 514.848 285.324 514.182 285.531C512.791 285.962 511.408 286.298 509.952 286.405C509.381 286.447 508.601 286.51 508.089 286.186C507.943 286.094 507.818 285.957 507.721 285.807C507.75 285.782 507.779 285.756 507.808 285.729C508.797 284.807 508.749 283.611 508.421 282.4C508.398 282.314 508.374 282.23 508.348 282.146C508.683 281.895 509.043 281.701 509.332 281.537C510.371 280.947 511.456 280.339 512.549 279.86C512.95 279.684 513.345 279.495 513.743 279.31C513.833 279.205 514.013 278.966 514.113 278.628C513.241 278.894 512.397 279.297 511.58 279.693C510.991 279.978 510.42 280.295 509.845 280.608C509.392 280.855 508.922 281.081 508.449 281.289C508.352 281.332 508.228 281.39 508.114 281.453Z" fill="#D06644"/>
<path d="M458.751 245.554C461.106 255.336 463.825 261.649 463.825 261.649C463.825 261.649 468.528 261.622 475.09 266.045C473.258 267.469 470.978 269.283 468.265 271.518C466.284 273.151 460.294 279.145 450.852 275.157C441.841 271.351 442.998 260.266 454.547 248.211C455.895 246.806 457.308 245.959 458.751 245.554Z" fill="#D06644"/>
<path d="M461.054 253.884C462.585 258.769 463.825 261.649 463.825 261.649C463.825 261.649 468.528 261.622 475.09 266.044C473.258 267.468 470.978 269.282 468.265 271.518C466.575 272.91 461.971 277.475 454.797 276.315C443.731 265.364 454.088 257.32 461.054 253.884Z" fill="#EC9A6F"/>
<path d="M470.477 257.505C470.477 257.505 465.559 260.265 466.99 263.871C468.681 268.134 449.709 269.25 451.562 263.156C452.251 260.888 454.797 259.198 457.335 252.339C459.658 246.06 470.477 257.505 470.477 257.505Z" fill="#EC9A6F"/>
<path d="M454.725 257.925C455.541 256.539 456.439 254.761 457.335 252.338C459.658 246.059 470.478 257.505 470.478 257.505C470.478 257.505 467.218 259.335 466.778 261.96C461.457 261.931 456.903 259.386 454.725 257.925Z" fill="#D06644"/>
<path d="M452.497 237.4C452.497 237.4 451.3 240.393 447.658 242.766C445.129 244.415 442.871 246.406 442.037 248.251C441.203 250.096 447.308 247.993 450.051 250.56C452.794 253.127 456.952 253.915 459.397 252.773C461.842 251.631 462.031 245.569 462.031 245.569L452.497 237.4Z" fill="#191919"/>
<path d="M457.906 231.214C460.502 232.948 461.154 236.534 459.363 239.216C457.571 241.899 454.008 242.668 451.413 240.934C448.817 239.2 448.164 235.614 449.956 232.932C451.748 230.25 455.31 229.48 457.906 231.214Z" fill="#D06644"/>
<path d="M488.296 216.874C498.305 223.04 499.221 238.42 492.001 250.139C484.781 261.858 466.626 263.774 457.849 256.942C451.008 251.617 448.415 241.691 455.636 229.972C462.857 218.253 478.287 210.707 488.296 216.874Z" fill="#EC9A6F"/>
<path d="M456.749 228.289C464.346 217.55 478.774 211.007 488.296 216.873C498.305 223.039 499.221 238.419 492.001 250.138C488.144 256.398 481.166 259.861 474.165 260.687C475.939 257.497 482.738 245.094 482.757 242.335C482.757 242.335 473.23 228.497 474.914 221.848C474.914 221.848 463.725 223.118 456.749 228.289Z" fill="#D06644"/>
<path d="M475.855 219.396C475.855 219.396 477.619 232.997 484.679 240.84C484.679 240.84 477.977 258.081 468.15 263.285C468.15 263.285 477.226 265.403 480.367 264.437C484.921 263.036 485.175 266.572 488.245 266.677C491.995 266.804 517.372 231.525 490.908 215.866C463.878 199.873 457.941 214.976 455.552 221.786C453.525 227.564 455.27 230.817 455.27 230.817C455.27 230.817 463.27 218.689 475.855 219.396Z" fill="#2D2C2A"/>
<path d="M502.8 236.948C502.368 251.741 490.694 266.76 488.244 266.677C485.174 266.573 484.92 263.036 480.366 264.437C477.225 265.403 468.149 263.285 468.149 263.285C477.976 258.081 484.678 240.84 484.678 240.84C482.897 238.861 481.453 236.516 480.29 234.116C489.483 236.257 497.802 236.825 502.8 236.948ZM455.009 223.616C456.399 224.552 457.822 225.422 459.268 226.232C456.688 228.668 455.269 230.817 455.269 230.817C455.269 230.817 453.891 228.246 455.009 223.616Z" fill="#191919"/>
<path d="M471.955 234.38C471.955 234.38 480.071 229.984 477.46 239.297C477.46 239.297 478.379 233.301 471.955 234.38Z" fill="#56181D"/>
<path d="M457.939 229.615C457.939 229.615 465.083 222.078 464.973 231.885C464.973 231.885 463.234 225.929 457.939 229.615Z" fill="#56181D"/>
<path d="M464.133 236.582C464.162 237.228 463.405 239.257 462.286 239.795C461.271 240.283 461.161 241.668 461.405 242.456C461.405 242.456 459.432 239.733 461.04 239.234C463.064 238.605 464.116 236.199 464.133 236.582Z" fill="#56181D"/>
<path d="M460.805 244.92C462.177 245.125 467.603 245.8 469.393 246.224C471.207 246.654 468.854 253.608 464.052 253.126C459.564 252.676 458.998 244.65 460.805 244.92Z" fill="#56181D"/>
<path d="M460.202 245.234C460.356 245.002 460.559 244.884 460.805 244.921C462.177 245.126 467.603 245.801 469.393 246.225C469.738 246.307 469.933 246.625 469.988 247.083C469.105 247.876 467.514 248.005 464.163 247.543C461.569 247.185 460.572 246.124 460.202 245.234Z" fill="white"/>
<path d="M462.395 234.914C462.395 234.914 460.451 229.441 457.044 234.381C458.652 233.413 460.404 233.383 462.395 234.914Z" fill="#56181D"/>
<path d="M474.249 242.789C474.249 242.789 475.678 236.314 468.991 238.838C471.284 238.949 473.135 240.047 474.249 242.789Z" fill="#56181D"/>
<path d="M292.927 84.1464C287.356 88.1004 279.198 100.369 281.672 127.722C284.436 158.294 279.4 153.056 273.601 160.02C267.803 166.983 264.726 174.29 274.618 182.062C284.509 189.835 284.393 192.767 284.067 197.062C283.741 201.357 287.57 208.048 300.473 204.328C317.174 199.513 323.839 210.98 330.598 207.439C337.357 203.898 371.813 185.732 373.215 174.708C374.616 163.684 369.606 153.459 361.283 153.407C352.96 153.355 353.484 143.64 355.218 138.295C356.953 132.95 344.485 126 340.829 122.274C337.174 118.548 334.834 109.506 335.823 106.12C336.813 102.733 329.405 92.3794 326.269 91.0434C323.133 89.7054 299.027 79.8174 292.927 84.1464Z" fill="#2B2C2C"/>
<path d="M282.08 106.188C293.229 116.092 317.987 133.594 351.655 131.131C354.198 133.565 355.94 136.07 355.218 138.296C353.483 143.641 352.96 153.356 361.283 153.408C369.606 153.459 374.616 163.684 373.215 174.708C371.813 185.732 337.357 203.898 330.598 207.439C323.839 210.98 317.173 199.514 300.473 204.329C287.569 208.05 283.741 201.357 284.067 197.062C284.393 192.768 284.509 189.836 274.618 182.062C264.726 174.29 267.803 166.984 273.601 160.021C279.4 153.057 284.436 158.295 281.672 127.723C280.893 119.124 281.167 112.015 282.08 106.188Z" fill="#191919"/>
<path d="M315.347 207.962C315.347 207.962 367.926 199.995 376.147 190.626C376.147 190.626 375.828 182.728 366.98 180.661C358.131 178.594 326.014 184.857 321.417 193.788C316.821 202.72 315.347 207.962 315.347 207.962Z" fill="#A07334"/>
<path d="M311.139 183.077C310.396 184.348 313.7 190.323 314.14 191.453C316.492 197.494 324.301 205.967 319.681 210.81C314.774 215.956 311.127 217.171 304.577 225.86C297.853 234.779 283.732 257.255 280.371 258.002C278.883 258.333 284.494 227.831 284.236 225.895C284.101 224.881 272.275 222.808 271.948 223.201C269.51 226.125 252.009 289.43 265.382 294.759C282.163 301.447 342.624 240.913 345.934 241.832C352.144 243.557 375.331 274.725 369.605 275.983C366.996 276.556 323.491 284.456 322.956 285.607C322.212 287.21 324.377 295.848 325.289 297.55C325.828 298.555 385.709 303.848 399.187 291.582C404.786 286.486 400.667 260.614 389.143 237.554C381.152 221.565 370.544 207.766 366.618 190.098C365.701 185.973 362.699 173.584 361.225 173.079C355.209 171.018 350.411 174.95 347.581 175.679C336.302 178.584 311.139 183.077 311.139 183.077Z" fill="#EC9A6F"/>
<path d="M320.686 209.315C331.197 206.49 354.999 201.035 371.403 204.434C376.392 215.828 383.435 226.131 389.143 237.552C400.668 260.612 404.787 286.484 399.187 291.58C390.389 299.587 361.816 300.112 342.883 299.231C336.6 295.006 334.932 287.708 337.602 282.138C350.672 279.505 367.989 276.337 369.605 275.982C375.33 274.724 352.143 243.556 345.933 241.831C342.623 240.912 282.161 301.446 265.381 294.758C257.213 291.503 260.564 266.619 264.965 247.073C270.872 240.991 277.417 239.841 281.742 243.468C280.601 251.049 279.649 258.162 280.372 258.001C283.733 257.254 297.853 234.778 304.578 225.859C311.129 217.171 314.775 215.955 319.682 210.809C320.126 210.343 320.455 209.843 320.686 209.315Z" fill="#04566F"/>
<path d="M344.642 242.364C346.621 240.449 350.619 238.533 352.056 237.717C352.697 237.354 354.354 236.05 355.167 236.05C355.219 236.05 355.56 237.641 355.581 237.707C356.018 239.031 356.563 240.332 357.127 241.606C358.548 244.819 360.355 247.824 362.097 250.869C364.396 254.887 366.891 258.721 369.855 262.283C372.151 265.044 375.672 268.403 377.097 271.788C378.321 274.694 375.037 276.461 372.713 277.121C369.467 278.043 364.412 278.544 360.202 277.771C365.216 276.825 368.901 276.137 369.605 275.982C375.331 274.724 352.143 243.556 345.934 241.831C345.724 241.773 345.285 241.961 344.642 242.364Z" fill="#0C4466"/>
<path d="M374.925 211.756C379.401 220.375 384.68 228.622 389.143 237.553C400.668 260.613 404.787 286.485 399.187 291.581C397.162 293.425 394.088 294.871 390.325 295.996C390.616 295.591 390.9 295.179 391.172 294.759C395.581 287.954 397.549 280.361 396.182 272.345C394.314 261.389 390.865 250.109 386.243 240.012C383.351 233.694 379.308 227.952 376.99 221.365C375.926 218.338 375.262 215.042 374.925 211.756Z" fill="#1F7B88"/>
<path d="M326.665 286.172C323.177 282.258 320.781 281.546 317.903 284.605C312.062 290.816 299.277 315.62 304.169 316.229C309.694 316.917 315.861 311.688 320.782 305.798C327.288 298.009 330.446 290.415 326.665 286.172Z" fill="#EC9A6F"/>
<path d="M325.368 284.824C325.785 285.219 326.216 285.669 326.665 286.172C330.447 290.415 327.289 298.01 320.782 305.798C317.684 309.506 314.093 312.952 310.475 314.819C308.815 307.071 320.599 290.921 325.368 284.824Z" fill="#EC9A6F"/>
<path d="M310.475 314.819C308.351 315.927 306.216 316.484 304.169 316.229C299.277 315.62 312.062 290.816 317.903 284.605C320.41 281.939 322.552 282.137 325.368 284.824C320.6 290.92 308.803 307.074 310.475 314.819Z" fill="#2B2C2C"/>
<path d="M285.071 226.585C289.046 223.167 289.801 220.784 286.793 217.853C280.686 211.902 256.113 198.681 255.417 203.561C254.631 209.073 259.75 215.331 265.552 220.355C273.224 226.999 280.761 230.291 285.071 226.585Z" fill="#EC9A6F"/>
<path d="M256.887 210.241C255.704 207.979 255.11 205.713 255.417 203.56C256.113 198.68 280.686 211.902 286.793 217.852C289.129 220.128 289.196 222.074 287.246 224.431C281.269 221.271 264.51 212.569 256.887 210.241Z" fill="#2B2C2C"/>
<path d="M363.264 110.472C363.484 104.775 365.521 100.298 364.933 96.5196C363.318 86.1606 348.487 72.1136 348.487 72.1136L353.167 66.5176C353.167 66.5176 381.618 86.7996 382.327 99.7446C382.449 101.959 381.617 110.198 380.55 113.026C372.892 133.314 363.191 112.37 363.264 110.472Z" fill="#EC9A6F"/>
<path d="M363.808 105.801C367.93 106.904 375.842 108.803 381.51 108.824C381.233 110.542 380.905 112.083 380.549 113.024C372.891 133.313 363.191 112.369 363.264 110.471C363.328 108.816 363.546 107.263 363.808 105.801Z" fill="#D06644"/>
<path d="M353.521 66.9633C353.521 66.9633 351.376 73.8893 350.988 73.9693C348.364 74.5073 337.377 73.7813 334.685 74.0203C333.852 74.0953 331.522 74.1853 330.986 73.3523C329.784 71.4833 338.298 69.5973 338.29 69.5463C338.24 69.2163 329.947 62.5793 330.5 60.5653C331.135 58.2513 337.97 63.4523 338.145 63.1723C338.339 62.8633 332.963 56.4503 335.007 54.4603C336.406 53.0993 341.959 59.6983 342.181 59.5993C342.265 59.5613 340.422 51.8173 342.442 51.3693C344.568 50.8983 345.817 57.0703 347.114 58.3403C347.232 58.4553 348.021 51.9713 349.678 52.4613C350.671 52.7553 351.229 57.7073 351.464 58.5183C352.411 61.7793 352.699 63.6703 353.521 66.9633Z" fill="#EC9A6F"/>
<path d="M277.449 120.564C277.449 120.564 264.674 105.891 263.535 103.301C262.232 100.339 262.197 95.6891 277.249 75.3711L272.94 69.3301C272.94 69.3301 246.19 90.0791 246.84 101.384C247.554 113.8 262.59 132.317 272.004 138.129C281.418 143.94 277.449 120.564 277.449 120.564Z" fill="#EC9A6F"/>
<path d="M273.489 115.952C275.726 118.585 277.449 120.563 277.449 120.563C277.449 120.563 281.418 143.939 272.005 138.128C269.29 136.452 266.107 133.719 262.936 130.38C267.91 128.456 272.038 119.468 273.489 115.952Z" fill="#D06644"/>
<path d="M271.949 69.9232C271.949 69.9232 274.382 76.7542 274.773 76.8172C277.418 77.2452 288.365 76.0592 291.064 76.1862C291.9 76.2252 294.231 76.2182 294.732 75.3632C295.855 73.4462 287.269 71.9172 287.275 71.8662C287.312 71.5342 295.319 64.5562 294.682 62.5672C293.951 60.2812 287.34 65.7642 287.152 65.4922C286.946 65.1922 292.049 58.5592 289.923 56.6572C288.469 55.3562 283.196 62.1822 282.97 62.0912C282.885 62.0572 284.402 54.2422 282.365 53.8792C280.221 53.4972 279.232 59.7172 277.989 61.0392C277.876 61.1592 276.816 54.7142 275.181 55.2732C274.201 55.6092 273.852 60.5792 273.65 61.3992C272.842 64.6972 272.633 66.5992 271.949 69.9232Z" fill="#EC9A6F"/>
<path d="M274.654 115.211C274.654 115.211 302.179 146.202 318.1 140.228C334.021 134.254 359.379 117.448 362.611 106.25L383.608 111.938C383.608 111.938 376.294 141.561 356.914 153.855C356.914 153.855 374.992 175.171 376.146 190.659C376.146 190.659 371.169 185.571 348.583 191.504C331.776 195.919 315.344 207.962 315.344 207.962C313.175 196.007 310.583 188.775 301.394 169.347L263.989 137.95C263.988 137.952 273.979 123.257 274.654 115.211Z" fill="#FDD553"/>
<path d="M356.74 152.581C354.175 148.812 352.219 144.586 348.988 141.286C347.529 139.796 342.912 136.156 342.969 136.07C343.104 135.868 347.779 138.439 348.845 139.258C354.242 143.402 356.74 152.581 356.74 152.581Z" fill="#BA7F11"/>
<path d="M357.762 150.909C357.867 151.059 356.964 146.833 356.714 145.589C356.081 142.436 355.3 139.335 354.318 136.271C354.214 135.947 353.409 133.318 353.409 133.318C353.409 133.318 355.568 136.025 356.335 138.321C357.615 142.152 357.762 150.909 357.762 150.909Z" fill="#BA7F11"/>
<path d="M303.948 168.241C303.952 168.281 304.31 167.855 304.315 167.848C304.602 167.472 304.872 167.084 305.138 166.693C305.848 165.647 306.406 164.406 306.864 163.231C307.401 161.855 308.28 160.704 308.809 156.622C309.315 152.719 308.567 147.847 308.567 147.847C308.567 147.847 308.039 150.939 307.866 152.203C307.387 155.705 306.739 159.26 305.813 162.675C305.619 163.391 304.575 165.906 304.575 165.906C304.575 165.906 304.878 160.862 304.281 157.741C303.346 152.851 301.676 146.844 301.032 146.807C300.878 146.798 302.439 152.336 303.21 157.719C303.974 163.057 303.948 168.241 303.948 168.241Z" fill="#BA7F11"/>
<path d="M333.472 100.665C336.483 99.8397 339.688 101.947 340.624 105.366C341.56 108.785 339.876 112.231 336.865 113.055C333.854 113.88 330.65 111.773 329.713 108.354C328.776 104.935 330.461 101.49 333.472 100.665Z" fill="#D06644"/>
<path d="M326.043 126.227C326.043 126.227 327.302 136.441 332.083 135.689C336.864 134.938 340.982 145.535 336.65 151.004C332.318 156.474 310.654 153.024 308.596 144.11C306.538 135.195 315.416 139.443 312.253 132.477C307.064 121.046 326.043 126.227 326.043 126.227Z" fill="#EC9A6F"/>
<path d="M312.538 133.156C312.456 132.942 312.362 132.716 312.254 132.477C307.065 121.046 326.044 126.228 326.044 126.228C326.044 126.228 326.555 130.372 328.162 133.187C323.706 135.065 316.3 133.93 312.538 133.156Z" fill="#D06644"/>
<path d="M302.903 86.4638C313.644 81.6848 326.855 89.6118 332.451 102.188C338.047 114.764 334.438 128.324 325.899 131.404C320.204 133.458 304.667 132.578 296.645 120.92C288.841 109.581 292.162 91.2438 302.903 86.4638Z" fill="#EC9A6F"/>
<path d="M299.265 124.109C298.327 123.148 297.448 122.088 296.644 120.92C288.841 109.581 292.162 91.2436 302.903 86.4636C313.108 81.9226 325.542 88.8516 331.556 100.34C330.53 99.4966 329.488 99.0016 329.488 99.0016C331.586 104.44 321.816 97.2466 321.816 97.2466C326.216 103.815 311.186 99.7286 311.186 99.7286C314.55 107.674 298.708 101.46 298.708 101.46C297.758 106.024 298.703 118.701 299.265 124.109Z" fill="#D06644"/>
<path d="M320.13 166.507C329.308 157.389 334.316 147.469 316.767 138.866C293.846 127.629 296.737 112.443 296.796 98.7315C296.796 98.7315 316.31 108.153 307.961 97.3665C307.961 97.3665 323.889 104.979 319.801 94.7645C319.801 94.7645 334.277 106.236 326.197 93.6515C326.197 93.6515 333.523 102.175 334.048 106.914C334.048 106.914 334.635 77.1285 317.556 74.7945C294.291 71.6145 288.692 92.3835 288.692 92.3835C288.692 92.3835 282.293 110.85 288.497 125.637C293.381 137.278 304.123 143.959 311.813 149.712C319.742 155.644 317.247 169.371 320.13 166.507Z" fill="#2B2C2C"/>
<path d="M310.117 106.634C310.117 106.634 303.183 100.541 303.656 110.202C303.656 110.202 304.094 104.152 310.117 106.634Z" fill="#56181D"/>
<path d="M329.456 102.96C329.456 102.96 323.58 94.3974 322.153 104.1C322.153 104.1 324.803 98.4904 329.456 102.96Z" fill="#56181D"/>
<path d="M320.764 106.122C320.764 106.122 320.388 111.375 322.825 112.367C324.423 113.018 323.309 114.61 322.577 115.386C322.577 115.386 327.837 113.055 325.101 112.036C320.962 110.495 320.764 106.122 320.764 106.122Z" fill="#56181D"/>
<path d="M324.344 117.405C322.917 117.392 317.301 117.204 315.415 117.346C313.504 117.491 314.773 124.928 319.726 125.212C324.356 125.478 326.221 117.421 324.344 117.405Z" fill="#56181D"/>
<path d="M324.906 117.819C324.787 117.558 324.6 117.406 324.344 117.404C322.917 117.391 317.301 117.203 315.415 117.345C315.052 117.373 314.803 117.664 314.673 118.12C315.442 119.068 317.036 119.454 320.512 119.525C323.204 119.58 324.387 118.664 324.906 117.819Z" fill="white"/>
<path d="M323.828 107.892C323.828 107.892 325.308 102.275 329.115 106.913C327.432 106.083 325.684 106.199 323.828 107.892Z" fill="#56181D"/>
<path d="M306.996 114.577C306.996 114.577 306.598 107.958 312.808 111.499C310.525 111.248 308.526 112.043 306.996 114.577Z" fill="#56181D"/>
<path d="M225.941 379.16C231.301 378.672 234.059 381.633 234.83 387.802C235.86 396.037 234.243 414.859 229.591 415.518C224.262 416.272 219.29 407.834 218.395 397.998C217.5 388.161 220.58 379.648 225.941 379.16Z" fill="#804E48"/>
<path d="M230.326 379.752C232.87 380.909 234.307 383.618 234.83 387.802C235.86 396.037 234.243 414.859 229.591 415.518C229.373 415.549 229.156 415.564 228.94 415.565C234.784 400.373 232.273 386.513 230.326 379.752Z" fill="#FFE9DA"/>
<path d="M218.772 395.941C218.772 395.941 222.19 395.685 226.355 393.576C226.917 393.291 227.143 392.604 226.858 392.042C226.573 391.479 225.886 391.254 225.324 391.539C221.623 393.414 218.594 393.665 218.594 393.665C217.965 393.714 217.496 394.264 217.545 394.893C217.594 395.521 218.144 395.99 218.772 395.941Z" fill="#FFE2D5"/>
<path d="M218.943 399.628C218.943 399.628 222.361 399.372 226.526 397.262C227.088 396.978 227.313 396.29 227.029 395.728C226.744 395.166 226.057 394.941 225.494 395.225C221.793 397.1 218.764 397.351 218.764 397.351C218.136 397.4 217.666 397.95 217.716 398.579C217.765 399.207 218.315 399.677 218.943 399.628Z" fill="#FFE2D5"/>
<path d="M219.136 403.068C219.136 403.068 222.554 402.813 226.719 400.702C227.282 400.418 227.507 399.73 227.222 399.168C226.937 398.606 226.25 398.381 225.688 398.665C221.987 400.54 218.958 400.791 218.958 400.791C218.329 400.84 217.86 401.39 217.909 402.019C217.957 402.647 218.507 403.117 219.136 403.068Z" fill="#FFE2D5"/>
<path d="M112.143 317.391C117.1 315.292 120.628 317.271 123.243 322.913C126.734 330.442 130.932 348.861 126.702 350.906C121.857 353.249 114.549 346.728 110.699 337.632C106.847 328.537 107.187 319.49 112.143 317.391Z" fill="#804E48"/>
<path d="M112.032 339.841C112.032 339.841 115.123 339.025 118.613 336.165C119.084 335.779 119.184 335.031 118.837 334.494C118.489 333.958 117.825 333.835 117.354 334.221C114.253 336.761 111.517 337.511 111.517 337.511C110.949 337.664 110.603 338.31 110.746 338.952C110.888 339.596 111.464 339.994 112.032 339.841Z" fill="#FFE2D5"/>
<path d="M113.391 342.544C113.391 342.544 116.482 341.727 119.972 338.868C120.443 338.482 120.543 337.733 120.196 337.197C119.849 336.66 119.184 336.538 118.713 336.924C115.612 339.464 112.876 340.214 112.876 340.214C112.308 340.367 111.962 341.013 112.105 341.656C112.247 342.298 112.823 342.697 113.391 342.544Z" fill="#FFE2D5"/>
<path d="M115.158 345.337C115.158 345.337 118.249 344.52 121.739 341.661C122.21 341.275 122.31 340.526 121.963 339.99C121.615 339.453 120.951 339.331 120.48 339.717C117.379 342.257 114.643 343.007 114.643 343.007C114.075 343.16 113.73 343.805 113.872 344.448C114.013 345.092 114.59 345.49 115.158 345.337Z" fill="#FFE2D5"/>
<path d="M114.009 316.778C118.004 315.871 120.969 318.007 123.243 322.913C126.734 330.442 130.932 348.861 126.702 350.906C126.39 351.057 126.068 351.171 125.737 351.25C126.035 327.892 117.61 319.354 114.009 316.778Z" fill="#FFE9DA"/>
<path d="M148.49 276.072C148.49 276.072 150.955 281.933 154.303 287.812C159.675 297.243 222.241 364.112 226.804 376.61C223.957 381.79 219.574 385.752 213.919 388.704C213.919 388.704 134.243 305.743 122.303 307.828C110.372 309.912 95.115 322.768 95.115 322.768L106.48 319.408C109.047 325.429 111.151 333.748 107.785 338.247C107.785 338.247 59.717 352.464 50.787 348.05C43.603 344.499 35.937 335.284 59.709 310.886C74.603 295.6 87.478 284.698 95.32 276.785C100.133 271.928 103.217 266.694 103.217 266.694L148.49 276.072Z" fill="#659DB4"/>
<path d="M106.481 319.408C107.139 320.953 107.767 322.648 108.28 324.392C94.3919 329.874 81.8819 338.359 83.4999 335.782C85.4389 332.694 95.1159 322.768 95.1159 322.768L106.481 319.408Z" fill="#4A7B9B"/>
<path d="M213.263 387.864C212.068 388.197 216.195 392.894 217.87 392.966C224.647 393.255 231.798 383.017 230.266 379.384C228.903 376.154 225.601 372.855 225.541 373.885C225.311 377.753 220.351 385.888 213.263 387.864Z" fill="#ABE1E8"/>
<path d="M107.149 338.459C106.709 339.62 113.007 337.907 114.056 336.6C118.303 331.31 114.137 319.865 110.302 318.948C106.893 318.133 102.362 319.629 103.156 320.288C106.137 322.763 109.755 331.578 107.149 338.459Z" fill="#ABE1E8"/>
<path d="M96.2789 275.789C100.539 271.239 103.217 266.694 103.217 266.694L148.489 276.073C148.489 276.073 149.755 279.083 151.705 282.952C134.07 288.727 105.507 279.205 96.2789 275.789Z" fill="#4A7B9B"/>
<path d="M123.114 270.816L124.121 271.024C123.241 275.096 121.646 283.442 121.249 292.063C121.128 294.69 121.117 297.344 121.272 299.907C121.311 299.896 121.352 299.888 121.394 299.886C122.046 299.852 123.209 299.7 124.368 298.888C125.559 298.055 126.73 296.534 127.392 293.8C128.384 289.701 130.107 278.057 130.914 272.431L131.923 272.64C131.108 278.309 129.384 289.94 128.392 294.042C127.649 297.112 126.296 298.795 124.958 299.731C123.589 300.689 122.217 300.873 121.446 300.913C121.41 300.915 121.375 300.913 121.341 300.908C121.532 303.338 121.882 305.671 122.442 307.808C122.394 307.814 122.348 307.82 122.302 307.828C122.016 307.878 121.728 307.935 121.438 307.996C120.212 303.246 119.965 297.575 120.221 292.015C120.621 283.333 122.226 274.928 123.114 270.816Z" fill="#325C80"/>
<path d="M185.585 250.612C185.585 250.612 193.544 242.786 194.667 231.1L190.067 227.33L183.905 242.88L185.585 250.612Z" fill="#AE3350"/>
<path d="M194.103 227.819L211.461 236.016C211.461 236.016 211.26 227.981 209.702 219.543L218.288 216.952C218.288 216.952 231.766 248.836 225.531 254.196C220.46 258.555 195.072 248.13 185.178 243.792C175.866 239.708 194.103 227.819 194.103 227.819Z" fill="#FECBA5"/>
<path d="M197.694 229.515C195.244 232.223 191.02 238.271 192.275 246.791C189.512 245.666 187.063 244.618 185.177 243.791C175.865 239.708 194.102 227.819 194.102 227.819L197.694 229.515Z" fill="#E58C6C"/>
<path d="M218.285 221.04C218.285 221.04 211.211 222.635 210.949 222.338C209.174 220.332 204.325 210.446 202.775 208.232C202.296 207.547 201.055 205.572 201.51 204.692C202.53 202.718 208.411 209.158 208.451 209.126C208.712 208.918 210.33 198.42 212.352 197.895C214.675 197.291 213.574 205.809 213.904 205.822C214.269 205.836 217.147 197.978 219.891 198.758C221.768 199.291 218.816 207.396 219.013 207.539C219.088 207.593 224.882 202.134 226.277 203.661C227.746 205.269 223.018 209.429 222.564 211.187C222.523 211.346 228.537 208.797 228.938 210.478C229.179 211.486 225.164 214.438 224.578 215.046C222.226 217.493 220.729 218.686 218.285 221.04Z" fill="#FECBA5"/>
<path d="M119.452 186.185C119.452 186.185 73.276 134.632 72.323 134.667C71.37 134.702 64.632 144.846 64.632 144.846C64.632 144.846 103.015 187.783 109.848 201.778L119.452 186.185Z" fill="#FECBA5"/>
<path d="M115.391 181.657C117.913 184.466 119.452 186.184 119.452 186.184L109.848 201.777C108.477 198.97 105.837 194.997 102.489 190.438C105.804 185.722 111.663 182.995 115.391 181.657Z" fill="#E58C6C"/>
<path d="M72.868 136.331C72.868 136.331 74.295 135.193 74.104 131.013C73.973 128.122 72.948 126.802 71.964 125.827C69.8 123.683 67.789 126.372 67.42 126.211C67.072 126.059 63.489 120.944 59.467 124.211C57.916 125.471 58.868 126.818 58.868 126.818C58.868 126.818 56.862 126.253 55.457 127.927C54.089 129.558 55.387 131.701 55.387 131.701C55.387 131.701 53.776 131.932 53.936 133.98C54.056 135.51 55.262 136.256 55.262 136.256C55.262 136.256 53.84 136.101 53.966 138.218C54.092 140.35 54.659 140.772 57.177 141.969C59.49 143.069 62.638 144.641 65.227 145.179C66.241 145.388 72.868 136.331 72.868 136.331Z" fill="#FECBA5"/>
<path d="M63.967 129.894C64.842 128.463 66.046 127.221 67.213 126.02C67.315 126.127 67.385 126.196 67.421 126.211C67.455 126.226 67.502 126.217 67.562 126.189C67.205 126.581 66.774 127.049 66.588 127.271C66.251 127.672 65.919 128.078 65.609 128.5C65.347 128.857 65.082 129.212 64.841 129.583C64.096 130.736 63.228 132.069 63.817 133.466C64.041 133.997 64.388 134.33 65.002 134.386C65.439 134.426 65.942 134.291 66.33 134.126C67.365 133.689 68.327 133.132 69.278 132.535C69.606 132.329 69.937 132.12 70.238 131.875C70.35 131.784 69.499 132.681 69.029 133.032C68.472 133.447 67.674 134.046 66.828 134.468C66.792 134.575 66.766 134.665 66.756 134.697C66.483 135.555 66.472 136.509 66.67 137.385C66.733 137.662 66.919 138.378 66.841 138.228C66.461 137.502 65.973 136.241 65.982 135.42C65.984 135.233 65.985 135.007 66.029 134.8C65.238 135.054 64.456 135.063 63.834 134.543C63.722 134.658 63.567 134.752 63.465 134.808C63.361 134.864 63.249 134.909 63.131 134.944C63.147 135.043 63.139 135.176 63.16 135.306C63.184 135.457 63.195 135.609 63.196 135.762C63.203 136.632 62.515 137.328 61.727 137.658C61.911 137.996 62.027 138.427 62.122 138.789C62.234 139.217 62.317 139.675 62.273 140.119C62.199 140.869 61.43 141.296 60.766 141.444C59.393 141.749 58.024 141.489 56.748 140.954C56.734 140.951 56.72 140.949 56.706 140.946L56.723 140.943C56.731 140.947 56.74 140.951 56.748 140.954C57.038 141.007 57.326 141.067 57.617 141.114C58.691 141.289 60.304 141.441 61.21 140.661C61.856 140.105 61.739 138.946 61.481 138.234C61.426 138.084 61.324 137.949 61.245 137.811C61.115 137.84 60.985 137.857 60.858 137.864C58.744 137.97 56.484 137.414 54.605 136.42C54.866 136.262 55.128 136.252 55.224 136.255C55.539 136.402 55.886 136.518 56.129 136.597C57.748 137.118 59.78 137.819 61.437 137.144C61.865 136.97 62.384 136.672 62.597 136.239C62.743 135.941 62.743 135.59 62.736 135.266C62.735 135.233 62.714 135.129 62.698 135.03C62.183 135.089 61.618 135.025 61.172 134.95C59.785 134.717 58.467 133.968 57.245 133.326C56.448 132.907 55.644 132.462 54.985 131.833C55.213 131.727 55.388 131.702 55.388 131.702C55.388 131.702 55.375 131.68 55.353 131.64C55.388 131.668 55.424 131.695 55.46 131.722C56.019 132.14 56.631 132.459 57.247 132.785C58.534 133.465 59.832 134.051 61.243 134.425C61.796 134.571 62.551 134.777 63.115 134.553C63.276 134.489 63.424 134.379 63.547 134.248C63.523 134.218 63.499 134.188 63.475 134.156C62.673 133.067 62.941 131.901 63.487 130.77C63.526 130.691 63.565 130.612 63.605 130.534C63.322 130.225 63.004 129.968 62.75 129.754C61.838 128.983 60.883 128.184 59.898 127.512C59.536 127.265 59.183 127.005 58.826 126.752C58.757 126.632 58.625 126.364 58.588 126.013C59.396 126.435 60.151 126.987 60.881 127.527C61.407 127.916 61.91 128.332 62.417 128.746C62.818 129.072 63.238 129.381 63.663 129.673C63.755 129.732 63.865 129.812 63.967 129.894Z" fill="#A92707"/>
<path d="M117.897 182.014C117.897 182.014 136.174 204.765 153.037 209.725C169.901 214.686 190.158 224.214 196.039 228.466C189.56 233.739 186.882 242.021 185.511 250.621L164.465 241.545C164.465 241.545 155.087 253.147 153.143 265.531C151.69 274.784 151.936 281.52 151.936 281.52C124.386 282.359 104.512 275.765 98.212 272.098C98.212 272.098 99.448 244.86 116.385 217.109L103.536 202.594C105.417 192.902 109.658 185.509 117.897 182.014Z" fill="#FE7680"/>
<path d="M164.505 240.904C164.505 240.904 164.222 231.811 166.159 222.262C166.159 222.262 160.681 233.357 164.505 240.904Z" fill="#AE3350"/>
<path d="M148.581 264.477C148.581 264.477 124.085 273.764 104.009 268.433C104.009 268.433 124.828 269.902 148.581 264.477Z" fill="#AE3350"/>
<path d="M116.739 216.791C116.739 216.791 123.718 207.874 130.215 205.838C130.215 205.838 119.791 207.281 116.739 216.791Z" fill="#AE3350"/>
<path d="M144.416 233.52C145.44 232.995 153.497 237.591 155.574 238.263C156.884 238.687 151.921 247.213 150.578 247.785C149.235 248.356 146.083 249.209 143.833 248.37C141.949 247.668 140.092 243.697 140.643 241.917C141.195 240.138 142.844 234.326 144.416 233.52Z" fill="#FFA09C"/>
<path d="M147.065 219.376C147.065 219.376 141.565 229.686 140.653 232.105C140.276 233.104 136.269 231.914 136.498 230.346C136.848 227.958 139.894 221.785 142.752 217.779C143.768 216.354 147.065 219.376 147.065 219.376Z" fill="#FFE8E6"/>
<path d="M142.573 222.12C143.276 222.198 143.782 222.848 143.702 223.57C143.622 224.293 142.986 224.817 142.283 224.739C141.58 224.661 141.074 224.011 141.154 223.288C141.234 222.566 141.87 222.042 142.573 222.12Z" fill="#7B283F"/>
<path d="M140.257 226.707C140.96 226.785 141.466 227.435 141.386 228.158C141.306 228.881 140.67 229.404 139.967 229.327C139.264 229.249 138.758 228.599 138.838 227.876C138.918 227.153 139.554 226.629 140.257 226.707Z" fill="#7B283F"/>
<path d="M143.56 220.347C143.56 220.347 156.884 218.886 160.494 227.317C160.494 227.317 169.387 213.471 158.494 207.664C144.784 200.355 134.328 206.852 128.376 214.431C128.376 214.431 139.769 211.748 143.56 220.347Z" fill="#FFE8E6"/>
<path d="M164.809 202.583C164.809 202.583 160.025 208.032 160.619 212.845C161.317 218.502 147.428 220.614 143.374 220.61C143.374 220.61 139.028 212.507 143.605 206.445C143.605 206.445 146.547 205.612 149.08 199.932C151.613 194.252 164.809 202.583 164.809 202.583Z" fill="#FECBA5"/>
<path d="M145.913 204.829C146.875 203.857 148.014 202.324 149.08 199.933C151.612 194.253 164.809 202.584 164.809 202.584C164.809 202.584 163.39 204.201 162.193 206.451C154.878 207.517 149.003 205.97 145.913 204.829Z" fill="#E58C6C"/>
<path d="M144.843 172.213C147.846 173.066 149.498 176.527 148.53 179.937C147.562 183.347 144.337 185.423 141.334 184.571C138.331 183.718 136.679 180.257 137.648 176.847C138.616 173.437 141.84 171.361 144.843 172.213Z" fill="#E58C6C"/>
<path d="M174.276 156.205C185.128 160.726 188.132 176.523 182.497 190.05C176.862 203.577 159.126 207.263 149.368 203.003C141.7 199.655 137.737 189.476 143.372 175.949C149.006 162.422 163.423 151.684 174.276 156.205Z" fill="#FECBA5"/>
<path d="M144.993 172.239C151.754 161.527 164.964 152.326 174.276 156.205C185.128 160.726 188.132 176.523 182.497 190.05C181.79 191.746 180.893 193.288 179.845 194.679C179.058 194.734 177.387 194.31 177.252 194.346C177.252 194.346 169.866 187.649 175.608 174.774C175.608 174.774 147.524 170.695 160.738 167.97C160.738 167.97 149.932 170.017 152.849 166.654C152.849 166.654 148.289 169.04 144.993 172.239Z" fill="#E58C6C"/>
<path d="M178.94 197.371C178.94 197.371 168.024 187.991 178.926 172.024C178.926 172.024 168.906 172.115 163.594 170.236C159.986 168.959 163.034 167.438 166.085 166.462C166.085 166.462 149.657 167.174 156.121 163.031C156.121 163.031 149.656 164.198 144.421 173.773C144.421 173.773 144.393 149.666 167.735 151.629C167.735 151.629 163.732 150.705 161.216 150.547C158.7 150.389 164.366 147.006 172.361 149.516C180.357 152.027 186.81 154.501 185.968 164.036C185.968 164.036 206.249 173.737 178.94 197.371Z" fill="#A92707"/>
<path d="M176.131 176.929C182.092 178.625 187.861 179.702 192.296 180.367C190.692 184.956 186.774 190.59 178.939 197.37C178.939 197.37 170.238 189.894 176.131 176.929ZM148.403 160.06C149.442 161.776 150.738 163.356 152.235 164.811C149.963 166.3 147.038 168.986 144.42 173.774C144.42 173.774 144.411 166.337 148.403 160.06Z" fill="#802419"/>
<path d="M183.037 193.13C185.531 195.007 185.826 198.831 183.694 201.663C181.562 204.495 177.807 205.271 175.312 203.393C172.818 201.516 172.523 197.692 174.655 194.86C176.787 192.028 180.543 191.253 183.037 193.13Z" fill="#FECBA5"/>
<path d="M166.031 186.139C166.604 186.309 166.857 187.164 166.595 188.047C166.333 188.93 165.655 189.509 165.082 189.339C164.509 189.169 164.256 188.314 164.518 187.431C164.779 186.548 165.457 185.969 166.031 186.139Z" fill="#802419"/>
<path d="M152.097 179.912C152.67 180.082 152.923 180.937 152.661 181.82C152.399 182.703 151.721 183.282 151.148 183.112C150.575 182.942 150.322 182.087 150.584 181.204C150.846 180.321 151.524 179.742 152.097 179.912Z" fill="#802419"/>
<path d="M165.147 182.354C165.147 182.354 172.71 177.061 171.176 186.611C171.176 186.611 171.406 180.55 165.147 182.354Z" fill="#802419"/>
<path d="M149.667 175.49C149.667 175.49 157.629 168.838 156.356 178.58C156.356 178.58 155.343 172.45 149.667 175.49Z" fill="#802419"/>
<path d="M157.128 182.924C157.128 182.924 155.05 187.778 154.054 188.108C152.415 188.65 153.326 190.285 153.969 191.136C153.969 191.136 149.038 188.385 151.829 187.528C153.621 186.978 157.128 182.924 157.128 182.924Z" fill="#802419"/>
<path d="M152.057 192.941C153.606 193.102 159.716 193.612 161.748 193.962C163.807 194.317 161.715 200.627 156.315 200.279C151.268 199.954 150.019 192.73 152.057 192.941Z" fill="#802419"/>
<path d="M151.407 193.234C151.562 193.022 151.779 192.913 152.057 192.941C153.606 193.102 159.716 193.612 161.748 193.962C162.14 194.03 162.382 194.313 162.478 194.725C161.553 195.456 159.787 195.601 156.009 195.244C153.084 194.968 151.889 194.03 151.407 193.234Z" fill="white"/>
</svg>
