<svg width="238" height="58" viewBox="0 0 238 58" fill="none" xmlns="http://www.w3.org/2000/svg">
<path d="M83.728 19.632C83.728 19.792 83.664 19.936 83.536 20.064C83.44 20.16 83.312 20.208 83.152 20.208H73.12C72.96 20.208 72.88 20.288 72.88 20.448V28.032C72.88 28.192 72.96 28.272 73.12 28.272H78.88C79.04 28.272 79.168 28.336 79.264 28.464C79.392 28.56 79.456 28.688 79.456 28.848V33.504C79.456 33.664 79.392 33.808 79.264 33.936C79.168 34.032 79.04 34.08 78.88 34.08H73.12C72.96 34.08 72.88 34.16 72.88 34.32V41.952C72.88 42.112 72.96 42.192 73.12 42.192H83.152C83.312 42.192 83.44 42.256 83.536 42.384C83.664 42.48 83.728 42.608 83.728 42.768V47.424C83.728 47.584 83.664 47.728 83.536 47.856C83.44 47.952 83.312 48 83.152 48H66.688C66.528 48 66.384 47.952 66.256 47.856C66.16 47.728 66.112 47.584 66.112 47.424V14.976C66.112 14.816 66.16 14.688 66.256 14.592C66.384 14.464 66.528 14.4 66.688 14.4H83.152C83.312 14.4 83.44 14.464 83.536 14.592C83.664 14.688 83.728 14.816 83.728 14.976V19.632ZM95.4663 48.384C92.6503 48.384 90.4262 47.664 88.7943 46.224C87.1943 44.784 86.3943 42.816 86.3943 40.32V31.008C86.3943 28.576 87.1943 26.624 88.7943 25.152C90.4262 23.68 92.6503 22.944 95.4663 22.944C98.2823 22.944 100.49 23.664 102.09 25.104C103.722 26.544 104.538 28.416 104.538 30.72V31.584C104.538 31.744 104.474 31.888 104.346 32.016C104.25 32.112 104.122 32.16 103.962 32.16L98.3463 32.4C97.9623 32.4 97.7703 32.208 97.7703 31.824V31.248C97.7703 30.544 97.5463 29.952 97.0983 29.472C96.6823 28.992 96.1383 28.752 95.4663 28.752C94.7623 28.752 94.2023 29.008 93.7863 29.52C93.3703 30.032 93.1623 30.704 93.1623 31.536V39.792C93.1623 40.624 93.3703 41.296 93.7863 41.808C94.2023 42.32 94.7623 42.576 95.4663 42.576C96.1383 42.576 96.6823 42.336 97.0983 41.856C97.5463 41.344 97.7703 40.752 97.7703 40.08V39.456C97.7703 39.296 97.8183 39.168 97.9143 39.072C98.0423 38.944 98.1863 38.88 98.3463 38.88L103.962 38.928C104.122 38.928 104.25 38.992 104.346 39.12C104.474 39.216 104.538 39.344 104.538 39.504V40.608C104.538 42.976 103.722 44.864 102.09 46.272C100.49 47.68 98.2823 48.384 95.4663 48.384ZM119.015 22.944C121.191 22.944 122.823 23.664 123.911 25.104C124.999 26.544 125.543 28.56 125.543 31.152V47.424C125.543 47.584 125.479 47.728 125.351 47.856C125.255 47.952 125.127 48 124.967 48H119.351C119.191 48 119.047 47.952 118.919 47.856C118.823 47.728 118.775 47.584 118.775 47.424V31.68C118.775 30.752 118.583 30.032 118.199 29.52C117.847 29.008 117.319 28.752 116.615 28.752C115.879 28.752 115.303 29.024 114.887 29.568C114.503 30.08 114.311 30.816 114.311 31.776V47.424C114.311 47.584 114.247 47.728 114.119 47.856C114.023 47.952 113.895 48 113.735 48H108.119C107.959 48 107.815 47.952 107.687 47.856C107.591 47.728 107.543 47.584 107.543 47.424V14.976C107.543 14.816 107.591 14.688 107.687 14.592C107.815 14.464 107.959 14.4 108.119 14.4H113.735C113.895 14.4 114.023 14.464 114.119 14.592C114.247 14.688 114.311 14.816 114.311 14.976V24.816C114.311 24.912 114.343 24.96 114.407 24.96C114.503 24.96 114.615 24.896 114.743 24.768C115.767 23.552 117.191 22.944 119.015 22.944ZM137.796 48.384C134.948 48.384 132.707 47.664 131.076 46.224C129.476 44.784 128.676 42.816 128.676 40.32V31.008C128.676 28.576 129.492 26.624 131.124 25.152C132.756 23.68 134.98 22.944 137.796 22.944C140.644 22.944 142.884 23.68 144.516 25.152C146.148 26.624 146.964 28.576 146.964 31.008V40.32C146.964 42.816 146.148 44.784 144.516 46.224C142.916 47.664 140.676 48.384 137.796 48.384ZM137.796 42.528C138.5 42.528 139.076 42.272 139.523 41.76C139.972 41.248 140.196 40.592 140.196 39.792V31.488C140.196 30.688 139.972 30.032 139.523 29.52C139.076 29.008 138.5 28.752 137.796 28.752C137.092 28.752 136.516 29.008 136.068 29.52C135.652 30.032 135.444 30.688 135.444 31.488V39.792C135.444 40.592 135.652 41.248 136.068 41.76C136.516 42.272 137.092 42.528 137.796 42.528ZM175.503 14.784C175.631 14.528 175.871 14.4 176.223 14.4H181.791C181.951 14.4 182.079 14.464 182.175 14.592C182.303 14.688 182.367 14.816 182.367 14.976V47.424C182.367 47.584 182.303 47.728 182.175 47.856C182.079 47.952 181.951 48 181.791 48H176.175C176.015 48 175.871 47.952 175.743 47.856C175.647 47.728 175.599 47.584 175.599 47.424V25.872C175.599 25.744 175.567 25.68 175.503 25.68C175.439 25.68 175.375 25.728 175.311 25.824L171.567 32.448C171.407 32.704 171.279 32.832 171.183 32.832C171.087 32.832 170.959 32.704 170.799 32.448L167.055 25.824C166.991 25.728 166.927 25.68 166.863 25.68C166.799 25.68 166.767 25.744 166.767 25.872V47.424C166.767 47.584 166.703 47.728 166.575 47.856C166.479 47.952 166.351 48 166.191 48H160.575C160.415 48 160.271 47.952 160.143 47.856C160.047 47.728 159.999 47.584 159.999 47.424V14.976C159.999 14.816 160.047 14.688 160.143 14.592C160.271 14.464 160.415 14.4 160.575 14.4H166.095C166.415 14.4 166.655 14.528 166.815 14.784L171.087 22.416C171.183 22.544 171.279 22.544 171.375 22.416L175.503 14.784ZM189.56 20.544C188.472 20.544 187.56 20.192 186.824 19.488C186.12 18.752 185.768 17.84 185.768 16.752C185.768 15.632 186.12 14.72 186.824 14.016C187.528 13.312 188.44 12.96 189.56 12.96C190.68 12.96 191.576 13.312 192.248 14.016C192.952 14.72 193.304 15.632 193.304 16.752C193.304 17.84 192.952 18.752 192.248 19.488C191.544 20.192 190.648 20.544 189.56 20.544ZM186.824 48C186.664 48 186.52 47.952 186.392 47.856C186.296 47.728 186.248 47.584 186.248 47.424V23.904C186.248 23.744 186.296 23.616 186.392 23.52C186.52 23.392 186.664 23.328 186.824 23.328H192.44C192.6 23.328 192.728 23.392 192.824 23.52C192.952 23.616 193.016 23.744 193.016 23.904V47.424C193.016 47.584 192.952 47.728 192.824 47.856C192.728 47.952 192.6 48 192.44 48H186.824ZM208.124 22.944C210.3 22.944 211.932 23.664 213.02 25.104C214.108 26.544 214.652 28.56 214.652 31.152V47.424C214.652 47.584 214.588 47.728 214.46 47.856C214.364 47.952 214.236 48 214.076 48H208.46C208.3 48 208.156 47.952 208.028 47.856C207.932 47.728 207.884 47.584 207.884 47.424V31.68C207.884 30.752 207.692 30.032 207.308 29.52C206.956 29.008 206.428 28.752 205.724 28.752C204.988 28.752 204.412 29.024 203.996 29.568C203.612 30.08 203.42 30.816 203.42 31.776V47.424C203.42 47.584 203.356 47.728 203.228 47.856C203.132 47.952 203.004 48 202.844 48H197.228C197.068 48 196.924 47.952 196.796 47.856C196.7 47.728 196.652 47.584 196.652 47.424V23.904C196.652 23.744 196.7 23.616 196.796 23.52C196.924 23.392 197.068 23.328 197.228 23.328H202.844C203.004 23.328 203.132 23.392 203.228 23.52C203.356 23.616 203.42 23.744 203.42 23.904V24.816C203.42 24.912 203.452 24.96 203.516 24.96C203.612 24.96 203.724 24.896 203.852 24.768C204.876 23.552 206.3 22.944 208.124 22.944ZM229.065 14.976C229.065 14.816 229.113 14.688 229.209 14.592C229.337 14.464 229.481 14.4 229.641 14.4H235.257C235.417 14.4 235.545 14.464 235.641 14.592C235.769 14.688 235.833 14.816 235.833 14.976V47.424C235.833 47.584 235.769 47.728 235.641 47.856C235.545 47.952 235.417 48 235.257 48H229.641C229.481 48 229.337 47.952 229.209 47.856C229.113 47.728 229.065 47.584 229.065 47.424V46.656C229.065 46.56 229.033 46.512 228.969 46.512C228.905 46.48 228.841 46.496 228.777 46.56C227.689 47.776 226.249 48.384 224.457 48.384C222.249 48.384 220.585 47.68 219.465 46.272C218.345 44.832 217.785 42.848 217.785 40.32V31.008C217.785 28.416 218.345 26.432 219.465 25.056C220.617 23.648 222.281 22.944 224.457 22.944C225.161 22.944 225.897 23.088 226.665 23.376C227.433 23.632 228.137 24.112 228.777 24.816C228.841 24.88 228.905 24.912 228.969 24.912C229.033 24.88 229.065 24.816 229.065 24.72V14.976ZM226.809 42.576C227.385 42.576 227.881 42.384 228.297 42C228.713 41.616 228.969 41.104 229.065 40.464V30.864C228.969 30.224 228.713 29.712 228.297 29.328C227.881 28.944 227.385 28.752 226.809 28.752C226.137 28.752 225.593 29.008 225.177 29.52C224.761 30.032 224.553 30.688 224.553 31.488V39.84C224.553 40.64 224.761 41.296 225.177 41.808C225.593 42.32 226.137 42.576 226.809 42.576Z" fill="white"/>
<path fill-rule="evenodd" clip-rule="evenodd" d="M38.7086 32.4111C40.0424 30.076 40.8046 27.3737 40.8046 24.4936C40.8046 15.651 33.6207 8.48263 24.759 8.48263C15.8973 8.48263 8.71347 15.651 8.71347 24.4936C8.71347 33.3362 15.8973 40.5046 24.759 40.5046C27.0915 40.5046 29.3076 40.008 31.3071 39.115L23.1651 30.4786L30.4446 23.6453L38.7086 32.4111Z" fill="#C83E8A"/>
<path d="M50.519 46.6859L30.59 25.3419L24.759 30.7629L44.688 52.1069L50.519 46.6859Z" fill="#C83E8A"/>
<path d="M15.3026 33.2991C14.1385 32.0652 13.2294 30.6146 12.6271 29.03C12.0248 27.4456 11.7412 25.7582 11.7924 24.0643C11.8436 22.3704 12.2287 20.7031 12.9257 19.1578C13.6227 17.6124 14.6179 16.2191 15.8545 15.0575C17.0911 13.8959 18.5448 12.9887 20.1327 12.3878C21.7207 11.7868 23.4116 11.5038 25.1093 11.5549C26.8068 11.606 28.4775 11.9903 30.0263 12.6858C31.575 13.3812 32.9713 14.3742 34.1354 15.6083L24.719 24.4536L15.3026 33.2991Z" fill="white"/>
<path d="M52.7383 54.8617L45.5652 52.8701L51.1573 47.6016L52.7383 54.8617Z" fill="#C83E8A"/>
<path d="M24.9715 7.63437C27.0843 7.63437 28.797 5.92536 28.797 3.81718C28.797 1.70901 27.0843 0 24.9715 0C22.8588 0 21.1461 1.70901 21.1461 3.81718C21.1461 5.92536 22.8588 7.63437 24.9715 7.63437Z" fill="#C83E8A"/>
<path d="M24.9715 7.63437C27.0843 7.63437 28.797 5.92536 28.797 3.81718C28.797 1.70901 27.0843 0 24.9715 0C22.8588 0 21.1461 1.70901 21.1461 3.81718C21.1461 5.92536 22.8588 7.63437 24.9715 7.63437Z" fill="#C83E8A"/>
<path d="M3.82543 28.6289C5.93815 28.6289 7.65085 26.9199 7.65085 24.8117C7.65085 22.7035 5.93815 20.9945 3.82543 20.9945C1.7127 20.9945 0 22.7035 0 24.8117C0 26.9199 1.7127 28.6289 3.82543 28.6289Z" fill="#C83E8A"/>
<path d="M3.82543 28.6289C5.93815 28.6289 7.65085 26.9199 7.65085 24.8117C7.65085 22.7035 5.93815 20.9945 3.82543 20.9945C1.7127 20.9945 0 22.7035 0 24.8117C0 26.9199 1.7127 28.6289 3.82543 28.6289Z" fill="#C83E8A"/>
<path d="M26.778 19.298C27.893 19.298 28.797 18.396 28.797 17.2834C28.797 16.1707 27.893 15.2687 26.778 15.2687C25.6629 15.2687 24.759 16.1707 24.759 17.2834C24.759 18.396 25.6629 19.298 26.778 19.298Z" fill="black"/>
<path d="M26.778 19.298C27.893 19.298 28.797 18.396 28.797 17.2834C28.797 16.1707 27.893 15.2687 26.778 15.2687C25.6629 15.2687 24.759 16.1707 24.759 17.2834C24.759 18.396 25.6629 19.298 26.778 19.298Z" fill="black"/>
<path d="M16.4706 28.6289C17.5856 28.6289 18.4896 27.7269 18.4896 26.6143C18.4896 25.5016 17.5856 24.5996 16.4706 24.5996C15.3555 24.5996 14.4516 25.5016 14.4516 26.6143C14.4516 27.7269 15.3555 28.6289 16.4706 28.6289Z" fill="black"/>
<path d="M16.4706 28.6289C17.5856 28.6289 18.4896 27.7269 18.4896 26.6143C18.4896 25.5016 17.5856 24.5996 16.4706 24.5996C15.3555 24.5996 14.4516 25.5016 14.4516 26.6143C14.4516 27.7269 15.3555 28.6289 16.4706 28.6289Z" fill="black"/>
<path d="M4.17757 46.6545H3.12703L4.72775 42.0276H5.99112L7.58957 46.6545H6.53902L5.37754 43.0849H5.34131L4.17757 46.6545ZM4.11191 44.8358H6.59337V45.5994H4.11191V44.8358ZM9.12803 42.0276V46.6545H8.14767V42.0276H9.12803ZM4.17757 54.3949H3.12703L4.72775 49.768H5.99112L7.58957 54.3949H6.53902L5.37754 50.8253H5.34131L4.17757 54.3949ZM4.11191 52.5762H6.59337V53.3398H4.11191V52.5762ZM10.5572 51.0986C10.5391 50.9165 10.4614 50.7748 10.324 50.674C10.1867 50.573 10.0003 50.5226 9.7648 50.5226C9.60481 50.5226 9.46972 50.5451 9.35953 50.5903C9.24935 50.634 9.16482 50.6951 9.10595 50.7733C9.0486 50.8517 9.01992 50.9405 9.01992 51.0399C9.0169 51.1228 9.03425 51.195 9.07199 51.2568C9.11124 51.3185 9.16482 51.372 9.23274 51.4173C9.30066 51.4609 9.37916 51.4993 9.46821 51.5324C9.55726 51.5641 9.65236 51.5912 9.75349 51.6137L10.1701 51.7132C10.3723 51.7584 10.558 51.8186 10.727 51.8939C10.8961 51.9693 11.0425 52.0618 11.1663 52.1718C11.2901 52.2817 11.386 52.4113 11.4539 52.5604C11.5232 52.7095 11.5587 52.8804 11.5602 53.0733C11.5587 53.3564 11.4863 53.6019 11.3429 53.8098C11.201 54.0161 10.9958 54.1765 10.727 54.291C10.4599 54.4039 10.1376 54.4604 9.76028 54.4604C9.38595 54.4604 9.05992 54.4031 8.78219 54.2887C8.50596 54.1742 8.29012 54.0048 8.13465 53.7804C7.98069 53.5545 7.89994 53.2751 7.8924 52.9422H8.84105C8.85162 53.0974 8.89615 53.2268 8.97463 53.3307C9.05464 53.4332 9.16105 53.5108 9.29387 53.5635C9.42821 53.6147 9.57991 53.6403 9.74896 53.6403C9.91499 53.6403 10.0591 53.6162 10.1814 53.568C10.3052 53.5198 10.401 53.4528 10.4689 53.3669C10.5369 53.2811 10.5708 53.1824 10.5708 53.071C10.5708 52.967 10.5399 52.8797 10.478 52.8089C10.4176 52.7381 10.3286 52.6779 10.2108 52.6282C10.0946 52.5784 9.95197 52.5333 9.78292 52.4926L9.27803 52.366C8.88709 52.2713 8.57841 52.1228 8.35201 51.921C8.1256 51.7192 8.01314 51.4474 8.01466 51.1054C8.01314 50.8253 8.08786 50.5806 8.2388 50.3712C8.39125 50.1618 8.6003 49.9984 8.86596 49.8809C9.13161 49.7635 9.43349 49.7047 9.7716 49.7047C10.1157 49.7047 10.4161 49.7635 10.6727 49.8809C10.9308 49.9984 11.1316 50.1618 11.2749 50.3712C11.4184 50.5806 11.4923 50.8231 11.4969 51.0986H10.5572ZM14.7351 51.0986C14.7169 50.9165 14.6393 50.7748 14.5019 50.674C14.3645 50.573 14.1781 50.5226 13.9426 50.5226C13.7827 50.5226 13.6475 50.5451 13.5373 50.5903C13.4271 50.634 13.3427 50.6951 13.2838 50.7733C13.2264 50.8517 13.1977 50.9405 13.1977 51.0399C13.1947 51.1228 13.2121 51.195 13.2498 51.2568C13.2891 51.3185 13.3427 51.372 13.4106 51.4173C13.4785 51.4609 13.557 51.4993 13.646 51.5324C13.7351 51.5641 13.8302 51.5912 13.9314 51.6137L14.3479 51.7132C14.5502 51.7584 14.7359 51.8186 14.9049 51.8939C15.074 51.9693 15.2203 52.0618 15.3441 52.1718C15.4679 52.2817 15.5637 52.4113 15.6316 52.5604C15.7011 52.7095 15.7365 52.8804 15.7381 53.0733C15.7365 53.3564 15.6642 53.6019 15.5207 53.8098C15.3789 54.0161 15.1736 54.1765 14.9049 54.291C14.6377 54.4039 14.3155 54.4604 13.9382 54.4604C13.5638 54.4604 13.2378 54.4031 12.96 54.2887C12.6838 54.1742 12.4679 54.0048 12.3125 53.7804C12.1585 53.5545 12.0778 53.2751 12.0702 52.9422H13.0189C13.0294 53.0974 13.074 53.2268 13.1525 53.3307C13.2325 53.4332 13.3388 53.5108 13.4717 53.5635C13.6061 53.6147 13.7577 53.6403 13.9268 53.6403C14.0929 53.6403 14.237 53.6162 14.3593 53.568C14.483 53.5198 14.5788 53.4528 14.6468 53.3669C14.7147 53.2811 14.7486 53.1824 14.7486 53.071C14.7486 52.967 14.7177 52.8797 14.6558 52.8089C14.5955 52.7381 14.5064 52.6779 14.3887 52.6282C14.2725 52.5784 14.1299 52.5333 13.9608 52.4926L13.4558 52.366C13.0649 52.2713 12.7562 52.1228 12.5299 51.921C12.3034 51.7192 12.191 51.4474 12.1925 51.1054C12.191 50.8253 12.2657 50.5806 12.4166 50.3712C12.5691 50.1618 12.7781 49.9984 13.0437 49.8809C13.3094 49.7635 13.6113 49.7047 13.9494 49.7047C14.2936 49.7047 14.5939 49.7635 14.8505 49.8809C15.1086 49.9984 15.3094 50.1618 15.4528 50.3712C15.5962 50.5806 15.6701 50.8231 15.6747 51.0986H14.7351ZM17.3779 49.768V54.3949H16.3975V49.768H17.3779ZM20.6998 51.0986C20.6817 50.9165 20.604 50.7748 20.4667 50.674C20.3293 50.573 20.1429 50.5226 19.9074 50.5226C19.7474 50.5226 19.6123 50.5451 19.5021 50.5903C19.3919 50.634 19.3075 50.6951 19.2486 50.7733C19.1912 50.8517 19.1625 50.9405 19.1625 51.0399C19.1595 51.1228 19.1769 51.195 19.2146 51.2568C19.2538 51.3185 19.3075 51.372 19.3754 51.4173C19.4433 51.4609 19.5218 51.4993 19.6108 51.5324C19.6999 51.5641 19.795 51.5912 19.8962 51.6137L20.3127 51.7132C20.5149 51.7584 20.7007 51.8186 20.8696 51.8939C21.0387 51.9693 21.1851 52.0618 21.3089 52.1718C21.4327 52.2817 21.5285 52.4113 21.5964 52.5604C21.6658 52.7095 21.7013 52.8804 21.7028 53.0733C21.7013 53.3564 21.6289 53.6019 21.4855 53.8098C21.3437 54.0161 21.1384 54.1765 20.8696 54.291C20.6025 54.4039 20.2803 54.4604 19.9028 54.4604C19.5286 54.4604 19.2026 54.4031 18.9248 54.2887C18.6485 54.1742 18.4327 54.0048 18.2773 53.7804C18.1233 53.5545 18.0425 53.2751 18.035 52.9422H18.9837C18.9942 53.0974 19.0387 53.2268 19.1173 53.3307C19.1973 53.4332 19.3036 53.5108 19.4365 53.5635C19.5708 53.6147 19.7225 53.6403 19.8916 53.6403C20.0576 53.6403 20.2018 53.6162 20.324 53.568C20.4478 53.5198 20.5436 53.4528 20.6115 53.3669C20.6795 53.2811 20.7134 53.1824 20.7134 53.071C20.7134 52.967 20.6825 52.8797 20.6206 52.8089C20.5603 52.7381 20.4711 52.6779 20.3534 52.6282C20.2373 52.5784 20.0945 52.5333 19.9255 52.4926L19.4206 52.366C19.0297 52.2713 18.721 52.1228 18.4947 51.921C18.2682 51.7192 18.1558 51.4474 18.1573 51.1054C18.1558 50.8253 18.2305 50.5806 18.3814 50.3712C18.5339 50.1618 18.7429 49.9984 19.0085 49.8809C19.2742 49.7635 19.5761 49.7047 19.9142 49.7047C20.2584 49.7047 20.5587 49.7635 20.8153 49.8809C21.0734 49.9984 21.2742 50.1618 21.4176 50.3712C21.561 50.5806 21.6349 50.8231 21.6395 51.0986H20.6998ZM22.1857 50.5745V49.768H25.9939V50.5745H24.5743V54.3949H23.6052V50.5745H22.1857ZM26.8536 54.3949H25.8031L27.4039 49.768H28.6672L30.2657 54.3949H29.2151L28.0537 50.8253H28.0174L26.8536 54.3949ZM26.788 52.5762H29.2695V53.3398H26.788V52.5762ZM34.7021 49.768V54.3949H33.8555L31.8381 51.4828H31.8042V54.3949H30.8238V49.768H31.6841L33.6856 52.6779H33.7263V49.768H34.7021ZM35.3356 50.5745V49.768H39.1438V50.5745H37.7242V54.3949H36.7551V50.5745H35.3356Z" fill="white"/>
</svg>
