<svg width="134" height="134" viewBox="0 0 134 134" fill="none" xmlns="http://www.w3.org/2000/svg">
<path d="M67 134C104.003 134 134 104.003 134 67C134 29.9969 104.003 0 67 0C29.9969 0 0 29.9969 0 67C0 104.003 29.9969 134 67 134Z" fill="#16BC3D"/>
<path d="M103.468 42.0591C103.34 42.8778 102.928 43.6643 102.215 44.2584C85.2208 58.3933 72.7701 77.4533 60.4967 101.036C59.6971 102.572 58.1145 103.547 56.3925 103.722C54.6327 103.903 52.8822 104.214 51.1695 104.658C48.8326 105.259 46.3824 104.23 45.1772 102.14C40.26 93.631 33.8091 86.0089 26.2267 79.7562C25.0818 78.8131 24.8385 77.1645 25.6552 75.9273C25.6855 75.8782 25.7174 75.8311 25.7495 75.782C30.0991 69.2747 39.5489 69.0031 44.2851 75.235C46.6183 78.3019 49.0251 81.4217 51.1979 84.9338C62.0831 67.7771 79.9754 47.3686 98.3224 38.2904C99.3617 37.7756 100.588 37.7887 101.614 38.3356C103.043 39.0997 103.688 40.6274 103.468 42.0591Z" fill="white"/>
</svg>
